{
.appVersion = "1352";
copyright = "Copyright 2003-2021 The Moo Lah Lah Project Authors (https://github.com/googlefonts/moolahlah)";
customParameters = (
{
name = licenseURL;
value = "https://scripts.sil.org/OFL";
},
{
name = license;
value = "This Font Software is licensed under the SIL Open Font License, Version 1.1. This license is available with a FAQ at: https://scripts.sil.org/OFL";
},
{
name = vendorID;
value = GOOG;
},
{
name = "Disable Subroutines";
value = 1;
},
{
name = glyphOrder;
value = (
.notdef,
CR,
NULL,
space,
nbspace
);
},
{
name = fsType;
value = (
);
},
{
name = "Use Typo Metrics";
value = 1;
}
);
date = "2021-11-18 01:34:51 +0000";
designer = "Robert E. Leuschke";
designerURL = www.typesetit.com;
familyName = "Moo Lah Lah";
featurePrefixes = (
{
automatic = 1;
code = "languagesystem DFLT dflt;\012\012languagesystem latn dflt;\012languagesystem latn AZE;\012languagesystem latn CRT;\012languagesystem latn KAZ;\012languagesystem latn TAT;\012languagesystem latn TRK;\012languagesystem latn ROM;\012languagesystem latn MOL;\012languagesystem latn CAT;\012";
name = Languagesystems;
}
);
features = (
{
automatic = 1;
code = "feature locl;\012feature sups;\012feature frac;\012feature ordn;\012";
name = aalt;
},
{
automatic = 1;

glyphs = (
{
glyphname = .notdef;
lastChange = "2021-09-29 06:34:26 +0000";
layers = (
{
hints = (
{
horizontal = 1;
place = "{0, 63}";
type = Stem;
},
{
horizontal = 1;
place = "{738, 62}";
type = Stem;
},
{
place = "{63, 62}";
type = Stem;
},
{
place = "{375, 63}";
type = Stem;
}
);
layerId = "F72AA8BB-7F63-4F07-AEAC-030E55A5CABB";
paths = (
{
closed = 1;
nodes = (
"438 0 LINE",
"438 800 LINE",
"63 800 LINE",
"63 0 LINE"
);
},
{
closed = 1;
nodes = (
"300 699 OFFCURVE",
"286 625 OFFCURVE",
"270 593 CURVE SMOOTH",
"255 564 OFFCURVE",
"263 521 OFFCURVE",
"261 496 CURVE",
"232 589 OFFCURVE",
"201 692 OFFCURVE",
"185 738 CURVE",
"207 738 OFFCURVE",
"229 738 OFFCURVE",
"251 738 CURVE SMOOTH",
"312 738 LINE"
);
},
{
closed = 1;
nodes = (
"314 336 OFFCURVE",
"295 389 OFFCURVE",
"275 452 CURVE",
"282 473 OFFCURVE",
"289 488 OFFCURVE",
"293 496 CURVE SMOOTH",
"315 535 OFFCURVE",
"358 636 OFFCURVE",
"382 692 CURVE",
"384 675 OFFCURVE",
"384 656 OFFCURVE",
"375 636 CURVE",
"375 597 OFFCURVE",
"369 563 OFFCURVE",
"375 538 CURVE SMOOTH",
"391 470 OFFCURVE",
"344 388 OFFCURVE",
"375 313 CURVE SMOOTH",
"387 284 OFFCURVE",
"381 243 OFFCURVE",
"377 203 CURVE",
"357 248 OFFCURVE",
"336 295 OFFCURVE",
"323 319 CURVE SMOOTH"
);
},
{
closed = 1;
nodes = (
"125 259 OFFCURVE",
"148 303 OFFCURVE",
"125 328 CURVE SMOOTH",
"107 348 OFFCURVE",
"119 368 OFFCURVE",
"125 388 CURVE SMOOTH",
"147 459 OFFCURVE",
"136 543 OFFCURVE",
"125 564 CURVE SMOOTH",
"108 597 OFFCURVE",
"112 634 OFFCURVE",
"118 671 CURVE",
"124 661 OFFCURVE",
"132 652 OFFCURVE",
"139 647 CURVE SMOOTH",
"158 634 OFFCURVE",
"203 601 OFFCURVE",
"200 571 CURVE SMOOTH",
"193 512 OFFCURVE",
"206 476 OFFCURVE",
"220 446 CURVE",
"219 444 OFFCURVE",
"219 443 OFFCURVE",
"218 442 CURVE",
"192 386 OFFCURVE",
"173 274 OFFCURVE",
"170 244 CURVE SMOOTH",
"168 221 OFFCURVE",
"144 196 OFFCURVE",
"125 180 CURVE",
"125 225 LINE SMOOTH"
);
},
{
closed = 1;
nodes = (
"222 63 OFFCURVE",
"199 93 OFFCURVE",
"167 63 CURVE",
"151 63 LINE",
"166 105 OFFCURVE",
"211 259 OFFCURVE",
"248 372 CURVE",
"252 347 OFFCURVE",
"226 303 OFFCURVE",
"250 297 CURVE SMOOTH",
"274 291 OFFCURVE",
"279 264 OFFCURVE",
"300 222 CURVE SMOOTH",
"318 185 OFFCURVE",
"334 95 OFFCURVE",
"346 63 CURVE",
"298 63 LINE",
"282 75 OFFCURVE",
"267 77 OFFCURVE",
"250 63 CURVE"
);
}
);
width = 500;
}
);
note = .notdef;
},
{
glyphname = A;
layers = (
{
hints = (
{
horizontal = 1;
place = "{-8, 46}";
type = Stem;
},
{
horizontal = 1;
place = "{75, 35}";
type = Stem;
},
{
place = "{-5, 771}";
type = Stem;
},
{
horizontal = 1;
place = "{-14, 36}";
type = Stem;
},
{
place = "{-6, 771}";
type = Stem;
},
{
horizontal = 1;
place = "{-10, 32}";
type = Stem;
},
{
horizontal = 1;
place = "{-2, 21}";
target = up;
type = BottomGhost;
},
{
place = "{245, 52}";
type = Stem;
},
{
horizontal = 1;
place = "{592, 44}";
type = Stem;
},
{
horizontal = 1;
place = "{-1, 21}";
target = up;
type = BottomGhost;
},
{
place = "{264, 71}";
type = Stem;
},
{
place = "{387, 52}";
type = Stem;
}
);
layerId = "F72AA8BB-7F63-4F07-AEAC-030E55A5CABB";
paths = (
{
closed = 1;
nodes = (
"-4 -10 OFFCURVE",
"9 -17 OFFCURVE",
"34 -16 CURVE SMOOTH",
"58 -13 OFFCURVE",
"76 -11 OFFCURVE",
"89 -10 CURVE",
"120 -11 OFFCURVE",
"145 -12 OFFCURVE",
"162 -14 CURVE",
"195 -13 OFFCURVE",
"229 -9 OFFCURVE",
"262 -2 CURVE",
"263 -8 OFFCURVE",
"266 -11 OFFCURVE",
"270 -10 CURVE",
"288 -10 OFFCURVE",
"298 50 OFFCURVE",
"298 65 CURVE SMOOTH",
"297 75 LINE",
"380 75 LINE",
"422 79 OFFCURVE",
"443 90 OFFCURVE",
"442 108 CURVE SMOOTH",
"442 112 OFFCURVE",
"438 113 OFFCURVE",
"429 113 CURVE SMOOTH",
"322 110 LINE SMOOTH",
"311 110 OFFCURVE",
"283 118 OFFCURVE",
"271 117 CURVE SMOOTH",
"255 117 OFFCURVE",
"245 97 OFFCURVE",
"246 81 CURVE SMOOTH",
"250 55 OFFCURVE",
"254 35 OFFCURVE",
"257 21 CURVE",
"214 23 LINE",
"210 29 OFFCURVE",
"198 42 OFFCURVE",
"177 62 CURVE SMOOTH",
"162 76 OFFCURVE",
"155 91 OFFCURVE",
"154 108 CURVE SMOOTH",
"153 127 OFFCURVE",
"159 148 OFFCURVE",
"172 171 CURVE SMOOTH",
"185 194 OFFCURVE",
"191 210 OFFCURVE",
"191 220 CURVE SMOOTH",
"190 247 OFFCURVE",
"178 267 OFFCURVE",
"157 280 CURVE",
"179 356 OFFCURVE",
"195 413 OFFCURVE",
"206 452 CURVE",
"217 466 OFFCURVE",
"238 479 OFFCURVE",
"271 490 CURVE SMOOTH",
"298 499 OFFCURVE",
"314 514 OFFCURVE",
"321 534 CURVE SMOOTH",
"328 559 OFFCURVE",
"332 592 OFFCURVE",
"363 592 CURVE SMOOTH",
"393 593 OFFCURVE",
"422 589 OFFCURVE",
"450 579 CURVE",
"468 558 OFFCURVE",
"496 502 OFFCURVE",
"497 475 CURVE SMOOTH",
"497 470 OFFCURVE",
"496 465 OFFCURVE",
"495 462 CURVE",
"475 488 OFFCURVE",
"456 501 OFFCURVE",
"439 500 CURVE SMOOTH",
"408 498 OFFCURVE",
"399 490 OFFCURVE",
"400 461 CURVE SMOOTH",
"401 438 OFFCURVE",
"412 419 OFFCURVE",
"431 400 CURVE SMOOTH",
"434 397 OFFCURVE",
"454 385 OFFCURVE",
"490 360 CURVE SMOOTH",
"509 347 OFFCURVE",
"524 323 OFFCURVE",
"534 286 CURVE SMOOTH",
"543 254 OFFCURVE",
"552 238 OFFCURVE",
"561 238 CURVE SMOOTH",
"566 238 OFFCURVE",
"578 245 OFFCURVE",
"583 245 CURVE",
"594 230 OFFCURVE",
"635 134 OFFCURVE",
"635 121 CURVE SMOOTH",
"635 115 OFFCURVE",
"633 112 OFFCURVE",
"630 112 CURVE SMOOTH",
"622 112 OFFCURVE",
"594 128 OFFCURVE",
"582 128 CURVE SMOOTH",
"558 126 OFFCURVE",
"548 79 OFFCURVE",
"548 60 CURVE",
"549 53 OFFCURVE",
"550 45 OFFCURVE",
"551 38 CURVE",
"512 36 OFFCURVE",
"490 36 OFFCURVE",
"487 37 CURVE SMOOTH",
"467 44 OFFCURVE",
"467 77 OFFCURVE",
"459 77 CURVE SMOOTH",
"455 77 OFFCURVE",
"432 53 OFFCURVE",
"432 48 CURVE SMOOTH",
"433 31 OFFCURVE",
"441 17 OFFCURVE",
"456 6 CURVE SMOOTH",
"469 -4 OFFCURVE",
"485 -9 OFFCURVE",
"502 -8 CURVE SMOOTH",
"526 -7 OFFCURVE",
"562 -5 OFFCURVE",
"609 -1 CURVE SMOOTH",
"655 3 OFFCURVE",
"691 5 OFFCURVE",
"715 6 CURVE SMOOTH",
"750 6 LINE",
"761 9 OFFCURVE",
"767 18 OFFCURVE",
"766 34 CURVE SMOOTH",
"765 49 OFFCURVE",
"755 57 OFFCURVE",
"736 58 CURVE SMOOTH",
"717 59 OFFCURVE",
"685 116 OFFCURVE",
"636 225 CURVE SMOOTH",
"621 258 OFFCURVE",
"595 324 OFFCURVE",
"556 425 CURVE SMOOTH",
"529 494 OFFCURVE",
"507 548 OFFCURVE",
"495 590 CURVE SMOOTH",
"492 600 OFFCURVE",
"490 610 OFFCURVE",
"488 621 CURVE",
"484 631 OFFCURVE",
"476 636 OFFCURVE",
"463 636 CURVE SMOOTH",
"359 629 OFFCURVE",
"281 623 OFFCURVE",
"229 618 CURVE SMOOTH",
"219 617 OFFCURVE",
"212 609 OFFCURVE",
"208 594 CURVE SMOOTH",
"155 396 OFFCURVE",
"118 281 OFFCURVE",
"107 248 CURVE SMOOTH",
"102 234 OFFCURVE",
"92 201 OFFCURVE",
"80 150 CURVE SMOOTH",
"70 108 OFFCURVE",
"61 75 OFFCURVE",
"49 54 CURVE SMOOTH",
"46 49 OFFCURVE",
"36 43 OFFCURVE",
"17 37 CURVE SMOOTH",
"2 32 OFFCURVE",
"-6 21 OFFCURVE",
"-5 5 CURVE SMOOTH"
);
},
{
closed = 1;
nodes = (
"244 271 OFFCURVE",
"264 244 OFFCURVE",
"265 228 CURVE SMOOTH",
"265 220 OFFCURVE",
"260 201 OFFCURVE",
"261 193 CURVE SMOOTH",
"262 160 OFFCURVE",
"291 141 OFFCURVE",
"323 142 CURVE SMOOTH",
"368 143 OFFCURVE",
"402 172 OFFCURVE",
"401 215 CURVE",
"408 214 OFFCURVE",
"413 214 OFFCURVE",
"417 214 CURVE SMOOTH",
"433 214 OFFCURVE",
"442 224 OFFCURVE",
"440 245 CURVE SMOOTH",
"439 256 OFFCURVE",
"433 273 OFFCURVE",
"421 295 CURVE SMOOTH",
"395 345 LINE",
"394 348 OFFCURVE",
"386 369 OFFCURVE",
"374 409 CURVE SMOOTH",
"364 442 OFFCURVE",
"356 460 OFFCURVE",
"351 463 CURVE",
"344 463 OFFCURVE",
"329 417 OFFCURVE",
"329 409 CURVE",
"370 332 OFFCURVE",
"389 279 OFFCURVE",
"388 248 CURVE SMOOTH",
"388 242 LINE",
"369 236 OFFCURVE",
"355 231 OFFCURVE",
"346 226 CURVE",
"340 226 OFFCURVE",
"337 231 OFFCURVE",
"336 240 CURVE SMOOTH",
"336 260 OFFCURVE",
"346 314 OFFCURVE",
"345 335 CURVE SMOOTH",
"344 349 OFFCURVE",
"336 356 OFFCURVE",
"319 356 CURVE SMOOTH",
"299 355 OFFCURVE",
"283 348 OFFCURVE",
"267 336 CURVE SMOOTH",
"250 323 OFFCURVE",
"242 306 OFFCURVE",
"243 287 CURVE SMOOTH"
);
}
);
width = 777;
}
);
note = A;
unicode = 0041;
},
{
glyphname = AE;
layers = (
{
hints = (
{
horizontal = 1;
place = "{-10, 45}";
type = Stem;
},
{
horizontal = 1;
place = "{78, 37}";
type = Stem;
},
{
horizontal = 1;
place = "{214, 43}";
type = Stem;
},
{
horizontal = 1;
place = "{381, 22}";
type = Stem;
},
{
horizontal = 1;
place = "{440, 40}";
type = Stem;
},
{
horizontal = 1;
place = "{596, 29}";
type = Stem;
},
{
place = "{243, 51}";
type = Stem;
},
{
place = "{391, 52}";
type = Stem;
},
{
place = "{497, 36}";
type = Stem;
},
{
place = "{723, 21}";
type = Stem;
},
{
place = "{891, 38}";
type = Stem;
},
{
horizontal = 1;
place = "{0, 190}";
type = Stem;
},
{
horizontal = 1;
place = "{-3, 33}";
type = Stem;
},
{
place = "{884, 31}";
type = Stem;
},
{
horizontal = 1;
place = "{238, 70}";
type = Stem;
},
{
horizontal = 1;
place = "{-16, 21}";
target = up;
type = BottomGhost;
},
{
horizontal = 1;
place = "{147, 84}";
type = Stem;
},
{
place = "{248, 103}";
type = Stem;
},
{
place = "{262, 77}";
type = Stem;
},
{
horizontal = 1;
place = "{216, 29}";
type = Stem;
}
);
layerId = "F72AA8BB-7F63-4F07-AEAC-030E55A5CABB";
paths = (
{
closed = 1;
nodes = (
"83 4 LINE SMOOTH",
"98 5 OFFCURVE",
"141 -3 OFFCURVE",
"156 -3 CURVE SMOOTH",
"189 -3 OFFCURVE",
"223 0 OFFCURVE",
"256 6 CURVE",
"257 0 OFFCURVE",
"260 -3 OFFCURVE",
"264 -3 CURVE SMOOTH",
"272 -3 OFFCURVE",
"279 8 OFFCURVE",
"286 29 CURVE SMOOTH",
"292 47 OFFCURVE",
"295 61 OFFCURVE",
"294 71 CURVE SMOOTH",
"294 81 LINE",
"343 79 OFFCURVE",
"364 78 OFFCURVE",
"356 78 CURVE SMOOTH",
"412 78 OFFCURVE",
"440 88 OFFCURVE",
"440 109 CURVE SMOOTH",
"440 113 OFFCURVE",
"436 115 OFFCURVE",
"427 115 CURVE SMOOTH",
"320 115 LINE",
"309 116 OFFCURVE",
"281 125 OFFCURVE",
"269 125 CURVE SMOOTH",
"254 125 OFFCURVE",
"243 105 OFFCURVE",
"243 89 CURVE SMOOTH",
"243 77 OFFCURVE",
"252 44 OFFCURVE",
"252 29 CURVE",
"209 32 LINE",
"206 39 OFFCURVE",
"194 52 OFFCURVE",
"174 72 CURVE SMOOTH",
"159 87 OFFCURVE",
"152 103 OFFCURVE",
"152 120 CURVE SMOOTH",
"152 139 OFFCURVE",
"159 159 OFFCURVE",
"173 182 CURVE SMOOTH",
"186 204 OFFCURVE",
"193 220 OFFCURVE",
"193 230 CURVE SMOOTH",
"193 257 OFFCURVE",
"182 277 OFFCURVE",
"161 291 CURVE",
"169 312 OFFCURVE",
"187 369 OFFCURVE",
"216 461 CURVE",
"227 474 OFFCURVE",
"249 487 OFFCURVE",
"282 497 CURVE SMOOTH",
"309 505 OFFCURVE",
"328 519 OFFCURVE",
"334 539 CURVE SMOOTH",
"342 564 OFFCURVE",
"347 596 OFFCURVE",
"378 596 CURVE SMOOTH",
"408 596 OFFCURVE",
"437 591 OFFCURVE",
"464 580 CURVE",
"474 567 OFFCURVE",
"484 549 OFFCURVE",
"494 526 CURVE",
"495 513 OFFCURVE",
"498 493 OFFCURVE",
"501 467 CURVE",
"484 490 OFFCURVE",
"467 501 OFFCURVE",
"451 501 CURVE SMOOTH",
"420 501 OFFCURVE",
"410 494 OFFCURVE",
"410 463 CURVE SMOOTH",
"410 440 OFFCURVE",
"420 419 OFFCURVE",
"439 401 CURVE",
"500 357 LINE",
"498 292 OFFCURVE",
"497 248 OFFCURVE",
"497 226 CURVE SMOOTH",
"497 203 OFFCURVE",
"504 121 OFFCURVE",
"504 98 CURVE SMOOTH",
"504 90 OFFCURVE",
"500 72 OFFCURVE",
"500 65 CURVE SMOOTH",
"500 54 OFFCURVE",
"508 48 OFFCURVE",
"523 48 CURVE SMOOTH",
"530 48 OFFCURVE",
"533 58 OFFCURVE",
"533 77 CURVE SMOOTH",
"533 98 OFFCURVE",
"536 168 OFFCURVE",
"536 188 CURVE SMOOTH",
"536 225 OFFCURVE",
"536 281 OFFCURVE",
"535 355 CURVE",
"544 353 OFFCURVE",
"552 352 OFFCURVE",
"559 352 CURVE SMOOTH",
"595 352 OFFCURVE",
"623 380 OFFCURVE",
"623 416 CURVE SMOOTH",
"623 427 OFFCURVE",
"614 452 OFFCURVE",
"614 463 CURVE SMOOTH",
"614 481 OFFCURVE",
"627 502 OFFCURVE",
"652 526 CURVE SMOOTH",
"681 554 OFFCURVE",
"698 576 OFFCURVE",
"703 593 CURVE",
"714 593 OFFCURVE",
"735 592 OFFCURVE",
"768 591 CURVE SMOOTH",
"797 590 OFFCURVE",
"819 590 OFFCURVE",
"835 591 CURVE SMOOTH",
"860 591 OFFCURVE",
"881 593 OFFCURVE",
"900 597 CURVE",
"894 570 OFFCURVE",
"891 551 OFFCURVE",
"891 538 CURVE SMOOTH",
"891 526 OFFCURVE",
"900 501 OFFCURVE",
"900 489 CURVE SMOOTH",
"900 480 LINE",
"891 479 OFFCURVE",
"884 478 OFFCURVE",
"878 477 CURVE",
"881 486 OFFCURVE",
"882 494 OFFCURVE",
"882 502 CURVE SMOOTH",
"882 537 OFFCURVE",
"864 554 OFFCURVE",
"829 554 CURVE SMOOTH",
"781 554 OFFCURVE",
"746 515 OFFCURVE",
"745 466 CURVE",
"721 467 OFFCURVE",
"709 459 OFFCURVE",
"709 441 CURVE SMOOTH",
"709 436 OFFCURVE",
"714 422 OFFCURVE",
"723 399 CURVE",
"715 390 LINE",
"715 384 OFFCURVE",
"740 381 OFFCURVE",
"789 381 CURVE",
"797 356 OFFCURVE",
"799 324 OFFCURVE",
"839 324 CURVE SMOOTH",
"862 324 OFFCURVE",
"877 335 OFFCURVE",
"884 358 CURVE",
"881 317 OFFCURVE",
"882 284 OFFCURVE",
"887 257 CURVE",
"875 257 OFFCURVE",
"843 251 OFFCURVE",
"828 252 CURVE SMOOTH",
"823 252 LINE",
"801 275 OFFCURVE",
"788 288 OFFCURVE",
"784 291 CURVE SMOOTH",
"769 302 OFFCURVE",
"753 308 OFFCURVE",
"734 308 CURVE SMOOTH",
"682 308 OFFCURVE",
"573 171 OFFCURVE",
"571 121 CURVE",
"553 111 OFFCURVE",
"545 76 OFFCURVE",
"545 57 CURVE SMOOTH",
"545 50 OFFCURVE",
"546 42 OFFCURVE",
"547 35 CURVE",
"535 35 LINE SMOOTH",
"525 36 OFFCURVE",
"516 36 OFFCURVE",
"508 36 CURVE SMOOTH",
"505 36 OFFCURVE",
"502 36 OFFCURVE",
"499 35 CURVE",
"479 37 OFFCURVE",
"470 39 OFFCURVE",
"465 62 CURVE SMOOTH",
"463 72 OFFCURVE",
"460 77 OFFCURVE",
"456 77 CURVE SMOOTH",
"452 77 OFFCURVE",
"428 55 OFFCURVE",
"428 50 CURVE SMOOTH",
"428 14 OFFCURVE",
"461 -9 OFFCURVE",
"496 -9 CURVE SMOOTH",
"505 -9 LINE",
"509 -10 OFFCURVE",
"513 -10 OFFCURVE",
"518 -10 CURVE SMOOTH",
"538 -10 OFFCURVE",
"606 -8 OFFCURVE",
"721 -3 CURVE",
"736 -4 OFFCURVE",
"745 -4 OFFCURVE",
"750 -2 CURVE",
"774 -1 OFFCURVE",
"796 0 OFFCURVE",
"816 0 CURVE SMOOTH",
"831 0 OFFCURVE",
"851 -3 OFFCURVE",
"876 -8 CURVE SMOOTH",
"901 -13 OFFCURVE",
"919 -16 OFFCURVE",
"928 -16 CURVE SMOOTH",
"946 -16 OFFCURVE",
"955 11 OFFCURVE",
"955 64 CURVE SMOOTH",
"955 84 OFFCURVE",
"940 153 OFFCURVE",
"940 174 CURVE SMOOTH",
"940 193 LINE",
"938 198 OFFCURVE",
"933 201 OFFCURVE",
"924 201 CURVE SMOOTH",
"904 201 OFFCURVE",
"834 190 OFFCURVE",
"813 190 CURVE SMOOTH",
"747 190 LINE",
"746 209 OFFCURVE",
"742 225 OFFCURVE",
"736 238 CURVE",
"747 238 LINE",
"756 222 OFFCURVE",
"802 214 OFFCURVE",
"884 214 CURVE SMOOTH",
"905 214 OFFCURVE",
"915 222 OFFCURVE",
"915 239 CURVE SMOOTH",
"915 246 OFFCURVE",
"913 252 OFFCURVE",
"908 255 CURVE",
"909 260 OFFCURVE",
"914 283 OFFCURVE",
"921 322 CURVE SMOOTH",
"928 361 OFFCURVE",
"931 383 OFFCURVE",
"931 387 CURVE SMOOTH",
"931 401 OFFCURVE",
"918 408 OFFCURVE",
"892 408 CURVE SMOOTH",
"876 408 OFFCURVE",
"851 408 OFFCURVE",
"818 406 CURVE SMOOTH",
"785 404 OFFCURVE",
"760 403 OFFCURVE",
"743 403 CURVE",
"744 434 LINE SMOOTH",
"744 438 OFFCURVE",
"773 440 OFFCURVE",
"830 440 CURVE SMOOTH",
"850 440 OFFCURVE",
"897 435 OFFCURVE",
"916 435 CURVE SMOOTH",
"928 435 OFFCURVE",
"934 441 OFFCURVE",
"934 453 CURVE SMOOTH",
"934 458 OFFCURVE",
"932 462 OFFCURVE",
"929 466 CURVE",
"929 556 LINE SMOOTH",
"929 563 OFFCURVE",
"932 589 OFFCURVE",
"932 601 CURVE SMOOTH",
"932 623 OFFCURVE",
"925 634 OFFCURVE",
"910 634 CURVE SMOOTH",
"885 634 OFFCURVE",
"795 625 OFFCURVE",
"770 625 CURVE SMOOTH",
"402 625 OFFCURVE",
"227 625 OFFCURVE",
"245 626 CURVE",
"235 626 OFFCURVE",
"228 618 OFFCURVE",
"223 603 CURVE SMOOTH",
"198 527 OFFCURVE",
"164 411 OFFCURVE",
"110 261 CURVE SMOOTH",
"105 247 OFFCURVE",
"95 214 OFFCURVE",
"80 163 CURVE SMOOTH",
"68 122 OFFCURVE",
"57 90 OFFCURVE",
"45 69 CURVE SMOOTH",
"42 64 OFFCURVE",
"32 59 OFFCURVE",
"13 53 CURVE SMOOTH",
"-2 48 OFFCURVE",
"-10 38 OFFCURVE",
"-10 22 CURVE SMOOTH",
"-10 7 OFFCURVE",
"3 0 OFFCURVE",
"28 0 CURVE SMOOTH"
);
},
{
closed = 1;
nodes = (
"248 279 OFFCURVE",
"267 251 OFFCURVE",
"267 235 CURVE SMOOTH",
"267 227 OFFCURVE",
"262 208 OFFCURVE",
"262 200 CURVE SMOOTH",
"262 168 OFFCURVE",
"290 147 OFFCURVE",
"323 147 CURVE SMOOTH",
"367 147 OFFCURVE",
"403 174 OFFCURVE",
"403 218 CURVE",
"410 217 OFFCURVE",
"416 216 OFFCURVE",
"420 216 CURVE SMOOTH",
"435 216 OFFCURVE",
"443 226 OFFCURVE",
"443 246 CURVE SMOOTH",
"443 257 OFFCURVE",
"437 274 OFFCURVE",
"426 297 CURVE SMOOTH",
"418 314 OFFCURVE",
"409 331 OFFCURVE",
"401 348 CURVE SMOOTH",
"400 351 OFFCURVE",
"394 372 OFFCURVE",
"383 412 CURVE SMOOTH",
"374 445 OFFCURVE",
"367 464 OFFCURVE",
"362 467 CURVE",
"355 467 OFFCURVE",
"337 423 OFFCURVE",
"337 414 CURVE",
"375 336 OFFCURVE",
"393 282 OFFCURVE",
"391 251 CURVE SMOOTH",
"391 245 LINE",
"379 245 OFFCURVE",
"355 231 OFFCURVE",
"348 231 CURVE SMOOTH",
"342 231 OFFCURVE",
"339 236 OFFCURVE",
"339 245 CURVE SMOOTH",
"339 265 OFFCURVE",
"351 318 OFFCURVE",
"351 339 CURVE SMOOTH",
"351 354 OFFCURVE",
"343 361 OFFCURVE",
"326 361 CURVE SMOOTH",
"286 361 OFFCURVE",
"248 334 OFFCURVE",
"248 295 CURVE SMOOTH"
);
}
);
width = 969;
}
);
note = AE;
unicode = 00C6;
},
{
glyphname = B;
layers = (
{
hints = (
{
horizontal = 1;
place = "{6, 37}";
type = Stem;
},
{
horizontal = 1;
place = "{0, 21}";
target = up;
type = BottomGhost;
},
{
horizontal = 1;
place = "{148, 28}";
type = Stem;
},
{
horizontal = 1;
place = "{255, 32}";
type = Stem;
},
{
horizontal = 1;
place = "{315, 86}";
type = Stem;
},
{
horizontal = 1;
place = "{463, 25}";
type = Stem;
},
{
horizontal = 1;
place = "{603, 39}";
type = Stem;
},
{
place = "{44, 27}";
type = Stem;
},
{
place = "{337, 34}";
type = Stem;
},
{
place = "{553, 32}";
type = Stem;
},
{
horizontal = 1;
place = "{4, 78}";
type = Stem;
},
{
horizontal = 1;
place = "{309, 19}";
type = Stem;
},
{
place = "{391, 162}";
type = Stem;
},
{
place = "{355, 22}";
type = Stem;
}
);
layerId = "F72AA8BB-7F63-4F07-AEAC-030E55A5CABB";
paths = (
{
closed = 1;
nodes = (
"22 0 OFFCURVE",
"47 1 OFFCURVE",
"80 3 CURVE SMOOTH",
"113 5 OFFCURVE",
"138 6 OFFCURVE",
"155 6 CURVE SMOOTH",
"173 6 OFFCURVE",
"253 4 OFFCURVE",
"278 4 CURVE SMOOTH",
"418 4 OFFCURVE",
"585 24 OFFCURVE",
"585 202 CURVE SMOOTH",
"585 275 OFFCURVE",
"554 299 OFFCURVE",
"495 334 CURVE",
"545 366 OFFCURVE",
"553 406 OFFCURVE",
"553 462 CURVE SMOOTH",
"553 588 OFFCURVE",
"466 621 OFFCURVE",
"357 628 CURVE SMOOTH",
"277 630 OFFCURVE",
"198 631 OFFCURVE",
"118 638 CURVE SMOOTH",
"81 641 OFFCURVE",
"50 642 OFFCURVE",
"27 642 CURVE SMOOTH",
"2 642 OFFCURVE",
"-11 633 OFFCURVE",
"-11 614 CURVE SMOOTH",
"-11 607 OFFCURVE",
"-3 600 OFFCURVE",
"13 593 CURVE SMOOTH",
"29 586 OFFCURVE",
"38 571 OFFCURVE",
"40 549 CURVE SMOOTH",
"43 516 OFFCURVE",
"44 463 OFFCURVE",
"44 390 CURVE SMOOTH",
"44 179 OFFCURVE",
"36 70 OFFCURVE",
"20 63 CURVE SMOOTH",
"-9 50 OFFCURVE",
"-24 37 OFFCURVE",
"-24 24 CURVE SMOOTH",
"-24 8 OFFCURVE",
"-14 0 OFFCURVE",
"5 0 CURVE SMOOTH"
);
},
{
closed = 1;
nodes = (
"135 203 OFFCURVE",
"142 229 OFFCURVE",
"161 279 CURVE SMOOTH",
"170 303 OFFCURVE",
"180 315 OFFCURVE",
"192 315 CURVE SMOOTH",
"231 315 OFFCURVE",
"255 317 OFFCURVE",
"265 320 CURVE SMOOTH",
"288 327 OFFCURVE",
"305 344 OFFCURVE",
"314 373 CURVE",
"333 377 OFFCURVE",
"371 419 OFFCURVE",
"371 438 CURVE SMOOTH",
"371 458 OFFCURVE",
"347 475 OFFCURVE",
"299 488 CURVE",
"299 501 OFFCURVE",
"321 533 OFFCURVE",
"321 556 CURVE SMOOTH",
"321 573 OFFCURVE",
"315 588 OFFCURVE",
"304 600 CURVE",
"332 601 LINE SMOOTH",
"367 602 OFFCURVE",
"405 595 OFFCURVE",
"446 582 CURVE",
"433 572 OFFCURVE",
"420 562 OFFCURVE",
"407 553 CURVE",
"396 543 OFFCURVE",
"391 528 OFFCURVE",
"391 507 CURVE SMOOTH",
"391 449 OFFCURVE",
"430 396 OFFCURVE",
"489 390 CURVE SMOOTH",
"500 389 OFFCURVE",
"505 387 OFFCURVE",
"505 385 CURVE SMOOTH",
"505 380 OFFCURVE",
"492 368 OFFCURVE",
"466 349 CURVE",
"458 352 OFFCURVE",
"451 353 OFFCURVE",
"444 353 CURVE SMOOTH",
"433 353 OFFCURVE",
"427 349 OFFCURVE",
"427 340 CURVE SMOOTH",
"427 336 OFFCURVE",
"430 332 OFFCURVE",
"436 328 CURVE",
"429 325 OFFCURVE",
"425 321 OFFCURVE",
"425 317 CURVE SMOOTH",
"425 314 LINE",
"435 309 LINE",
"443 309 OFFCURVE",
"452 311 OFFCURVE",
"463 316 CURVE",
"524 289 OFFCURVE",
"553 255 OFFCURVE",
"553 186 CURVE SMOOTH",
"553 155 OFFCURVE",
"536 94 OFFCURVE",
"497 94 CURVE SMOOTH",
"478 94 OFFCURVE",
"431 116 OFFCURVE",
"410 116 CURVE SMOOTH",
"395 116 OFFCURVE",
"376 110 OFFCURVE",
"351 99 CURVE SMOOTH",
"326 88 OFFCURVE",
"307 82 OFFCURVE",
"294 82 CURVE SMOOTH",
"279 82 OFFCURVE",
"265 88 OFFCURVE",
"250 100 CURVE SMOOTH",
"235 112 OFFCURVE",
"221 118 OFFCURVE",
"208 118 CURVE SMOOTH",
"190 118 OFFCURVE",
"169 106 OFFCURVE",
"145 81 CURVE SMOOTH",
"120 55 OFFCURVE",
"104 43 OFFCURVE",
"95 43 CURVE SMOOTH",
"80 43 OFFCURVE",
"73 72 OFFCURVE",
"73 130 CURVE",
"99 145 OFFCURVE",
"119 169 OFFCURVE",
"134 202 CURVE"
);
},
{
closed = 1;
nodes = (
"237 165 OFFCURVE",
"244 153 OFFCURVE",
"258 150 CURVE SMOOTH",
"263 149 OFFCURVE",
"277 148 OFFCURVE",
"300 148 CURVE SMOOTH",
"339 148 OFFCURVE",
"365 163 OFFCURVE",
"377 193 CURVE",
"386 194 LINE SMOOTH",
"395 194 OFFCURVE",
"405 187 OFFCURVE",
"417 174 CURVE SMOOTH",
"429 161 OFFCURVE",
"440 154 OFFCURVE",
"450 154 CURVE SMOOTH",
"475 154 OFFCURVE",
"496 175 OFFCURVE",
"496 202 CURVE SMOOTH",
"496 237 OFFCURVE",
"470 241 OFFCURVE",
"450 250 CURVE",
"439 258 OFFCURVE",
"428 290 OFFCURVE",
"413 299 CURVE SMOOTH",
"401 306 OFFCURVE",
"383 310 OFFCURVE",
"358 310 CURVE SMOOTH",
"337 310 OFFCURVE",
"320 306 OFFCURVE",
"308 297 CURVE SMOOTH",
"301 292 OFFCURVE",
"294 289 OFFCURVE",
"287 288 CURVE",
"286 287 OFFCURVE",
"278 287 OFFCURVE",
"264 287 CURVE SMOOTH",
"247 286 OFFCURVE",
"238 281 OFFCURVE",
"238 271 CURVE SMOOTH",
"238 263 OFFCURVE",
"244 233 OFFCURVE",
"251 230 CURVE",
"259 230 OFFCURVE",
"266 255 OFFCURVE",
"279 255 CURVE SMOOTH",
"330 255 OFFCURVE",
"355 243 OFFCURVE",
"355 219 CURVE SMOOTH",
"355 186 OFFCURVE",
"300 176 OFFCURVE",
"275 176 CURVE SMOOTH",
"262 176 OFFCURVE",
"266 203 OFFCURVE",
"258 203 CURVE SMOOTH",
"247 203 OFFCURVE",
"237 191 OFFCURVE",
"237 182 CURVE SMOOTH"
);
},
{
closed = 1;
nodes = (
"140 602 OFFCURVE",
"177 603 OFFCURVE",
"202 604 CURVE SMOOTH",
"235 603 LINE",
"171 592 OFFCURVE",
"128 552 OFFCURVE",
"106 481 CURVE SMOOTH",
"94 433 LINE SMOOTH",
"87 407 OFFCURVE",
"81 394 OFFCURVE",
"76 394 CURVE SMOOTH",
"73 394 LINE",
"71 583 LINE SMOOTH",
"71 598 OFFCURVE",
"72 604 OFFCURVE",
"91 603 CURVE SMOOTH"
);
},
{
closed = 1;
nodes = (
"265 444 LINE SMOOTH",
"265 454 OFFCURVE",
"269 460 OFFCURVE",
"277 462 CURVE",
"278 463 OFFCURVE",
"287 463 OFFCURVE",
"302 463 CURVE SMOOTH",
"313 463 OFFCURVE",
"322 460 OFFCURVE",
"327 454 CURVE SMOOTH",
"330 450 OFFCURVE",
"333 441 OFFCURVE",
"337 428 CURVE",
"335 415 OFFCURVE",
"329 406 OFFCURVE",
"319 403 CURVE SMOOTH",
"315 402 OFFCURVE",
"304 401 OFFCURVE",
"286 401 CURVE SMOOTH",
"279 401 OFFCURVE",
"273 401 OFFCURVE",
"270 402 CURVE",
"267 409 OFFCURVE",
"265 415 OFFCURVE",
"265 422 CURVE SMOOTH"
);
}
);
width = 595;
}
);
note = B;
unicode = 0042;
},
{
glyphname = C;
layers = (
{
hints = (
{
horizontal = 1;
place = "{-22, 21}";
type = Stem;
},
{
horizontal = 1;
place = "{198, 37}";
type = Stem;
},
{
horizontal = 1;
place = "{407, 29}";
type = Stem;
},
{
horizontal = 1;
place = "{483, 142}";
type = Stem;
},
{
place = "{15, 23}";
type = Stem;
},
{
place = "{160, 97}";
type = Stem;
},
{
place = "{456, 42}";
type = Stem;
},
{
place = "{504, 35}";
type = Stem;
},
{
horizontal = 1;
place = "{-2, 36}";
type = Stem;
},
{
horizontal = 1;
place = "{105, 100}";
type = Stem;
},
{
place = "{502, 9}";
type = Stem;
}
);
layerId = "F72AA8BB-7F63-4F07-AEAC-030E55A5CABB";
paths = (
{
closed = 1;
nodes = (
"15 248 OFFCURVE",
"33 140 OFFCURVE",
"80 93 CURVE SMOOTH",
"157 16 OFFCURVE",
"241 -22 OFFCURVE",
"332 -22 CURVE SMOOTH",
"351 -22 OFFCURVE",
"377 -19 OFFCURVE",
"410 -13 CURVE SMOOTH",
"447 -6 OFFCURVE",
"473 -3 OFFCURVE",
"488 -2 CURVE SMOOTH",
"525 0 OFFCURVE",
"542 16 OFFCURVE",
"540 43 CURVE SMOOTH",
"539 54 OFFCURVE",
"535 73 OFFCURVE",
"526 100 CURVE SMOOTH",
"517 127 OFFCURVE",
"512 147 OFFCURVE",
"511 162 CURVE SMOOTH",
"509 182 OFFCURVE",
"526 247 OFFCURVE",
"525 266 CURVE SMOOTH",
"524 283 OFFCURVE",
"500 293 OFFCURVE",
"481 292 CURVE SMOOTH",
"466 291 OFFCURVE",
"458 275 OFFCURVE",
"456 246 CURVE",
"427 221 OFFCURVE",
"398 207 OFFCURVE",
"369 205 CURVE SMOOTH",
"316 201 OFFCURVE",
"261 239 OFFCURVE",
"257 292 CURVE SMOOTH",
"252 360 OFFCURVE",
"291 402 OFFCURVE",
"359 407 CURVE SMOOTH",
"384 409 OFFCURVE",
"412 404 OFFCURVE",
"441 392 CURVE SMOOTH",
"470 380 OFFCURVE",
"486 374 OFFCURVE",
"488 374 CURVE SMOOTH",
"497 375 OFFCURVE",
"500 395 OFFCURVE",
"498 435 CURVE SMOOTH",
"497 460 OFFCURVE",
"480 543 OFFCURVE",
"478 566 CURVE SMOOTH",
"478 573 OFFCURVE",
"481 589 OFFCURVE",
"481 596 CURVE SMOOTH",
"480 611 OFFCURVE",
"454 621 OFFCURVE",
"403 625 CURVE SMOOTH",
"370 628 OFFCURVE",
"338 628 OFFCURVE",
"307 626 CURVE SMOOTH",
"266 623 OFFCURVE",
"228 613 OFFCURVE",
"192 597 CURVE SMOOTH",
"145 576 OFFCURVE",
"123 549 OFFCURVE",
"126 516 CURVE SMOOTH",
"127 506 LINE",
"131 509 OFFCURVE",
"133 511 OFFCURVE",
"134 514 CURVE",
"156 548 OFFCURVE",
"194 572 OFFCURVE",
"249 585 CURVE",
"248 577 OFFCURVE",
"247 569 OFFCURVE",
"247 562 CURVE SMOOTH",
"247 509 OFFCURVE",
"284 483 OFFCURVE",
"358 483 CURVE SMOOTH",
"369 483 OFFCURVE",
"389 484 OFFCURVE",
"418 486 CURVE SMOOTH",
"432 487 OFFCURVE",
"443 491 OFFCURVE",
"452 496 CURVE",
"456 470 LINE SMOOTH",
"458 449 OFFCURVE",
"445 439 OFFCURVE",
"417 435 CURVE SMOOTH",
"410 434 OFFCURVE",
"398 434 OFFCURVE",
"383 435 CURVE SMOOTH",
"368 436 OFFCURVE",
"356 436 OFFCURVE",
"348 436 CURVE SMOOTH",
"329 435 OFFCURVE",
"311 429 OFFCURVE",
"292 420 CURVE",
"271 418 OFFCURVE",
"242 427 OFFCURVE",
"206 448 CURVE SMOOTH",
"170 469 OFFCURVE",
"139 478 OFFCURVE",
"113 475 CURVE SMOOTH",
"106 474 OFFCURVE",
"98 473 OFFCURVE",
"91 472 CURVE",
"105 495 OFFCURVE",
"112 507 OFFCURVE",
"112 510 CURVE SMOOTH",
"111 515 OFFCURVE",
"108 517 OFFCURVE",
"103 516 CURVE SMOOTH",
"98 516 OFFCURVE",
"93 512 OFFCURVE",
"88 505 CURVE",
"81 498 OFFCURVE",
"37 415 OFFCURVE",
"32 403 CURVE SMOOTH",
"21 376 OFFCURVE",
"15 346 OFFCURVE",
"15 313 CURVE SMOOTH"
);
},
{
closed = 1;
nodes = (
"74 199 OFFCURVE",
"99 193 OFFCURVE",
"119 195 CURVE SMOOTH",
"142 197 OFFCURVE",
"152 198 OFFCURVE",
"151 198 CURVE SMOOTH",
"174 198 OFFCURVE",
"188 189 OFFCURVE",
"192 170 CURVE SMOOTH",
"199 135 OFFCURVE",
"206 110 OFFCURVE",
"215 96 CURVE SMOOTH",
"229 74 OFFCURVE",
"253 64 OFFCURVE",
"284 66 CURVE SMOOTH",
"297 67 OFFCURVE",
"314 73 OFFCURVE",
"334 86 CURVE SMOOTH",
"353 98 OFFCURVE",
"369 104 OFFCURVE",
"382 105 CURVE SMOOTH",
"397 106 OFFCURVE",
"428 96 OFFCURVE",
"443 97 CURVE SMOOTH",
"472 99 OFFCURVE",
"491 114 OFFCURVE",
"502 141 CURVE",
"507 34 LINE",
"475 15 OFFCURVE",
"424 4 OFFCURVE",
"355 -1 CURVE SMOOTH",
"284 -6 OFFCURVE",
"220 12 OFFCURVE",
"163 51 CURVE SMOOTH",
"106 90 OFFCURVE",
"66 143 OFFCURVE",
"45 210 CURVE"
);
},
{
closed = 1;
nodes = (
"53 390 OFFCURVE",
"63 406 OFFCURVE",
"76 407 CURVE SMOOTH",
"93 408 OFFCURVE",
"112 398 OFFCURVE",
"131 374 CURVE SMOOTH",
"149 352 OFFCURVE",
"159 332 OFFCURVE",
"160 314 CURVE SMOOTH",
"161 295 OFFCURVE",
"153 278 OFFCURVE",
"134 262 CURVE SMOOTH",
"114 246 OFFCURVE",
"96 236 OFFCURVE",
"77 235 CURVE SMOOTH",
"54 234 OFFCURVE",
"41 252 OFFCURVE",
"38 291 CURVE SMOOTH",
"37 308 OFFCURVE",
"40 330 OFFCURVE",
"46 357 CURVE SMOOTH"
);
}
);
width = 549;
}
);
note = C;
unicode = 0043;
},
{
glyphname = D;
layers = (
{
hints = (
{
horizontal = 1;
place = "{-11, 41}";
type = Stem;
},
{
horizontal = 1;
place = "{175, 31}";
type = Stem;
},
{
horizontal = 1;
place = "{222, 8}";
type = Stem;
},
{
horizontal = 1;
place = "{600, 31}";
type = Stem;
},
{
place = "{52, 28}";
type = Stem;
},
{
place = "{260, 34}";
type = Stem;
},
{
place = "{362, 113}";
type = Stem;
},
{
place = "{579, 27}";
type = Stem;
},
{
place = "{622, 26}";
type = Stem;
},
{
horizontal = 1;
place = "{-8, 21}";
target = up;
type = BottomGhost;
}
);
layerId = "F72AA8BB-7F63-4F07-AEAC-030E55A5CABB";
paths = (
{
closed = 1;
nodes = (
"621 352 OFFCURVE",
"622 338 OFFCURVE",
"622 324 CURVE SMOOTH",
"622 293 OFFCURVE",
"617 258 OFFCURVE",
"606 221 CURVE",
"603 227 OFFCURVE",
"600 230 OFFCURVE",
"595 230 CURVE SMOOTH",
"590 230 OFFCURVE",
"584 227 OFFCURVE",
"579 222 CURVE",
"580 197 OFFCURVE",
"580 179 OFFCURVE",
"581 167 CURVE",
"560 143 OFFCURVE",
"544 126 OFFCURVE",
"533 116 CURVE SMOOTH",
"530 113 OFFCURVE",
"529 112 OFFCURVE",
"529 111 CURVE SMOOTH",
"529 106 OFFCURVE",
"532 104 OFFCURVE",
"538 105 CURVE SMOOTH",
"546 105 LINE",
"531 87 OFFCURVE",
"510 72 OFFCURVE",
"482 59 CURVE",
"477 68 OFFCURVE",
"475 75 OFFCURVE",
"475 80 CURVE SMOOTH",
"475 89 OFFCURVE",
"481 99 OFFCURVE",
"493 111 CURVE SMOOTH",
"505 123 OFFCURVE",
"511 134 OFFCURVE",
"511 143 CURVE SMOOTH",
"511 168 OFFCURVE",
"490 188 OFFCURVE",
"465 188 CURVE SMOOTH",
"445 188 OFFCURVE",
"433 183 OFFCURVE",
"428 172 CURVE SMOOTH",
"423 161 OFFCURVE",
"419 149 OFFCURVE",
"415 138 CURVE",
"412 134 OFFCURVE",
"405 129 OFFCURVE",
"394 124 CURVE SMOOTH",
"383 119 OFFCURVE",
"375 111 OFFCURVE",
"370 104 CURVE SMOOTH",
"362 93 OFFCURVE",
"361 75 OFFCURVE",
"362 52 CURVE SMOOTH",
"363 30 LINE",
"358 30 OFFCURVE",
"329 31 OFFCURVE",
"275 33 CURVE",
"281 47 OFFCURVE",
"284 64 OFFCURVE",
"284 85 CURVE SMOOTH",
"284 119 OFFCURVE",
"272 143 OFFCURVE",
"249 158 CURVE",
"228 167 OFFCURVE",
"206 177 OFFCURVE",
"185 187 CURVE",
"162 201 OFFCURVE",
"151 225 OFFCURVE",
"151 260 CURVE SMOOTH",
"151 265 OFFCURVE",
"152 273 OFFCURVE",
"154 284 CURVE SMOOTH",
"156 295 OFFCURVE",
"156 303 OFFCURVE",
"156 308 CURVE SMOOTH",
"156 346 OFFCURVE",
"123 372 OFFCURVE",
"87 374 CURVE",
"87 395 OFFCURVE",
"86 427 OFFCURVE",
"84 470 CURVE SMOOTH",
"82 513 OFFCURVE",
"80 545 OFFCURVE",
"80 566 CURVE SMOOTH",
"80 589 OFFCURVE",
"103 600 OFFCURVE",
"150 600 CURVE SMOOTH",
"157 600 OFFCURVE",
"167 600 OFFCURVE",
"180 599 CURVE SMOOTH",
"192 598 OFFCURVE",
"200 598 OFFCURVE",
"203 598 CURVE SMOOTH",
"227 598 OFFCURVE",
"246 598 OFFCURVE",
"260 597 CURVE",
"221 554 OFFCURVE",
"202 509 OFFCURVE",
"202 460 CURVE SMOOTH",
"202 416 OFFCURVE",
"221 386 OFFCURVE",
"260 369 CURVE",
"253 270 OFFCURVE",
"261 221 OFFCURVE",
"282 221 CURVE SMOOTH",
"290 221 OFFCURVE",
"294 231 OFFCURVE",
"294 252 CURVE SMOOTH",
"294 399 LINE",
"295 406 OFFCURVE",
"300 409 OFFCURVE",
"309 409 CURVE SMOOTH",
"378 409 OFFCURVE",
"413 372 OFFCURVE",
"413 298 CURVE SMOOTH",
"413 241 OFFCURVE",
"355 206 OFFCURVE",
"303 206 CURVE",
"286 209 LINE SMOOTH",
"277 210 OFFCURVE",
"269 210 OFFCURVE",
"264 209 CURVE SMOOTH",
"257 208 OFFCURVE",
"253 206 OFFCURVE",
"253 202 CURVE SMOOTH",
"253 184 OFFCURVE",
"269 175 OFFCURVE",
"300 175 CURVE SMOOTH",
"364 175 OFFCURVE",
"400 189 OFFCURVE",
"430 248 CURVE",
"457 246 OFFCURVE",
"483 252 OFFCURVE",
"506 266 CURVE SMOOTH",
"520 274 OFFCURVE",
"538 291 OFFCURVE",
"562 315 CURVE SMOOTH",
"586 339 OFFCURVE",
"604 356 OFFCURVE",
"619 365 CURVE"
);
},
{
closed = 1;
nodes = (
"648 514 OFFCURVE",
"534 601 OFFCURVE",
"343 623 CURVE SMOOTH",
"298 628 OFFCURVE",
"214 631 OFFCURVE",
"89 631 CURVE SMOOTH",
"64 631 OFFCURVE",
"52 621 OFFCURVE",
"52 600 CURVE SMOOTH",
"52 444 OFFCURVE",
"49 289 OFFCURVE",
"35 134 CURVE SMOOTH",
"32 97 OFFCURVE",
"30 66 OFFCURVE",
"30 41 CURVE SMOOTH",
"30 8 OFFCURVE",
"38 -8 OFFCURVE",
"55 -8 CURVE SMOOTH",
"58 -8 OFFCURVE",
"62 -7 OFFCURVE",
"67 -4 CURVE",
"74 -9 OFFCURVE",
"108 -11 OFFCURVE",
"171 -11 CURVE SMOOTH",
"294 -11 OFFCURVE",
"381 -6 OFFCURVE",
"430 5 CURVE SMOOTH",
"536 29 OFFCURVE",
"595 81 OFFCURVE",
"607 162 CURVE",
"634 201 OFFCURVE",
"648 251 OFFCURVE",
"648 310 CURVE SMOOTH"
);
}
);
width = 666;
}
);
note = D;
unicode = 0044;
},
{
color = 11;
glyphname = Dcroat;
lastChange = "2021-09-29 05:24:54 +0000";
layers = (
{
components = (
{
name = D;
}
);
layerId = "F72AA8BB-7F63-4F07-AEAC-030E55A5CABB";
paths = (
{
closed = 1;
nodes = (
"297 237 OFFCURVE",
"309 237 OFFCURVE",
"319 235 CURVE SMOOTH",
"323 235 OFFCURVE",
"333 233 OFFCURVE",
"350 231 CURVE SMOOTH",
"366 229 OFFCURVE",
"373 234 OFFCURVE",
"374 244 CURVE SMOOTH",
"374 250 OFFCURVE",
"371 268 OFFCURVE",
"371 270 CURVE SMOOTH",
"371 311 LINE",
"373 323 OFFCURVE",
"364 329 OFFCURVE",
"345 329 CURVE SMOOTH",
"318 329 OFFCURVE",
"297 326 OFFCURVE",
"281 323 CURVE",
"281 265 LINE",
"299 267 OFFCURVE",
"318 271 OFFCURVE",
"338 276 CURVE",
"337 269 OFFCURVE",
"336 265 OFFCURVE",
"337 263 CURVE",
"337 260 OFFCURVE",
"343 252 OFFCURVE",
"343 250 CURVE SMOOTH",
"343 248 OFFCURVE",
"340 247 OFFCURVE",
"334 247 CURVE SMOOTH",
"318 247 OFFCURVE",
"301 247 OFFCURVE",
"284 248 CURVE",
"284 237 LINE"
);
},
{
closed = 1;
nodes = (
"93 324 OFFCURVE",
"72 323 OFFCURVE",
"66 323 CURVE",
"62 324 OFFCURVE",
"41 325 OFFCURVE",
"4 327 CURVE SMOOTH",
"-23 328 OFFCURVE",
"-39 328 OFFCURVE",
"-44 327 CURVE SMOOTH",
"-56 323 OFFCURVE",
"-62 319 OFFCURVE",
"-62 311 CURVE SMOOTH",
"-62 306 OFFCURVE",
"-58 268 OFFCURVE",
"-58 265 CURVE SMOOTH",
"-58 264 OFFCURVE",
"-62 247 OFFCURVE",
"-61 241 CURVE SMOOTH",
"-60 236 OFFCURVE",
"-58 234 OFFCURVE",
"-54 233 CURVE SMOOTH",
"-45 232 OFFCURVE",
"-33 232 OFFCURVE",
"-17 233 CURVE SMOOTH",
"-10 234 OFFCURVE",
"-4 238 OFFCURVE",
"0 247 CURVE SMOOTH",
"4 255 OFFCURVE",
"7 259 OFFCURVE",
"11 259 CURVE SMOOTH",
"44 259 OFFCURVE",
"60 255 OFFCURVE",
"60 246 CURVE SMOOTH",
"60 241 OFFCURVE",
"52 231 OFFCURVE",
"52 230 CURVE SMOOTH",
"52 229 OFFCURVE",
"53 229 OFFCURVE",
"54 229 CURVE SMOOTH",
"63 228 OFFCURVE",
"73 227 OFFCURVE",
"84 227 CURVE SMOOTH",
"90 227 OFFCURVE",
"96 227 OFFCURVE",
"102 227 CURVE",
"114 325 LINE"
);
}
);
width = 666;
}
);
unicode = 0110;
},
{
glyphname = E;
layers = (
{
hints = (
{
horizontal = 1;
place = "{-20, 42}";
type = Stem;
},
{
horizontal = 1;
place = "{223, 35}";
type = Stem;
},
{
horizontal = 1;
place = "{385, 26}";
type = Stem;
},
{
horizontal = 1;
place = "{446, 43}";
type = Stem;
},
{
horizontal = 1;
place = "{593, 31}";
type = Stem;
},
{
place = "{73, 32}";
type = Stem;
},
{
place = "{263, 35}";
type = Stem;
},
{
place = "{445, 31}";
type = Stem;
},
{
place = "{58, 34}";
type = Stem;
},
{
place = "{262, 35}";
type = Stem;
},
{
place = "{444, 31}";
type = Stem;
},
{
place = "{72, 32}";
type = Stem;
},
{
place = "{440, 46}";
type = Stem;
},
{
horizontal = 1;
place = "{239, 69}";
type = Stem;
},
{
horizontal = 1;
place = "{-5, 21}";
target = up;
type = BottomGhost;
},
{
place = "{449, 21}";
type = Stem;
}
);
layerId = "F72AA8BB-7F63-4F07-AEAC-030E55A5CABB";
paths = (
{
closed = 1;
nodes = (
"35 553 OFFCURVE",
"54 460 OFFCURVE",
"55 433 CURVE SMOOTH",
"56 409 OFFCURVE",
"58 373 OFFCURVE",
"59 324 CURVE SMOOTH",
"60 275 OFFCURVE",
"61 239 OFFCURVE",
"62 215 CURVE SMOOTH",
"63 190 OFFCURVE",
"74 111 OFFCURVE",
"76 87 CURVE SMOOTH",
"76 79 OFFCURVE",
"73 61 OFFCURVE",
"73 56 CURVE SMOOTH",
"73 43 OFFCURVE",
"81 36 OFFCURVE",
"97 38 CURVE SMOOTH",
"104 39 OFFCURVE",
"106 49 OFFCURVE",
"105 68 CURVE SMOOTH",
"105 158 OFFCURVE",
"100 247 OFFCURVE",
"93 337 CURVE",
"113 335 OFFCURVE",
"133 342 OFFCURVE",
"152 358 CURVE SMOOTH",
"170 374 OFFCURVE",
"179 392 OFFCURVE",
"178 411 CURVE SMOOTH",
"178 422 OFFCURVE",
"167 447 OFFCURVE",
"166 458 CURVE SMOOTH",
"165 475 OFFCURVE",
"177 497 OFFCURVE",
"201 523 CURVE SMOOTH",
"228 552 OFFCURVE",
"244 575 OFFCURVE",
"248 592 CURVE",
"281 593 OFFCURVE",
"314 594 OFFCURVE",
"347 595 CURVE SMOOTH",
"387 596 OFFCURVE",
"420 600 OFFCURVE",
"445 606 CURVE",
"440 579 OFFCURVE",
"438 560 OFFCURVE",
"439 547 CURVE SMOOTH",
"443 525 OFFCURVE",
"447 509 OFFCURVE",
"450 499 CURVE",
"451 489 LINE",
"443 488 OFFCURVE",
"436 487 OFFCURVE",
"429 485 CURVE",
"431 492 OFFCURVE",
"432 500 OFFCURVE",
"432 507 CURVE SMOOTH",
"432 544 OFFCURVE",
"414 562 OFFCURVE",
"377 560 CURVE SMOOTH",
"328 557 OFFCURVE",
"296 516 OFFCURVE",
"297 467 CURVE",
"285 468 OFFCURVE",
"277 466 OFFCURVE",
"272 463 CURVE SMOOTH",
"265 459 OFFCURVE",
"262 451 OFFCURVE",
"263 440 CURVE",
"268 422 OFFCURVE",
"273 408 OFFCURVE",
"278 399 CURVE",
"271 390 LINE",
"271 384 OFFCURVE",
"296 382 OFFCURVE",
"345 385 CURVE",
"354 360 OFFCURVE",
"359 329 OFFCURVE",
"398 331 CURVE SMOOTH",
"421 332 OFFCURVE",
"435 344 OFFCURVE",
"441 367 CURVE",
"441 326 OFFCURVE",
"444 293 OFFCURVE",
"450 266 CURVE",
"438 265 OFFCURVE",
"405 258 OFFCURVE",
"392 258 CURVE SMOOTH",
"386 258 LINE",
"363 279 OFFCURVE",
"350 291 OFFCURVE",
"346 294 CURVE SMOOTH",
"330 306 OFFCURVE",
"313 310 OFFCURVE",
"294 309 CURVE SMOOTH",
"238 306 OFFCURVE",
"220 281 OFFCURVE",
"206 232 CURVE SMOOTH",
"201 212 OFFCURVE",
"196 200 OFFCURVE",
"189 197 CURVE SMOOTH",
"155 182 OFFCURVE",
"140 150 OFFCURVE",
"142 107 CURVE SMOOTH",
"144 69 OFFCURVE",
"158 41 OFFCURVE",
"183 22 CURVE",
"139 23 OFFCURVE",
"106 25 OFFCURVE",
"83 26 CURVE",
"70 25 OFFCURVE",
"63 18 OFFCURVE",
"64 3 CURVE SMOOTH",
"65 -13 OFFCURVE",
"75 -21 OFFCURVE",
"96 -20 CURVE SMOOTH",
"129 -18 OFFCURVE",
"178 -14 OFFCURVE",
"244 -7 CURVE SMOOTH",
"310 0 OFFCURVE",
"359 4 OFFCURVE",
"392 5 CURVE SMOOTH",
"416 6 OFFCURVE",
"491 -5 OFFCURVE",
"505 -5 CURVE SMOOTH",
"523 -4 OFFCURVE",
"532 23 OFFCURVE",
"528 76 CURVE SMOOTH",
"527 89 OFFCURVE",
"524 107 OFFCURVE",
"518 131 CURVE SMOOTH",
"506 180 OFFCURVE",
"506 204 OFFCURVE",
"506 205 CURVE",
"504 210 OFFCURVE",
"499 212 OFFCURVE",
"490 212 CURVE",
"441 206 OFFCURVE",
"404 200 OFFCURVE",
"379 195 CURVE",
"313 192 LINE",
"311 211 OFFCURVE",
"307 226 OFFCURVE",
"300 239 CURVE",
"311 240 LINE",
"321 224 OFFCURVE",
"367 219 OFFCURVE",
"450 223 CURVE SMOOTH",
"470 224 OFFCURVE",
"479 233 OFFCURVE",
"478 250 CURVE SMOOTH",
"478 257 OFFCURVE",
"476 262 OFFCURVE",
"471 265 CURVE",
"472 270 OFFCURVE",
"475 293 OFFCURVE",
"480 333 CURVE SMOOTH",
"485 373 OFFCURVE",
"487 395 OFFCURVE",
"487 398 CURVE SMOOTH",
"487 412 OFFCURVE",
"473 418 OFFCURVE",
"447 417 CURVE SMOOTH",
"431 416 OFFCURVE",
"406 414 OFFCURVE",
"373 411 CURVE SMOOTH",
"340 408 OFFCURVE",
"315 405 OFFCURVE",
"298 404 CURVE",
"298 435 LINE SMOOTH",
"298 440 OFFCURVE",
"327 440 OFFCURVE",
"384 446 CURVE SMOOTH",
"393 447 OFFCURVE",
"408 447 OFFCURVE",
"427 446 CURVE SMOOTH",
"446 445 OFFCURVE",
"461 444 OFFCURVE",
"470 445 CURVE SMOOTH",
"482 446 OFFCURVE",
"489 452 OFFCURVE",
"487 464 CURVE SMOOTH",
"486 469 OFFCURVE",
"484 473 OFFCURVE",
"481 477 CURVE",
"476 566 LINE SMOOTH",
"476 583 OFFCURVE",
"476 599 OFFCURVE",
"477 615 CURVE",
"475 635 OFFCURVE",
"467 645 OFFCURVE",
"453 644 CURVE SMOOTH",
"428 642 OFFCURVE",
"339 629 OFFCURVE",
"314 628 CURVE SMOOTH",
"295 627 OFFCURVE",
"266 626 OFFCURVE",
"228 625 CURVE SMOOTH",
"189 624 OFFCURVE",
"161 622 OFFCURVE",
"142 621 CURVE SMOOTH",
"126 621 OFFCURVE",
"88 628 OFFCURVE",
"72 627 CURVE SMOOTH",
"48 626 OFFCURVE",
"33 604 OFFCURVE",
"34 579 CURVE SMOOTH"
);
}
);
width = 527;
}
);
note = E;
unicode = 0045;
},
{
glyphname = F;
layers = (
{
hints = (
{
horizontal = 1;
place = "{-24, 50}";
type = Stem;
},
{
horizontal = 1;
place = "{193, 64}";
type = Stem;
},
{
horizontal = 1;
place = "{349, 32}";
type = Stem;
},
{
place = "{41, 130}";
type = Stem;
},
{
place = "{254, 33}";
type = Stem;
},
{
place = "{443, 29}";
type = Stem;
},
{
place = "{418, 34}";
type = Stem;
},
{
place = "{255, 41}";
type = Stem;
},
{
horizontal = 1;
place = "{576, 63}";
type = Stem;
},
{
place = "{27, 41}";
type = Stem;
},
{
horizontal = 1;
place = "{461, 157}";
type = Stem;
},
{
horizontal = 1;
place = "{511, 122}";
type = Stem;
}
);
layerId = "F72AA8BB-7F63-4F07-AEAC-030E55A5CABB";
paths = (
{
closed = 1;
nodes = (
"75 -24 OFFCURVE",
"148 -18 OFFCURVE",
"170 -18 CURVE SMOOTH",
"190 -18 OFFCURVE",
"243 -25 OFFCURVE",
"264 -25 CURVE SMOOTH",
"285 -25 OFFCURVE",
"296 -12 OFFCURVE",
"296 13 CURVE SMOOTH",
"296 4 OFFCURVE",
"293 64 OFFCURVE",
"288 193 CURVE",
"385 198 OFFCURVE",
"435 205 OFFCURVE",
"443 211 CURVE SMOOTH",
"449 216 OFFCURVE",
"452 224 OFFCURVE",
"452 233 CURVE SMOOTH",
"452 279 OFFCURVE",
"452 303 OFFCURVE",
"451 304 CURVE",
"450 335 OFFCURVE",
"444 357 OFFCURVE",
"435 370 CURVE",
"435 372 LINE",
"431 372 LINE",
"422 378 OFFCURVE",
"391 381 OFFCURVE",
"339 381 CURVE SMOOTH",
"310 381 OFFCURVE",
"298 380 OFFCURVE",
"305 379 CURVE",
"293 380 OFFCURVE",
"287 387 OFFCURVE",
"287 400 CURVE SMOOTH",
"287 408 OFFCURVE",
"292 414 OFFCURVE",
"303 421 CURVE SMOOTH",
"319 431 OFFCURVE",
"328 436 OFFCURVE",
"329 437 CURVE",
"329 446 OFFCURVE",
"287 454 OFFCURVE",
"278 454 CURVE SMOOTH",
"262 454 OFFCURVE",
"254 437 OFFCURVE",
"254 404 CURVE SMOOTH",
"254 385 OFFCURVE",
"255 372 OFFCURVE",
"258 365 CURVE SMOOTH",
"263 354 OFFCURVE",
"273 349 OFFCURVE",
"290 349 CURVE SMOOTH",
"349 352 LINE",
"335 345 OFFCURVE",
"328 334 OFFCURVE",
"328 320 CURVE SMOOTH",
"328 299 OFFCURVE",
"357 279 OFFCURVE",
"416 260 CURVE",
"416 256 OFFCURVE",
"418 246 OFFCURVE",
"418 243 CURVE SMOOTH",
"418 238 OFFCURVE",
"414 236 OFFCURVE",
"405 236 CURVE SMOOTH",
"379 236 OFFCURVE",
"300 257 OFFCURVE",
"277 257 CURVE SMOOTH",
"256 257 OFFCURVE",
"246 248 OFFCURVE",
"246 231 CURVE SMOOTH",
"246 221 OFFCURVE",
"251 211 OFFCURVE",
"260 202 CURVE",
"257 157 OFFCURVE",
"255 131 OFFCURVE",
"255 125 CURVE SMOOTH",
"255 68 OFFCURVE",
"256 49 OFFCURVE",
"257 67 CURVE SMOOTH",
"255 39 OFFCURVE",
"248 26 OFFCURVE",
"235 26 CURVE SMOOTH",
"174 27 LINE",
"190 44 OFFCURVE",
"198 63 OFFCURVE",
"198 86 CURVE SMOOTH",
"198 106 OFFCURVE",
"171 156 OFFCURVE",
"171 172 CURVE SMOOTH",
"171 198 OFFCURVE",
"186 223 OFFCURVE",
"216 246 CURVE SMOOTH",
"245 269 OFFCURVE",
"260 290 OFFCURVE",
"260 311 CURVE SMOOTH",
"260 367 OFFCURVE",
"197 401 OFFCURVE",
"147 401 CURVE SMOOTH",
"113 401 OFFCURVE",
"88 388 OFFCURVE",
"72 362 CURVE",
"71 369 OFFCURVE",
"69 376 OFFCURVE",
"65 383 CURVE",
"63 383 LINE SMOOTH",
"56 383 OFFCURVE",
"52 368 OFFCURVE",
"50 337 CURVE SMOOTH",
"42 217 OFFCURVE",
"41 102 OFFCURVE",
"41 -7 CURVE SMOOTH",
"41 -18 OFFCURVE",
"45 -24 OFFCURVE",
"53 -24 CURVE SMOOTH"
);
},
{
closed = 1;
nodes = (
"27 588 OFFCURVE",
"50 512 OFFCURVE",
"63 501 CURVE",
"66 504 OFFCURVE",
"68 508 OFFCURVE",
"68 511 CURVE SMOOTH",
"69 526 OFFCURVE",
"71 541 OFFCURVE",
"72 556 CURVE SMOOTH",
"74 567 OFFCURVE",
"84 574 OFFCURVE",
"103 576 CURVE",
"100 559 OFFCURVE",
"98 549 OFFCURVE",
"98 544 CURVE SMOOTH",
"98 499 OFFCURVE",
"162 461 OFFCURVE",
"203 461 CURVE SMOOTH",
"230 461 OFFCURVE",
"255 471 OFFCURVE",
"278 490 CURVE SMOOTH",
"301 509 OFFCURVE",
"320 518 OFFCURVE",
"335 518 CURVE SMOOTH",
"346 518 OFFCURVE",
"373 511 OFFCURVE",
"385 511 CURVE SMOOTH",
"402 511 OFFCURVE",
"421 516 OFFCURVE",
"441 525 CURVE",
"441 508 OFFCURVE",
"443 481 OFFCURVE",
"443 476 CURVE SMOOTH",
"443 455 OFFCURVE",
"438 454 OFFCURVE",
"393 443 CURVE",
"385 435 LINE",
"385 419 OFFCURVE",
"420 413 OFFCURVE",
"432 413 CURVE SMOOTH",
"448 413 OFFCURVE",
"458 414 OFFCURVE",
"462 416 CURVE SMOOTH",
"469 419 OFFCURVE",
"472 428 OFFCURVE",
"472 441 CURVE SMOOTH",
"472 464 OFFCURVE",
"470 542 OFFCURVE",
"470 565 CURVE SMOOTH",
"470 576 OFFCURVE",
"478 602 OFFCURVE",
"478 613 CURVE SMOOTH",
"478 626 OFFCURVE",
"466 633 OFFCURVE",
"441 633 CURVE SMOOTH",
"418 633 OFFCURVE",
"384 631 OFFCURVE",
"337 626 CURVE SMOOTH",
"290 621 OFFCURVE",
"254 618 OFFCURVE",
"230 618 CURVE SMOOTH",
"212 618 OFFCURVE",
"185 622 OFFCURVE",
"149 629 CURVE SMOOTH",
"113 636 OFFCURVE",
"86 639 OFFCURVE",
"69 639 CURVE SMOOTH",
"41 639 OFFCURVE",
"27 628 OFFCURVE",
"27 606 CURVE SMOOTH"
);
}
);
width = 484;
}
);
note = F;
unicode = 0046;
},
{
glyphname = G;
layers = (
{
hints = (
{
horizontal = 1;
place = "{0, 122}";
type = Stem;
},
{
horizontal = 1;
place = "{173, 24}";
type = Stem;
},
{
horizontal = 1;
place = "{226, 20}";
type = Stem;
},
{
horizontal = 1;
place = "{306, 73}";
type = Stem;
},
{
horizontal = 1;
place = "{441, 27}";
type = Stem;
},
{
horizontal = 1;
place = "{616, 29}";
type = Stem;
},
{
place = "{8, 21}";
type = Stem;
},
{
place = "{225, 19}";
type = Stem;
},
{
place = "{327, 20}";
type = Stem;
},
{
place = "{478, 172}";
type = Stem;
}
);
layerId = "F72AA8BB-7F63-4F07-AEAC-030E55A5CABB";
paths = (
{
closed = 1;
nodes = (
"8 261 OFFCURVE",
"13 225 OFFCURVE",
"23 220 CURVE",
"30 220 OFFCURVE",
"34 228 OFFCURVE",
"34 244 CURVE SMOOTH",
"34 260 OFFCURVE",
"29 301 OFFCURVE",
"29 317 CURVE SMOOTH",
"29 405 OFFCURVE",
"70 507 OFFCURVE",
"145 558 CURVE",
"156 535 OFFCURVE",
"162 519 OFFCURVE",
"162 511 CURVE SMOOTH",
"162 486 OFFCURVE",
"149 462 OFFCURVE",
"122 439 CURVE SMOOTH",
"94 416 OFFCURVE",
"81 394 OFFCURVE",
"81 374 CURVE SMOOTH",
"81 316 OFFCURVE",
"142 287 OFFCURVE",
"193 287 CURVE SMOOTH",
"204 287 OFFCURVE",
"215 289 OFFCURVE",
"225 292 CURVE",
"234 221 OFFCURVE",
"278 173 OFFCURVE",
"347 173 CURVE SMOOTH",
"387 173 OFFCURVE",
"448 199 OFFCURVE",
"448 246 CURVE SMOOTH",
"448 249 OFFCURVE",
"448 252 OFFCURVE",
"447 253 CURVE",
"444 253 OFFCURVE",
"434 244 OFFCURVE",
"415 225 CURVE SMOOTH",
"395 205 OFFCURVE",
"375 197 OFFCURVE",
"352 197 CURVE SMOOTH",
"284 197 OFFCURVE",
"244 243 OFFCURVE",
"244 312 CURVE SMOOTH",
"244 371 OFFCURVE",
"288 441 OFFCURVE",
"353 441 CURVE SMOOTH",
"370 441 OFFCURVE",
"385 435 OFFCURVE",
"397 423 CURVE SMOOTH",
"410 410 OFFCURVE",
"419 404 OFFCURVE",
"428 404 CURVE SMOOTH",
"443 404 OFFCURVE",
"473 412 OFFCURVE",
"516 428 CURVE SMOOTH",
"559 444 OFFCURVE",
"590 451 OFFCURVE",
"609 451 CURVE SMOOTH",
"624 451 OFFCURVE",
"634 452 OFFCURVE",
"637 453 CURVE SMOOTH",
"646 456 OFFCURVE",
"650 463 OFFCURVE",
"650 476 CURVE SMOOTH",
"650 580 OFFCURVE",
"438 645 OFFCURVE",
"353 645 CURVE SMOOTH",
"163 645 OFFCURVE",
"8 529 OFFCURVE",
"8 329 CURVE SMOOTH"
);
},
{
closed = 1;
nodes = (
"55 155 OFFCURVE",
"57 150 OFFCURVE",
"59 145 CURVE SMOOTH",
"91 64 OFFCURVE",
"259 0 OFFCURVE",
"342 0 CURVE SMOOTH",
"551 0 OFFCURVE",
"697 136 OFFCURVE",
"697 347 CURVE SMOOTH",
"697 374 OFFCURVE",
"684 387 OFFCURVE",
"657 387 CURVE SMOOTH",
"632 387 OFFCURVE",
"593 386 OFFCURVE",
"542 382 CURVE SMOOTH",
"490 378 OFFCURVE",
"451 376 OFFCURVE",
"426 376 CURVE SMOOTH",
"418 376 OFFCURVE",
"389 379 OFFCURVE",
"374 379 CURVE SMOOTH",
"337 379 OFFCURVE",
"319 367 OFFCURVE",
"319 342 CURVE SMOOTH",
"319 336 OFFCURVE",
"321 329 OFFCURVE",
"326 322 CURVE",
"325 316 OFFCURVE",
"325 308 OFFCURVE",
"326 297 CURVE SMOOTH",
"327 284 OFFCURVE",
"327 276 OFFCURVE",
"327 271 CURVE SMOOTH",
"327 263 OFFCURVE",
"322 246 OFFCURVE",
"322 239 CURVE SMOOTH",
"322 230 OFFCURVE",
"331 226 OFFCURVE",
"349 226 CURVE SMOOTH",
"360 226 OFFCURVE",
"416 233 OFFCURVE",
"416 244 CURVE SMOOTH",
"416 245 OFFCURVE",
"414 246 OFFCURVE",
"411 246 CURVE SMOOTH",
"380 246 OFFCURVE",
"362 253 OFFCURVE",
"357 253 CURVE",
"350 258 OFFCURVE",
"347 267 OFFCURVE",
"347 281 CURVE SMOOTH",
"347 308 LINE",
"358 303 OFFCURVE",
"381 303 OFFCURVE",
"416 306 CURVE",
"424 297 LINE SMOOTH",
"437 283 OFFCURVE",
"455 273 OFFCURVE",
"478 267 CURVE SMOOTH",
"501 261 OFFCURVE",
"517 254 OFFCURVE",
"525 246 CURVE SMOOTH",
"530 241 OFFCURVE",
"539 226 OFFCURVE",
"551 203 CURVE SMOOTH",
"561 184 OFFCURVE",
"577 168 OFFCURVE",
"599 155 CURVE",
"576 126 OFFCURVE",
"553 102 OFFCURVE",
"528 85 CURVE",
"501 110 OFFCURVE",
"464 122 OFFCURVE",
"416 122 CURVE SMOOTH",
"400 122 OFFCURVE",
"363 115 OFFCURVE",
"348 115 CURVE SMOOTH",
"323 115 OFFCURVE",
"295 131 OFFCURVE",
"266 162 CURVE SMOOTH",
"237 194 OFFCURVE",
"206 209 OFFCURVE",
"176 209 CURVE SMOOTH",
"133 209 OFFCURVE",
"99 179 OFFCURVE",
"94 136 CURVE",
"77 155 OFFCURVE",
"66 165 OFFCURVE",
"60 165 CURVE SMOOTH",
"57 165 OFFCURVE",
"55 163 OFFCURVE",
"55 158 CURVE SMOOTH"
);
},
{
closed = 1;
nodes = (
"360 488 OFFCURVE",
"372 523 OFFCURVE",
"372 569 CURVE SMOOTH",
"372 586 OFFCURVE",
"370 601 OFFCURVE",
"366 616 CURVE",
"407 615 OFFCURVE",
"448 605 OFFCURVE",
"489 585 CURVE",
"482 564 OFFCURVE",
"478 545 OFFCURVE",
"478 528 CURVE SMOOTH",
"478 498 OFFCURVE",
"476 480 OFFCURVE",
"469 473 CURVE SMOOTH",
"467 471 OFFCURVE",
"450 462 OFFCURVE",
"419 446 CURVE",
"402 461 OFFCURVE",
"387 468 OFFCURVE",
"372 468 CURVE SMOOTH",
"362 468 OFFCURVE",
"350 467 OFFCURVE",
"337 464 CURVE"
);
}
);
width = 711;
}
);
note = G;
unicode = 0047;
},
{
glyphname = H;
layers = (
{
hints = (
{
horizontal = 1;
place = "{-1, 40}";
type = Stem;
},
{
horizontal = 1;
place = "{209, 41}";
type = Stem;
},
{
horizontal = 1;
place = "{282, 144}";
type = Stem;
},
{
horizontal = 1;
place = "{583, 38}";
type = Stem;
},
{
place = "{52, 18}";
type = Stem;
},
{
place = "{247, 31}";
type = Stem;
},
{
place = "{390, 25}";
type = Stem;
},
{
place = "{451, 118}";
type = Stem;
},
{
place = "{612, 20}";
type = Stem;
},
{
place = "{51, 18}";
type = Stem;
},
{
place = "{246, 31}";
type = Stem;
},
{
place = "{389, 25}";
type = Stem;
},
{
place = "{450, 118}";
type = Stem;
},
{
place = "{598, 28}";
type = Stem;
},
{
horizontal = 1;
place = "{602, 39}";
type = Stem;
},
{
place = "{127, 170}";
type = Stem;
},
{
place = "{399, 49}";
type = Stem;
},
{
place = "{611, 20}";
type = Stem;
},
{
place = "{50, 22}";
type = Stem;
}
);
layerId = "F72AA8BB-7F63-4F07-AEAC-030E55A5CABB";
paths = (
{
closed = 1;
nodes = (
"108 4 OFFCURVE",
"145 2 OFFCURVE",
"206 -1 CURVE SMOOTH",
"257 -4 OFFCURVE",
"284 7 OFFCURVE",
"285 31 CURVE SMOOTH",
"285 47 OFFCURVE",
"278 82 OFFCURVE",
"278 94 CURVE SMOOTH",
"278 109 OFFCURVE",
"278 128 OFFCURVE",
"279 152 CURVE SMOOTH",
"281 180 OFFCURVE",
"282 199 OFFCURVE",
"282 209 CURVE",
"312 212 OFFCURVE",
"332 214 OFFCURVE",
"342 213 CURVE SMOOTH",
"355 212 OFFCURVE",
"371 211 OFFCURVE",
"390 209 CURVE",
"387 160 OFFCURVE",
"384 124 OFFCURVE",
"383 99 CURVE SMOOTH",
"382 79 OFFCURVE",
"368 28 OFFCURVE",
"368 9 CURVE SMOOTH",
"367 0 OFFCURVE",
"385 -6 OFFCURVE",
"422 -8 CURVE SMOOTH",
"538 -14 OFFCURVE",
"598 -16 OFFCURVE",
"603 -13 CURVE SMOOTH",
"611 -8 OFFCURVE",
"617 29 OFFCURVE",
"620 96 CURVE SMOOTH",
"622 135 OFFCURVE",
"625 195 OFFCURVE",
"627 274 CURVE SMOOTH",
"629 353 OFFCURVE",
"631 412 OFFCURVE",
"633 451 CURVE SMOOTH",
"634 477 OFFCURVE",
"644 568 OFFCURVE",
"646 593 CURVE SMOOTH",
"647 611 OFFCURVE",
"640 620 OFFCURVE",
"624 621 CURVE SMOOTH",
"602 622 OFFCURVE",
"525 620 OFFCURVE",
"503 621 CURVE SMOOTH",
"494 622 OFFCURVE",
"455 629 OFFCURVE",
"439 629 CURVE SMOOTH",
"415 629 OFFCURVE",
"403 620 OFFCURVE",
"402 601 CURVE SMOOTH",
"401 582 OFFCURVE",
"400 555 OFFCURVE",
"400 519 CURVE SMOOTH",
"400 483 OFFCURVE",
"400 456 OFFCURVE",
"399 438 CURVE SMOOTH",
"398 426 OFFCURVE",
"391 421 OFFCURVE",
"376 422 CURVE SMOOTH",
"370 422 OFFCURVE",
"357 422 OFFCURVE",
"337 426 CURVE SMOOTH",
"321 429 OFFCURVE",
"308 430 OFFCURVE",
"298 429 CURVE",
"300 486 OFFCURVE",
"301 528 OFFCURVE",
"302 557 CURVE SMOOTH",
"302 569 OFFCURVE",
"313 600 OFFCURVE",
"313 613 CURVE SMOOTH",
"314 626 OFFCURVE",
"297 634 OFFCURVE",
"263 638 CURVE SMOOTH",
"240 639 OFFCURVE",
"218 640 OFFCURVE",
"195 641 CURVE SMOOTH",
"174 642 OFFCURVE",
"104 651 OFFCURVE",
"84 652 CURVE SMOOTH",
"68 653 OFFCURVE",
"61 642 OFFCURVE",
"59 621 CURVE SMOOTH",
"58 610 OFFCURVE",
"68 603 OFFCURVE",
"88 602 CURVE SMOOTH",
"124 602 LINE",
"151 574 OFFCURVE",
"165 552 OFFCURVE",
"164 537 CURVE SMOOTH",
"163 524 OFFCURVE",
"157 504 OFFCURVE",
"146 478 CURVE SMOOTH",
"135 451 OFFCURVE",
"129 430 OFFCURVE",
"128 415 CURVE SMOOTH",
"124 349 OFFCURVE",
"180 285 OFFCURVE",
"246 282 CURVE SMOOTH",
"267 281 OFFCURVE",
"294 286 OFFCURVE",
"326 297 CURVE SMOOTH",
"357 308 OFFCURVE",
"375 314 OFFCURVE",
"378 314 CURVE SMOOTH",
"389 313 OFFCURVE",
"406 307 OFFCURVE",
"428 295 CURVE SMOOTH",
"449 283 OFFCURVE",
"469 276 OFFCURVE",
"487 275 CURVE SMOOTH",
"530 273 OFFCURVE",
"569 285 OFFCURVE",
"602 312 CURVE",
"600 257 OFFCURVE",
"599 227 OFFCURVE",
"599 221 CURVE SMOOTH",
"598 203 OFFCURVE",
"595 176 OFFCURVE",
"591 141 CURVE SMOOTH",
"587 105 OFFCURVE",
"584 78 OFFCURVE",
"583 60 CURVE",
"584 49 OFFCURVE",
"585 41 OFFCURVE",
"586 36 CURVE",
"585 27 OFFCURVE",
"557 25 OFFCURVE",
"502 27 CURVE SMOOTH",
"433 30 LINE SMOOTH",
"423 30 OFFCURVE",
"417 57 OFFCURVE",
"416 109 CURVE SMOOTH",
"415 141 OFFCURVE",
"415 173 OFFCURVE",
"415 206 CURVE",
"424 208 OFFCURVE",
"430 213 OFFCURVE",
"430 221 CURVE SMOOTH",
"430 235 OFFCURVE",
"409 245 OFFCURVE",
"366 250 CURVE SMOOTH",
"362 250 OFFCURVE",
"334 251 OFFCURVE",
"282 254 CURVE SMOOTH",
"265 255 OFFCURVE",
"257 249 OFFCURVE",
"255 235 CURVE SMOOTH",
"254 228 OFFCURVE",
"255 222 OFFCURVE",
"258 217 CURVE",
"253 205 OFFCURVE",
"250 172 OFFCURVE",
"247 117 CURVE SMOOTH",
"247 66 LINE",
"245 45 OFFCURVE",
"235 36 OFFCURVE",
"218 37 CURVE SMOOTH",
"156 42 LINE",
"168 52 OFFCURVE",
"180 62 OFFCURVE",
"193 73 CURVE",
"203 84 OFFCURVE",
"208 99 OFFCURVE",
"209 119 CURVE SMOOTH",
"211 160 OFFCURVE",
"185 193 OFFCURVE",
"144 196 CURVE SMOOTH",
"119 196 OFFCURVE",
"90 195 OFFCURVE",
"73 214 CURVE",
"74 237 OFFCURVE",
"74 259 OFFCURVE",
"75 281 CURVE SMOOTH",
"74 318 OFFCURVE",
"70 336 OFFCURVE",
"62 337 CURVE SMOOTH",
"50 338 OFFCURVE",
"44 328 OFFCURVE",
"44 309 CURVE SMOOTH",
"44 294 OFFCURVE",
"51 256 OFFCURVE",
"51 248 CURVE SMOOTH",
"50 225 OFFCURVE",
"43 190 OFFCURVE",
"31 145 CURVE SMOOTH",
"19 99 OFFCURVE",
"12 66 OFFCURVE",
"11 45 CURVE SMOOTH",
"10 27 OFFCURVE",
"38 13 OFFCURVE",
"94 6 CURVE SMOOTH"
);
},
{
closed = 1;
nodes = (
"451 88 OFFCURVE",
"472 60 OFFCURVE",
"513 59 CURVE SMOOTH",
"545 58 OFFCURVE",
"567 84 OFFCURVE",
"569 117 CURVE SMOOTH",
"570 132 OFFCURVE",
"561 154 OFFCURVE",
"541 182 CURVE SMOOTH",
"521 210 OFFCURVE",
"503 223 OFFCURVE",
"489 224 CURVE SMOOTH",
"466 226 OFFCURVE",
"453 210 OFFCURVE",
"452 179 CURVE SMOOTH",
"451 160 OFFCURVE",
"451 147 OFFCURVE",
"451 141 CURVE SMOOTH"
);
},
{
closed = 1;
nodes = (
"458 586 OFFCURVE",
"497 587 OFFCURVE",
"567 583 CURVE SMOOTH",
"576 583 OFFCURVE",
"586 584 OFFCURVE",
"596 582 CURVE SMOOTH",
"609 579 OFFCURVE",
"615 575 OFFCURVE",
"614 567 CURVE SMOOTH",
"611 535 LINE",
"598 542 OFFCURVE",
"584 545 OFFCURVE",
"570 546 CURVE SMOOTH",
"551 547 OFFCURVE",
"508 529 OFFCURVE",
"491 530 CURVE SMOOTH",
"466 531 OFFCURVE",
"452 548 OFFCURVE",
"449 579 CURVE"
);
},
{
closed = 1;
nodes = (
"56 358 OFFCURVE",
"60 363 OFFCURVE",
"61 373 CURVE SMOOTH",
"63 395 OFFCURVE",
"66 430 OFFCURVE",
"70 477 CURVE SMOOTH",
"74 524 OFFCURVE",
"75 560 OFFCURVE",
"78 584 CURVE SMOOTH",
"79 591 OFFCURVE",
"74 594 OFFCURVE",
"65 594 CURVE SMOOTH",
"57 594 OFFCURVE",
"52 591 OFFCURVE",
"52 585 CURVE SMOOTH",
"52 562 OFFCURVE",
"49 525 OFFCURVE",
"47 474 CURVE SMOOTH",
"45 422 OFFCURVE",
"48 385 OFFCURVE",
"43 364 CURVE SMOOTH",
"42 360 OFFCURVE",
"44 358 OFFCURVE",
"47 358 CURVE SMOOTH"
);
}
);
width = 661;
}
);
note = H;
unicode = 0048;
},
{
color = 11;
glyphname = Hbar;
lastChange = "2021-09-29 05:24:54 +0000";
layers = (
{
hints = (
{
horizontal = 1;
place = "{-1, 40}";
type = Stem;
},
{
horizontal = 1;
place = "{209, 41}";
type = Stem;
},
{
horizontal = 1;
place = "{282, 144}";
type = Stem;
},
{
horizontal = 1;
place = "{583, 38}";
type = Stem;
},
{
place = "{52, 18}";
type = Stem;
},
{
place = "{247, 31}";
type = Stem;
},
{
place = "{390, 25}";
type = Stem;
},
{
place = "{451, 118}";
type = Stem;
},
{
place = "{612, 20}";
type = Stem;
},
{
place = "{51, 18}";
type = Stem;
},
{
place = "{246, 31}";
type = Stem;
},
{
place = "{389, 25}";
type = Stem;
},
{
place = "{450, 118}";
type = Stem;
},
{
place = "{598, 28}";
type = Stem;
},
{
horizontal = 1;
place = "{602, 39}";
type = Stem;
},
{
place = "{127, 170}";
type = Stem;
},
{
place = "{399, 49}";
type = Stem;
},
{
place = "{611, 20}";
type = Stem;
},
{
place = "{50, 22}";
type = Stem;
}
);
layerId = "F72AA8BB-7F63-4F07-AEAC-030E55A5CABB";
paths = (
{
closed = 1;
nodes = (
"753 498 OFFCURVE",
"753 500 OFFCURVE",
"754 501 CURVE",
"754 508 OFFCURVE",
"739 512 OFFCURVE",
"709 514 CURVE SMOOTH",
"688 516 OFFCURVE",
"669 516 OFFCURVE",
"652 517 CURVE",
"659 593 LINE SMOOTH",
"660 611 OFFCURVE",
"653 620 OFFCURVE",
"637 621 CURVE SMOOTH",
"615 622 OFFCURVE",
"538 620 OFFCURVE",
"516 621 CURVE SMOOTH",
"507 622 OFFCURVE",
"468 629 OFFCURVE",
"452 629 CURVE SMOOTH",
"428 629 OFFCURVE",
"416 620 OFFCURVE",
"415 601 CURVE SMOOTH",
"414 584 OFFCURVE",
"413 562 OFFCURVE",
"413 532 CURVE",
"409 533 OFFCURVE",
"404 533 OFFCURVE",
"399 533 CURVE SMOOTH",
"382 535 OFFCURVE",
"353 537 OFFCURVE",
"314 539 CURVE",
"315 545 OFFCURVE",
"315 551 OFFCURVE",
"315 557 CURVE SMOOTH",
"315 569 OFFCURVE",
"326 600 OFFCURVE",
"326 613 CURVE SMOOTH",
"327 626 OFFCURVE",
"310 634 OFFCURVE",
"276 638 CURVE",
"208 641 LINE SMOOTH",
"187 642 OFFCURVE",
"117 651 OFFCURVE",
"97 652 CURVE SMOOTH",
"81 653 OFFCURVE",
"74 642 OFFCURVE",
"72 621 CURVE SMOOTH",
"71 610 OFFCURVE",
"81 603 OFFCURVE",
"101 602 CURVE SMOOTH",
"137 602 LINE",
"164 574 OFFCURVE",
"178 552 OFFCURVE",
"177 537 CURVE SMOOTH",
"176 524 OFFCURVE",
"170 504 OFFCURVE",
"159 478 CURVE SMOOTH",
"148 451 OFFCURVE",
"142 430 OFFCURVE",
"141 415 CURVE SMOOTH",
"137 349 OFFCURVE",
"193 285 OFFCURVE",
"259 282 CURVE SMOOTH",
"280 281 OFFCURVE",
"307 286 OFFCURVE",
"339 297 CURVE SMOOTH",
"370 308 OFFCURVE",
"388 314 OFFCURVE",
"391 314 CURVE SMOOTH",
"402 313 OFFCURVE",
"419 307 OFFCURVE",
"441 295 CURVE SMOOTH",
"462 283 OFFCURVE",
"482 276 OFFCURVE",
"500 275 CURVE SMOOTH",
"543 273 OFFCURVE",
"582 285 OFFCURVE",
"615 312 CURVE",
"612 221 LINE SMOOTH",
"611 203 OFFCURVE",
"608 176 OFFCURVE",
"604 141 CURVE SMOOTH",
"600 105 OFFCURVE",
"597 78 OFFCURVE",
"596 60 CURVE",
"597 49 OFFCURVE",
"598 41 OFFCURVE",
"599 36 CURVE",
"598 27 OFFCURVE",
"570 25 OFFCURVE",
"515 27 CURVE SMOOTH",
"446 30 LINE SMOOTH",
"436 30 OFFCURVE",
"430 57 OFFCURVE",
"429 109 CURVE SMOOTH",
"428 141 OFFCURVE",
"428 173 OFFCURVE",
"428 206 CURVE",
"437 208 OFFCURVE",
"443 213 OFFCURVE",
"443 221 CURVE SMOOTH",
"443 235 OFFCURVE",
"422 245 OFFCURVE",
"379 250 CURVE SMOOTH",
"375 250 OFFCURVE",
"347 251 OFFCURVE",
"295 254 CURVE SMOOTH",
"278 255 OFFCURVE",
"270 249 OFFCURVE",
"268 235 CURVE SMOOTH",
"267 228 OFFCURVE",
"268 222 OFFCURVE",
"271 217 CURVE",
"266 205 OFFCURVE",
"263 172 OFFCURVE",
"260 117 CURVE SMOOTH",
"260 66 LINE",
"258 45 OFFCURVE",
"248 36 OFFCURVE",
"231 37 CURVE SMOOTH",
"169 42 LINE",
"206 73 LINE",
"216 84 OFFCURVE",
"221 99 OFFCURVE",
"222 119 CURVE SMOOTH",
"224 160 OFFCURVE",
"198 193 OFFCURVE",
"157 196 CURVE SMOOTH",
"132 196 OFFCURVE",
"103 195 OFFCURVE",
"86 214 CURVE",
"87 237 OFFCURVE",
"87 259 OFFCURVE",
"88 281 CURVE SMOOTH",
"87 318 OFFCURVE",
"83 336 OFFCURVE",
"75 337 CURVE SMOOTH",
"63 338 OFFCURVE",
"57 328 OFFCURVE",
"57 309 CURVE SMOOTH",
"57 294 OFFCURVE",
"64 256 OFFCURVE",
"64 248 CURVE SMOOTH",
"63 225 OFFCURVE",
"56 190 OFFCURVE",
"44 145 CURVE SMOOTH",
"32 99 OFFCURVE",
"25 66 OFFCURVE",
"24 45 CURVE SMOOTH",
"23 27 OFFCURVE",
"51 13 OFFCURVE",
"107 6 CURVE SMOOTH",
"121 4 OFFCURVE",
"158 2 OFFCURVE",
"219 -1 CURVE SMOOTH",
"270 -4 OFFCURVE",
"297 7 OFFCURVE",
"298 31 CURVE SMOOTH",
"298 47 OFFCURVE",
"291 82 OFFCURVE",
"291 94 CURVE SMOOTH",
"291 109 OFFCURVE",
"291 128 OFFCURVE",
"292 152 CURVE SMOOTH",
"294 180 OFFCURVE",
"295 199 OFFCURVE",
"295 209 CURVE",
"325 212 OFFCURVE",
"345 214 OFFCURVE",
"355 213 CURVE SMOOTH",
"368 212 OFFCURVE",
"384 211 OFFCURVE",
"403 209 CURVE",
"400 160 OFFCURVE",
"397 124 OFFCURVE",
"396 99 CURVE SMOOTH",
"395 79 OFFCURVE",
"381 28 OFFCURVE",
"381 9 CURVE SMOOTH",
"380 0 OFFCURVE",
"398 -6 OFFCURVE",
"435 -8 CURVE SMOOTH",
"551 -14 OFFCURVE",
"611 -16 OFFCURVE",
"616 -13 CURVE SMOOTH",
"624 -8 OFFCURVE",
"630 29 OFFCURVE",
"633 96 CURVE SMOOTH",
"635 135 OFFCURVE",
"638 195 OFFCURVE",
"640 274 CURVE SMOOTH",
"642 348 OFFCURVE",
"644 405 OFFCURVE",
"646 444 CURVE",
"650 444 OFFCURVE",
"655 443 OFFCURVE",
"659 443 CURVE SMOOTH",
"666 442 OFFCURVE",
"685 439 OFFCURVE",
"712 436 CURVE SMOOTH",
"722 435 LINE SMOOTH",
"739 434 OFFCURVE",
"753 435 OFFCURVE",
"754 445 CURVE SMOOTH",
"754 449 OFFCURVE",
"750 461 OFFCURVE",
"750 464 CURVE SMOOTH",
"752 486 OFFCURVE",
"752 496 OFFCURVE",
"752 496 CURVE"
);
},
{
closed = 1;
nodes = (
"58 422 OFFCURVE",
"61 385 OFFCURVE",
"56 364 CURVE SMOOTH",
"55 360 OFFCURVE",
"57 358 OFFCURVE",
"60 358 CURVE SMOOTH",
"69 358 OFFCURVE",
"73 363 OFFCURVE",
"74 373 CURVE SMOOTH",
"83 477 LINE SMOOTH",
"87 524 OFFCURVE",
"88 560 OFFCURVE",
"91 584 CURVE SMOOTH",
"92 591 OFFCURVE",
"87 594 OFFCURVE",
"78 594 CURVE SMOOTH",
"70 594 OFFCURVE",
"65 591 OFFCURVE",
"65 585 CURVE SMOOTH",
"65 577 OFFCURVE",
"65 568 OFFCURVE",
"64 558 CURVE",
"45 558 LINE SMOOTH",
"34 557 OFFCURVE",
"27 557 OFFCURVE",
"25 557 CURVE SMOOTH",
"18 556 OFFCURVE",
"14 553 OFFCURVE",
"14 548 CURVE SMOOTH",
"14 544 OFFCURVE",
"15 538 OFFCURVE",
"16 529 CURVE SMOOTH",
"18 511 LINE",
"17 509 OFFCURVE",
"11 499 OFFCURVE",
"11 494 CURVE SMOOTH",
"11 490 OFFCURVE",
"14 487 OFFCURVE",
"23 486 CURVE SMOOTH",
"33 484 OFFCURVE",
"45 483 OFFCURVE",
"60 483 CURVE",
"60 474 LINE SMOOTH"
);
},
{
closed = 1;
nodes = (
"564 547 OFFCURVE",
"521 529 OFFCURVE",
"504 530 CURVE SMOOTH",
"479 531 OFFCURVE",
"465 548 OFFCURVE",
"462 579 CURVE",
"471 586 OFFCURVE",
"510 587 OFFCURVE",
"580 583 CURVE SMOOTH",
"589 583 OFFCURVE",
"599 584 OFFCURVE",
"609 582 CURVE SMOOTH",
"622 579 OFFCURVE",
"628 575 OFFCURVE",
"627 567 CURVE SMOOTH",
"624 535 LINE",
"611 542 OFFCURVE",
"597 545 OFFCURVE",
"583 546 CURVE SMOOTH"
);
},
{
closed = 1;
nodes = (
"686 450 LINE SMOOTH",
"671 452 OFFCURVE",
"658 453 OFFCURVE",
"646 455 CURVE",
"646 459 OFFCURVE",
"647 465 OFFCURVE",
"647 471 CURVE",
"662 471 OFFCURVE",
"678 472 OFFCURVE",
"694 473 CURVE",
"692 469 OFFCURVE",
"691 467 OFFCURVE",
"691 464 CURVE SMOOTH",
"691 463 OFFCURVE",
"692 463 OFFCURVE",
"692 462 CURVE",
"693 460 OFFCURVE",
"701 453 OFFCURVE",
"701 452 CURVE SMOOTH",
"701 450 OFFCURVE",
"697 450 OFFCURVE",
"691 450 CURVE SMOOTH"
);
},
{
closed = 1;
nodes = (
"383 422 OFFCURVE",
"370 422 OFFCURVE",
"350 426 CURVE SMOOTH",
"334 429 OFFCURVE",
"321 430 OFFCURVE",
"311 429 CURVE",
"311 440 OFFCURVE",
"312 451 OFFCURVE",
"312 461 CURVE",
"356 458 OFFCURVE",
"390 458 OFFCURVE",
"413 460 CURVE",
"413 452 OFFCURVE",
"412 444 OFFCURVE",
"412 438 CURVE SMOOTH",
"411 426 OFFCURVE",
"404 421 OFFCURVE",
"389 422 CURVE SMOOTH"
);
},
{
closed = 1;
nodes = (
"583 132 OFFCURVE",
"574 154 OFFCURVE",
"554 182 CURVE SMOOTH",
"534 210 OFFCURVE",
"516 223 OFFCURVE",
"502 224 CURVE SMOOTH",
"479 226 OFFCURVE",
"466 210 OFFCURVE",
"465 179 CURVE SMOOTH",
"464 160 OFFCURVE",
"464 147 OFFCURVE",
"464 141 CURVE SMOOTH",
"464 88 OFFCURVE",
"485 60 OFFCURVE",
"526 59 CURVE SMOOTH",
"558 58 OFFCURVE",
"580 84 OFFCURVE",
"582 117 CURVE SMOOTH"
);
}
);
width = 764;
}
);
unicode = 0126;
},
{
glyphname = I;
layers = (
{
hints = (
{
horizontal = 1;
place = "{-14, 21}";
target = up;
type = BottomGhost;
},
{
horizontal = 1;
place = "{589, 34}";
type = Stem;
},
{
horizontal = 1;
place = "{655, -20}";
target = down;
type = TopGhost;
},
{
place = "{60, 23}";
type = Stem;
},
{
place = "{276, 30}";
type = Stem;
},
{
horizontal = 1;
place = "{-17, 21}";
target = up;
type = BottomGhost;
},
{
place = "{264, 35}";
type = Stem;
},
{
place = "{254, 41}";
type = Stem;
}
);
layerId = "F72AA8BB-7F63-4F07-AEAC-030E55A5CABB";
paths = (
{
closed = 1;
nodes = (
"34 -7 OFFCURVE",
"54 -19 OFFCURVE",
"93 -17 CURVE SMOOTH",
"119 -16 OFFCURVE",
"212 2 OFFCURVE",
"238 3 CURVE SMOOTH",
"258 4 OFFCURVE",
"284 -14 OFFCURVE",
"292 -14 CURVE SMOOTH",
"308 -14 OFFCURVE",
"335 15 OFFCURVE",
"335 31 CURVE SMOOTH",
"334 43 OFFCURVE",
"325 53 OFFCURVE",
"306 60 CURVE",
"304 189 OFFCURVE",
"303 285 OFFCURVE",
"304 350 CURVE",
"303 365 OFFCURVE",
"297 373 OFFCURVE",
"285 372 CURVE SMOOTH",
"272 372 OFFCURVE",
"266 363 OFFCURVE",
"267 345 CURVE SMOOTH",
"268 328 OFFCURVE",
"275 284 OFFCURVE",
"276 265 CURVE SMOOTH",
"280 151 OFFCURVE",
"281 85 OFFCURVE",
"279 66 CURVE",
"256 63 OFFCURVE",
"238 59 OFFCURVE",
"227 56 CURVE",
"220 65 OFFCURVE",
"217 74 OFFCURVE",
"216 83 CURVE SMOOTH",
"216 89 OFFCURVE",
"224 103 OFFCURVE",
"239 124 CURVE SMOOTH",
"254 144 OFFCURVE",
"262 165 OFFCURVE",
"261 184 CURVE SMOOTH",
"258 234 OFFCURVE",
"232 248 OFFCURVE",
"190 262 CURVE SMOOTH",
"166 270 OFFCURVE",
"148 277 OFFCURVE",
"139 285 CURVE SMOOTH",
"133 290 OFFCURVE",
"127 301 OFFCURVE",
"117 318 CURVE SMOOTH",
"109 332 OFFCURVE",
"98 342 OFFCURVE",
"83 348 CURVE",
"82 393 OFFCURVE",
"80 425 OFFCURVE",
"79 442 CURVE",
"99 430 OFFCURVE",
"117 424 OFFCURVE",
"134 425 CURVE SMOOTH",
"146 425 OFFCURVE",
"173 434 OFFCURVE",
"184 434 CURVE SMOOTH",
"197 434 OFFCURVE",
"227 425 OFFCURVE",
"240 425 CURVE SMOOTH",
"247 426 OFFCURVE",
"255 428 OFFCURVE",
"264 433 CURVE",
"265 420 OFFCURVE",
"273 409 OFFCURVE",
"290 402 CURVE",
"297 403 OFFCURVE",
"300 412 OFFCURVE",
"299 431 CURVE SMOOTH",
"298 450 OFFCURVE",
"288 499 OFFCURVE",
"288 519 CURVE SMOOTH",
"288 532 OFFCURVE",
"296 563 OFFCURVE",
"295 572 CURVE SMOOTH",
"295 583 OFFCURVE",
"279 592 OFFCURVE",
"268 592 CURVE SMOOTH",
"258 591 OFFCURVE",
"253 586 OFFCURVE",
"254 576 CURVE SMOOTH",
"255 567 OFFCURVE",
"256 561 OFFCURVE",
"257 557 CURVE",
"216 561 OFFCURVE",
"186 572 OFFCURVE",
"167 589 CURVE",
"191 590 OFFCURVE",
"302 607 OFFCURVE",
"302 620 CURVE SMOOTH",
"302 629 OFFCURVE",
"284 655 OFFCURVE",
"275 655 CURVE SMOOTH",
"255 654 OFFCURVE",
"214 634 OFFCURVE",
"195 632 CURVE SMOOTH",
"145 627 OFFCURVE",
"113 624 OFFCURVE",
"98 623 CURVE SMOOTH",
"91 623 OFFCURVE",
"68 627 OFFCURVE",
"60 627 CURVE SMOOTH",
"43 627 OFFCURVE",
"35 619 OFFCURVE",
"36 604 CURVE SMOOTH",
"38 581 OFFCURVE",
"49 503 OFFCURVE",
"49 480 CURVE SMOOTH",
"51 437 OFFCURVE",
"54 395 OFFCURVE",
"56 352 CURVE SMOOTH",
"59 289 OFFCURVE",
"60 239 OFFCURVE",
"60 201 CURVE SMOOTH",
"60 153 OFFCURVE",
"59 105 OFFCURVE",
"43 60 CURVE SMOOTH",
"36 41 OFFCURVE",
"33 26 OFFCURVE",
"33 16 CURVE SMOOTH"
);
}
);
width = 347;
}
);
note = I;
unicode = 0049;
},
{
glyphname = J;
layers = (
{
hints = (
{
horizontal = 1;
place = "{-13, 21}";
target = up;
type = BottomGhost;
},
{
horizontal = 1;
place = "{171, 33}";
type = Stem;
},
{
horizontal = 1;
place = "{572, 69}";
type = Stem;
},
{
horizontal = 1;
place = "{654, -20}";
target = down;
type = TopGhost;
},
{
place = "{30, 35}";
type = Stem;
},
{
place = "{203, 40}";
type = Stem;
},
{
place = "{416, 32}";
type = Stem;
},
{
horizontal = 1;
place = "{-13, 40}";
type = Stem;
}
);
layerId = "F72AA8BB-7F63-4F07-AEAC-030E55A5CABB";
paths = (
{
closed = 1;
nodes = (
"30 11 OFFCURVE",
"151 -13 OFFCURVE",
"201 -13 CURVE SMOOTH",
"360 -13 OFFCURVE",
"439 75 OFFCURVE",
"439 251 CURVE SMOOTH",
"439 288 LINE SMOOTH",
"438 305 OFFCURVE",
"438 318 OFFCURVE",
"438 325 CURVE SMOOTH",
"438 351 OFFCURVE",
"441 395 OFFCURVE",
"448 457 CURVE SMOOTH",
"454 514 OFFCURVE",
"456 558 OFFCURVE",
"454 589 CURVE SMOOTH",
"453 605 LINE",
"464 612 OFFCURVE",
"470 618 OFFCURVE",
"470 622 CURVE SMOOTH",
"470 635 OFFCURVE",
"457 641 OFFCURVE",
"431 641 CURVE SMOOTH",
"414 641 OFFCURVE",
"369 635 OFFCURVE",
"352 635 CURVE SMOOTH",
"335 635 OFFCURVE",
"311 639 OFFCURVE",
"279 645 CURVE SMOOTH",
"247 651 OFFCURVE",
"223 654 OFFCURVE",
"208 654 CURVE SMOOTH",
"189 654 OFFCURVE",
"179 644 OFFCURVE",
"179 625 CURVE SMOOTH",
"179 604 OFFCURVE",
"187 589 OFFCURVE",
"202 578 CURVE",
"203 331 LINE SMOOTH",
"203 254 OFFCURVE",
"197 212 OFFCURVE",
"184 204 CURVE",
"178 204 OFFCURVE",
"169 218 OFFCURVE",
"156 247 CURVE SMOOTH",
"143 276 OFFCURVE",
"132 289 OFFCURVE",
"123 289 CURVE SMOOTH",
"106 289 OFFCURVE",
"96 259 OFFCURVE",
"96 245 CURVE SMOOTH",
"96 239 OFFCURVE",
"97 235 OFFCURVE",
"98 232 CURVE",
"88 216 OFFCURVE",
"30 87 OFFCURVE",
"30 76 CURVE SMOOTH"
);
},
{
closed = 1;
nodes = (
"144 177 OFFCURVE",
"162 171 OFFCURVE",
"181 171 CURVE SMOOTH",
"232 171 OFFCURVE",
"243 252 OFFCURVE",
"243 290 CURVE SMOOTH",
"243 312 OFFCURVE",
"236 388 OFFCURVE",
"236 410 CURVE SMOOTH",
"236 414 LINE",
"245 416 OFFCURVE",
"253 417 OFFCURVE",
"259 417 CURVE SMOOTH",
"270 417 OFFCURVE",
"296 411 OFFCURVE",
"307 411 CURVE SMOOTH",
"343 411 OFFCURVE",
"371 446 OFFCURVE",
"371 482 CURVE SMOOTH",
"371 516 OFFCURVE",
"358 546 OFFCURVE",
"333 572 CURVE",
"370 575 OFFCURVE",
"399 581 OFFCURVE",
"419 590 CURVE",
"416 583 OFFCURVE",
"415 502 OFFCURVE",
"416 347 CURVE",
"343 352 OFFCURVE",
"289 312 OFFCURVE",
"289 237 CURVE SMOOTH",
"289 234 OFFCURVE",
"289 224 OFFCURVE",
"292 207 CURVE SMOOTH",
"294 196 OFFCURVE",
"294 186 OFFCURVE",
"291 177 CURVE SMOOTH",
"284 156 OFFCURVE",
"269 141 OFFCURVE",
"243 131 CURVE SMOOTH",
"220 124 OFFCURVE",
"198 116 OFFCURVE",
"176 109 CURVE",
"153 98 OFFCURVE",
"142 81 OFFCURVE",
"142 57 CURVE SMOOTH",
"142 46 OFFCURVE",
"144 36 OFFCURVE",
"149 27 CURVE",
"106 38 OFFCURVE",
"78 56 OFFCURVE",
"65 80 CURVE",
"86 119 OFFCURVE",
"106 155 OFFCURVE",
"127 190 CURVE"
);
}
);
width = 476;
}
);
note = J;
unicode = 004A;
},
{
glyphname = K;
layers = (
{
hints = (
{
horizontal = 1;
place = "{-7, 34}";
type = Stem;
},
{
horizontal = 1;
place = "{592, 29}";
type = Stem;
},
{
place = "{30, 29}";
type = Stem;
},
{
place = "{223, 36}";
type = Stem;
},
{
place = "{312, 158}";
type = Stem;
},
{
place = "{29, 29}";
type = Stem;
},
{
place = "{158, 112}";
type = Stem;
},
{
place = "{311, 158}";
type = Stem;
},
{
horizontal = 1;
place = "{0, 21}";
target = up;
type = BottomGhost;
},
{
horizontal = 1;
place = "{599, 36}";
type = Stem;
},
{
place = "{216, 50}";
type = Stem;
},
{
place = "{222, 36}";
type = Stem;
}
);
layerId = "F72AA8BB-7F63-4F07-AEAC-030E55A5CABB";
paths = (
{
closed = 1;
nodes = (
"22 455 OFFCURVE",
"26 359 OFFCURVE",
"29 294 CURVE SMOOTH",
"31 96 LINE",
"29 62 OFFCURVE",
"27 37 OFFCURVE",
"25 20 CURVE SMOOTH",
"25 2 OFFCURVE",
"43 -7 OFFCURVE",
"79 -7 CURVE SMOOTH",
"92 -7 OFFCURVE",
"121 -5 OFFCURVE",
"125 -5 CURVE SMOOTH",
"146 -5 OFFCURVE",
"218 4 OFFCURVE",
"240 4 CURVE SMOOTH",
"248 4 OFFCURVE",
"254 4 OFFCURVE",
"259 3 CURVE",
"268 4 OFFCURVE",
"272 36 OFFCURVE",
"271 99 CURVE SMOOTH",
"271 115 OFFCURVE",
"267 185 OFFCURVE",
"267 204 CURVE",
"272 195 OFFCURVE",
"290 168 OFFCURVE",
"318 125 CURVE SMOOTH",
"341 90 OFFCURVE",
"356 64 OFFCURVE",
"362 48 CURVE SMOOTH",
"370 28 OFFCURVE",
"374 17 OFFCURVE",
"375 16 CURVE SMOOTH",
"381 7 OFFCURVE",
"391 1 OFFCURVE",
"405 0 CURVE SMOOTH",
"416 -1 OFFCURVE",
"438 -1 OFFCURVE",
"472 0 CURVE SMOOTH",
"598 2 LINE",
"664 7 OFFCURVE",
"697 18 OFFCURVE",
"696 37 CURVE SMOOTH",
"696 56 OFFCURVE",
"659 102 OFFCURVE",
"584 174 CURVE SMOOTH",
"508 247 OFFCURVE",
"471 295 OFFCURVE",
"470 321 CURVE SMOOTH",
"470 334 OFFCURVE",
"498 389 OFFCURVE",
"553 484 CURVE SMOOTH",
"635 627 LINE",
"635 640 OFFCURVE",
"621 646 OFFCURVE",
"592 645 CURVE SMOOTH",
"568 645 OFFCURVE",
"485 634 OFFCURVE",
"461 633 CURVE SMOOTH",
"449 633 OFFCURVE",
"420 635 OFFCURVE",
"411 635 CURVE SMOOTH",
"372 635 OFFCURVE",
"346 619 OFFCURVE",
"334 588 CURVE SMOOTH",
"309 522 OFFCURVE",
"288 477 OFFCURVE",
"272 453 CURVE",
"259 439 OFFCURVE",
"246 425 OFFCURVE",
"233 411 CURVE SMOOTH",
"216 392 OFFCURVE",
"207 376 OFFCURVE",
"208 364 CURVE SMOOTH",
"208 348 OFFCURVE",
"237 333 OFFCURVE",
"254 333 CURVE SMOOTH",
"266 333 OFFCURVE",
"276 344 OFFCURVE",
"284 365 CURVE",
"318 438 OFFCURVE",
"345 493 OFFCURVE",
"364 529 CURVE",
"382 516 OFFCURVE",
"400 509 OFFCURVE",
"417 509 CURVE SMOOTH",
"449 510 OFFCURVE",
"467 534 OFFCURVE",
"467 565 CURVE SMOOTH",
"466 576 OFFCURVE",
"463 587 OFFCURVE",
"458 599 CURVE",
"523 599 LINE SMOOTH",
"557 599 OFFCURVE",
"577 598 OFFCURVE",
"582 595 CURVE",
"557 557 OFFCURVE",
"533 520 OFFCURVE",
"508 485 CURVE",
"420 487 OFFCURVE",
"310 386 OFFCURVE",
"312 297 CURVE SMOOTH",
"312 273 OFFCURVE",
"320 252 OFFCURVE",
"338 237 CURVE SMOOTH",
"347 230 OFFCURVE",
"365 218 OFFCURVE",
"394 203 CURVE SMOOTH",
"439 180 OFFCURVE",
"450 166 OFFCURVE",
"468 120 CURVE SMOOTH",
"483 81 OFFCURVE",
"501 69 OFFCURVE",
"545 69 CURVE SMOOTH",
"557 70 OFFCURVE",
"567 72 OFFCURVE",
"576 76 CURVE",
"583 60 OFFCURVE",
"589 48 OFFCURVE",
"592 39 CURVE",
"483 38 LINE SMOOTH",
"468 37 OFFCURVE",
"432 39 OFFCURVE",
"417 38 CURVE SMOOTH",
"404 38 OFFCURVE",
"395 47 OFFCURVE",
"391 64 CURVE SMOOTH",
"383 97 OFFCURVE",
"295 247 OFFCURVE",
"270 258 CURVE",
"264 279 OFFCURVE",
"257 289 OFFCURVE",
"248 289 CURVE SMOOTH",
"231 289 OFFCURVE",
"216 253 OFFCURVE",
"217 234 CURVE",
"218 230 LINE",
"207 234 OFFCURVE",
"196 236 OFFCURVE",
"186 236 CURVE SMOOTH",
"183 236 OFFCURVE",
"175 235 OFFCURVE",
"163 234 CURVE SMOOTH",
"154 233 OFFCURVE",
"146 232 OFFCURVE",
"141 233 CURVE",
"130 233 OFFCURVE",
"102 246 OFFCURVE",
"87 246 CURVE SMOOTH",
"80 246 OFFCURVE",
"71 244 OFFCURVE",
"59 240 CURVE",
"60 336 LINE",
"132 348 OFFCURVE",
"182 416 OFFCURVE",
"180 491 CURVE SMOOTH",
"179 526 OFFCURVE",
"168 560 OFFCURVE",
"147 592 CURVE",
"176 591 OFFCURVE",
"192 590 OFFCURVE",
"195 589 CURVE SMOOTH",
"212 583 OFFCURVE",
"222 575 OFFCURVE",
"223 558 CURVE SMOOTH",
"223 546 OFFCURVE",
"230 494 OFFCURVE",
"244 494 CURVE SMOOTH",
"255 495 OFFCURVE",
"259 510 OFFCURVE",
"259 539 CURVE SMOOTH",
"258 607 LINE SMOOTH",
"258 619 OFFCURVE",
"196 624 OFFCURVE",
"71 621 CURVE SMOOTH",
"35 620 OFFCURVE",
"17 608 OFFCURVE",
"18 584 CURVE SMOOTH"
);
},
{
closed = 1;
nodes = (
"60 117 LINE",
"127 99 OFFCURVE",
"162 73 OFFCURVE",
"159 39 CURVE SMOOTH",
"158 28 LINE",
"132 28 LINE SMOOTH",
"119 27 OFFCURVE",
"111 27 OFFCURVE",
"108 27 CURVE SMOOTH",
"77 27 OFFCURVE",
"61 42 OFFCURVE",
"60 73 CURVE SMOOTH"
);
}
);
width = 706;
}
);
note = K;
unicode = 004B;
},
{
glyphname = L;
layers = (
{
hints = (
{
horizontal = 1;
place = "{-18, 21}";
target = up;
type = BottomGhost;
},
{
horizontal = 1;
place = "{195, 33}";
type = Stem;
},
{
horizontal = 1;
place = "{655, -20}";
target = down;
type = TopGhost;
},
{
place = "{48, 31}";
type = Stem;
},
{
place = "{266, 26}";
type = Stem;
},
{
place = "{452, 34}";
type = Stem;
},
{
horizontal = 1;
place = "{2, 108}";
type = Stem;
},
{
horizontal = 1;
place = "{-20, 21}";
target = up;
type = BottomGhost;
},
{
horizontal = 1;
place = "{-20, 51}";
type = Stem;
},
{
horizontal = 1;
place = "{583, 72}";
type = Stem;
},
{
place = "{80, 135}";
type = Stem;
},
{
place = "{266, 33}";
type = Stem;
}
);
layerId = "F72AA8BB-7F63-4F07-AEAC-030E55A5CABB";
paths = (
{
closed = 1;
nodes = (
"74 -18 OFFCURVE",
"84 -10 OFFCURVE",
"89 6 CURVE",
"135 5 OFFCURVE",
"181 4 OFFCURVE",
"228 2 CURVE SMOOTH",
"283 0 OFFCURVE",
"328 -5 OFFCURVE",
"365 -11 CURVE SMOOTH",
"400 -17 OFFCURVE",
"421 -20 OFFCURVE",
"430 -20 CURVE SMOOTH",
"465 -20 OFFCURVE",
"483 -5 OFFCURVE",
"483 26 CURVE SMOOTH",
"483 43 OFFCURVE",
"478 86 OFFCURVE",
"478 105 CURVE SMOOTH",
"478 122 OFFCURVE",
"486 165 OFFCURVE",
"486 182 CURVE SMOOTH",
"486 215 OFFCURVE",
"477 231 OFFCURVE",
"460 231 CURVE SMOOTH",
"453 231 OFFCURVE",
"429 228 OFFCURVE",
"416 228 CURVE SMOOTH",
"404 228 OFFCURVE",
"375 231 OFFCURVE",
"364 231 CURVE SMOOTH",
"355 231 OFFCURVE",
"333 230 OFFCURVE",
"299 227 CURVE",
"300 235 OFFCURVE",
"301 244 OFFCURVE",
"301 254 CURVE SMOOTH",
"301 273 OFFCURVE",
"292 344 OFFCURVE",
"292 362 CURVE SMOOTH",
"292 425 OFFCURVE",
"290 457 OFFCURVE",
"287 459 CURVE",
"279 458 OFFCURVE",
"275 448 OFFCURVE",
"270 432 CURVE SMOOTH",
"269 429 OFFCURVE",
"268 417 OFFCURVE",
"266 396 CURVE",
"257 397 OFFCURVE",
"233 393 OFFCURVE",
"226 393 CURVE SMOOTH",
"201 393 OFFCURVE",
"188 393 OFFCURVE",
"187 392 CURVE",
"172 389 OFFCURVE",
"165 380 OFFCURVE",
"165 364 CURVE SMOOTH",
"165 339 OFFCURVE",
"227 287 OFFCURVE",
"249 278 CURVE",
"240 255 OFFCURVE",
"236 238 OFFCURVE",
"236 228 CURVE SMOOTH",
"236 196 OFFCURVE",
"252 180 OFFCURVE",
"283 180 CURVE SMOOTH",
"302 180 OFFCURVE",
"349 195 OFFCURVE",
"370 195 CURVE SMOOTH",
"425 195 OFFCURVE",
"452 187 OFFCURVE",
"452 172 CURVE SMOOTH",
"452 143 OFFCURVE",
"447 103 OFFCURVE",
"440 53 CURVE SMOOTH",
"438 39 OFFCURVE",
"432 32 OFFCURVE",
"421 31 CURVE",
"420 91 OFFCURVE",
"380 137 OFFCURVE",
"321 137 CURVE SMOOTH",
"300 137 OFFCURVE",
"248 110 OFFCURVE",
"232 110 CURVE SMOOTH",
"214 110 OFFCURVE",
"200 119 OFFCURVE",
"194 136 CURVE SMOOTH",
"189 151 OFFCURVE",
"183 167 OFFCURVE",
"177 182 CURVE",
"166 198 OFFCURVE",
"153 209 OFFCURVE",
"136 216 CURVE SMOOTH",
"96 232 OFFCURVE",
"76 287 OFFCURVE",
"76 380 CURVE SMOOTH",
"76 395 OFFCURVE",
"77 416 OFFCURVE",
"78 441 CURVE SMOOTH",
"79 466 OFFCURVE",
"79 482 OFFCURVE",
"79 489 CURVE SMOOTH",
"79 508 OFFCURVE",
"79 518 OFFCURVE",
"80 521 CURVE",
"77 481 OFFCURVE",
"101 445 OFFCURVE",
"141 445 CURVE SMOOTH",
"180 445 OFFCURVE",
"215 486 OFFCURVE",
"215 523 CURVE SMOOTH",
"215 544 OFFCURVE",
"215 557 OFFCURVE",
"216 560 CURVE SMOOTH",
"217 563 OFFCURVE",
"221 575 OFFCURVE",
"229 595 CURVE",
"238 594 OFFCURVE",
"267 583 OFFCURVE",
"280 583 CURVE SMOOTH",
"297 583 OFFCURVE",
"305 592 OFFCURVE",
"305 610 CURVE SMOOTH",
"305 640 OFFCURVE",
"291 655 OFFCURVE",
"263 655 CURVE SMOOTH",
"247 655 OFFCURVE",
"223 652 OFFCURVE",
"190 644 CURVE SMOOTH",
"157 636 OFFCURVE",
"133 632 OFFCURVE",
"116 632 CURVE SMOOTH",
"108 632 OFFCURVE",
"78 637 OFFCURVE",
"66 637 CURVE SMOOTH",
"45 637 OFFCURVE",
"34 627 OFFCURVE",
"34 607 CURVE SMOOTH",
"34 587 OFFCURVE",
"44 538 OFFCURVE",
"45 521 CURVE SMOOTH",
"47 480 OFFCURVE",
"48 384 OFFCURVE",
"48 233 CURVE SMOOTH",
"48 172 OFFCURVE",
"49 119 OFFCURVE",
"35 76 CURVE SMOOTH",
"30 62 OFFCURVE",
"22 29 OFFCURVE",
"22 14 CURVE SMOOTH",
"22 -7 OFFCURVE",
"35 -18 OFFCURVE",
"61 -18 CURVE SMOOTH"
);
},
{
closed = 1;
nodes = (
"266 543 OFFCURVE",
"272 477 OFFCURVE",
"277 475 CURVE",
"292 475 OFFCURVE",
"299 495 OFFCURVE",
"299 534 CURVE SMOOTH",
"299 555 OFFCURVE",
"294 566 OFFCURVE",
"285 566 CURVE SMOOTH",
"272 566 OFFCURVE",
"266 562 OFFCURVE",
"266 553 CURVE SMOOTH"
);
}
);
width = 504;
}
);
note = L;
unicode = 004C;
},
{
color = 11;
glyphname = Lslash;
lastChange = "2021-09-29 05:24:54 +0000";
layers = (
{
hints = (
{
horizontal = 1;
place = "{-18, 21}";
target = up;
type = BottomGhost;
},
{
horizontal = 1;
place = "{195, 33}";
type = Stem;
},
{
horizontal = 1;
place = "{655, -20}";
target = down;
type = TopGhost;
},
{
place = "{48, 31}";
type = Stem;
},
{
place = "{266, 26}";
type = Stem;
},
{
place = "{452, 34}";
type = Stem;
},
{
horizontal = 1;
place = "{2, 108}";
type = Stem;
},
{
horizontal = 1;
place = "{-20, 21}";
target = up;
type = BottomGhost;
},
{
horizontal = 1;
place = "{-20, 51}";
type = Stem;
},
{
horizontal = 1;
place = "{583, 72}";
type = Stem;
},
{
place = "{80, 135}";
type = Stem;
},
{
place = "{266, 33}";
type = Stem;
},
{
horizontal = 1;
place = "{185.46, 23.07}";
type = Stem;
},
{
place = "{416.413, 32.683}";
type = Stem;
},
{
horizontal = 1;
place = "{179.693, 142.267}";
type = Stem;
}
);
layerId = "F72AA8BB-7F63-4F07-AEAC-030E55A5CABB";
paths = (
{
closed = 1;
nodes = (
"486 215 OFFCURVE",
"477 231 OFFCURVE",
"460 231 CURVE SMOOTH",
"453 231 OFFCURVE",
"429 228 OFFCURVE",
"416 228 CURVE SMOOTH",
"404 228 OFFCURVE",
"375 231 OFFCURVE",
"364 231 CURVE SMOOTH",
"355 231 OFFCURVE",
"333 230 OFFCURVE",
"299 227 CURVE",
"300 235 OFFCURVE",
"301 244 OFFCURVE",
"301 254 CURVE SMOOTH",
"301 262 OFFCURVE",
"299 278 OFFCURVE",
"298 296 CURVE",
"322 302 OFFCURVE",
"342 311 OFFCURVE",
"358 311 CURVE",
"362 312 OFFCURVE",
"372 312 OFFCURVE",
"389 314 CURVE SMOOTH",
"406 316 OFFCURVE",
"410 324 OFFCURVE",
"407 339 CURVE SMOOTH",
"405 348 OFFCURVE",
"395 372 OFFCURVE",
"394 376 CURVE SMOOTH",
"377 434 LINE",
"374 452 OFFCURVE",
"363 458 OFFCURVE",
"344 453 CURVE SMOOTH",
"322 447 OFFCURVE",
"304 438 OFFCURVE",
"291 429 CURVE",
"290 448 OFFCURVE",
"289 458 OFFCURVE",
"287 459 CURVE",
"279 458 OFFCURVE",
"275 448 OFFCURVE",
"270 432 CURVE SMOOTH",
"269 430 OFFCURVE",
"269 423 OFFCURVE",
"268 413 CURVE",
"261 407 OFFCURVE",
"257 404 OFFCURVE",
"255 403 CURVE",
"245 401 OFFCURVE",
"229 401 OFFCURVE",
"207 404 CURVE SMOOTH",
"199 405 OFFCURVE",
"187 404 OFFCURVE",
"171 399 CURVE SMOOTH",
"155 395 OFFCURVE",
"89 371 OFFCURVE",
"79 368 CURVE",
"78 368 OFFCURVE",
"77 368 OFFCURVE",
"76 367 CURVE",
"76 380 LINE SMOOTH",
"76 395 OFFCURVE",
"77 416 OFFCURVE",
"78 441 CURVE SMOOTH",
"79 466 OFFCURVE",
"79 482 OFFCURVE",
"79 489 CURVE SMOOTH",
"79 508 OFFCURVE",
"79 518 OFFCURVE",
"80 521 CURVE",
"77 481 OFFCURVE",
"101 445 OFFCURVE",
"141 445 CURVE SMOOTH",
"180 445 OFFCURVE",
"215 486 OFFCURVE",
"215 523 CURVE SMOOTH",
"215 544 OFFCURVE",
"215 557 OFFCURVE",
"216 560 CURVE SMOOTH",
"217 563 OFFCURVE",
"221 575 OFFCURVE",
"229 595 CURVE",
"238 594 OFFCURVE",
"267 583 OFFCURVE",
"280 583 CURVE SMOOTH",
"297 583 OFFCURVE",
"305 592 OFFCURVE",
"305 610 CURVE SMOOTH",
"305 640 OFFCURVE",
"291 655 OFFCURVE",
"263 655 CURVE SMOOTH",
"247 655 OFFCURVE",
"223 652 OFFCURVE",
"190 644 CURVE SMOOTH",
"157 636 OFFCURVE",
"133 632 OFFCURVE",
"116 632 CURVE SMOOTH",
"108 632 OFFCURVE",
"78 637 OFFCURVE",
"66 637 CURVE SMOOTH",
"45 637 OFFCURVE",
"34 627 OFFCURVE",
"34 607 CURVE SMOOTH",
"34 587 OFFCURVE",
"44 538 OFFCURVE",
"45 521 CURVE SMOOTH",
"46 493 OFFCURVE",
"47 440 OFFCURVE",
"48 361 CURVE",
"39 360 OFFCURVE",
"29 358 OFFCURVE",
"18 355 CURVE SMOOTH",
"-9 350 OFFCURVE",
"-24 345 OFFCURVE",
"-28 342 CURVE SMOOTH",
"-39 334 OFFCURVE",
"-42 326 OFFCURVE",
"-39 314 CURVE SMOOTH",
"-37 307 OFFCURVE",
"-18 254 OFFCURVE",
"-16 250 CURVE",
"-16 249 OFFCURVE",
"-13 223 OFFCURVE",
"-9 214 CURVE SMOOTH",
"-7 208 OFFCURVE",
"-4 206 OFFCURVE",
"0 206 CURVE SMOOTH",
"10 206 OFFCURVE",
"21 210 OFFCURVE",
"36 216 CURVE SMOOTH",
"39 217 OFFCURVE",
"43 220 OFFCURVE",
"48 223 CURVE",
"48 166 OFFCURVE",
"48 117 OFFCURVE",
"35 76 CURVE SMOOTH",
"30 62 OFFCURVE",
"22 29 OFFCURVE",
"22 14 CURVE SMOOTH",
"22 -7 OFFCURVE",
"35 -18 OFFCURVE",
"61 -18 CURVE SMOOTH",
"74 -18 OFFCURVE",
"84 -10 OFFCURVE",
"89 6 CURVE",
"135 5 OFFCURVE",
"181 4 OFFCURVE",
"228 2 CURVE SMOOTH",
"283 0 OFFCURVE",
"328 -5 OFFCURVE",
"365 -11 CURVE SMOOTH",
"400 -17 OFFCURVE",
"421 -20 OFFCURVE",
"430 -20 CURVE SMOOTH",
"465 -20 OFFCURVE",
"483 -5 OFFCURVE",
"483 26 CURVE SMOOTH",
"483 43 OFFCURVE",
"478 86 OFFCURVE",
"478 105 CURVE SMOOTH",
"478 122 OFFCURVE",
"486 165 OFFCURVE",
"486 182 CURVE SMOOTH"
);
},
{
closed = 1;
nodes = (
"272 566 OFFCURVE",
"266 562 OFFCURVE",
"266 553 CURVE SMOOTH",
"266 543 OFFCURVE",
"272 477 OFFCURVE",
"277 475 CURVE",
"292 475 OFFCURVE",
"299 495 OFFCURVE",
"299 534 CURVE SMOOTH",
"299 555 OFFCURVE",
"294 566 OFFCURVE",
"285 566 CURVE SMOOTH"
);
},
{
closed = 1;
nodes = (
"362 364 OFFCURVE",
"362 358 OFFCURVE",
"364 356 CURVE",
"365 351 OFFCURVE",
"374 342 OFFCURVE",
"375 339 CURVE SMOOTH",
"376 336 OFFCURVE",
"373 334 OFFCURVE",
"367 333 CURVE",
"345 326 OFFCURVE",
"319 320 OFFCURVE",
"296 315 CURVE",
"295 323 OFFCURVE",
"294 331 OFFCURVE",
"294 338 CURVE",
"315 345 OFFCURVE",
"337 357 OFFCURVE",
"359 375 CURVE"
);
},
{
closed = 1;
nodes = (
"438 39 OFFCURVE",
"432 32 OFFCURVE",
"421 31 CURVE",
"420 91 OFFCURVE",
"380 137 OFFCURVE",
"321 137 CURVE SMOOTH",
"300 137 OFFCURVE",
"248 110 OFFCURVE",
"232 110 CURVE SMOOTH",
"214 110 OFFCURVE",
"200 119 OFFCURVE",
"194 136 CURVE SMOOTH",
"189 151 OFFCURVE",
"183 167 OFFCURVE",
"177 182 CURVE",
"166 198 OFFCURVE",
"153 209 OFFCURVE",
"136 216 CURVE SMOOTH",
"128 219 OFFCURVE",
"121 224 OFFCURVE",
"114 230 CURVE",
"121 231 OFFCURVE",
"128 233 OFFCURVE",
"135 235 CURVE SMOOTH",
"193 251 OFFCURVE",
"224 269 OFFCURVE",
"231 288 CURVE",
"238 284 OFFCURVE",
"244 280 OFFCURVE",
"249 278 CURVE",
"240 255 OFFCURVE",
"236 238 OFFCURVE",
"236 228 CURVE SMOOTH",
"236 196 OFFCURVE",
"252 180 OFFCURVE",
"283 180 CURVE SMOOTH",
"302 180 OFFCURVE",
"349 195 OFFCURVE",
"370 195 CURVE SMOOTH",
"425 195 OFFCURVE",
"452 187 OFFCURVE",
"452 172 CURVE SMOOTH",
"452 143 OFFCURVE",
"447 103 OFFCURVE",
"440 53 CURVE SMOOTH"
);
}
);
width = 504;
}
);
unicode = 0141;
},
{
glyphname = M;
layers = (
{
hints = (
{
horizontal = 1;
place = "{-28, 77}";
type = Stem;
},
{
horizontal = 1;
place = "{623, 34}";
type = Stem;
},
{
place = "{40, 48}";
type = Stem;
},
{
place = "{229, 37}";
type = Stem;
},
{
place = "{586, 14}";
type = Stem;
},
{
place = "{627, 121}";
type = Stem;
},
{
place = "{819, 39}";
type = Stem;
},
{
horizontal = 1;
place = "{-9, 52}";
type = Stem;
},
{
horizontal = 1;
place = "{-28, 21}";
target = up;
type = BottomGhost;
},
{
horizontal = 1;
place = "{555, 74}";
type = Stem;
},
{
horizontal = 1;
place = "{650, 15}";
type = Stem;
},
{
place = "{68, 18}";
type = Stem;
},
{
place = "{228, 37}";
type = Stem;
},
{
place = "{585, 14}";
type = Stem;
},
{
place = "{626, 121}";
type = Stem;
},
{
place = "{818, 39}";
type = Stem;
},
{
horizontal = 1;
place = "{623, 27}";
type = Stem;
},
{
place = "{39, 48}";
type = Stem;
}
);
layerId = "F72AA8BB-7F63-4F07-AEAC-030E55A5CABB";
paths = (
{
closed = 1;
nodes = (
"23 -22 OFFCURVE",
"33 -29 OFFCURVE",
"50 -28 CURVE SMOOTH",
"75 -27 OFFCURVE",
"161 -25 OFFCURVE",
"186 -23 CURVE SMOOTH",
"245 -18 OFFCURVE",
"275 -4 OFFCURVE",
"273 22 CURVE SMOOTH",
"272 37 OFFCURVE",
"263 46 OFFCURVE",
"246 49 CURVE SMOOTH",
"239 50 OFFCURVE",
"225 50 OFFCURVE",
"202 49 CURVE",
"203 80 OFFCURVE",
"183 116 OFFCURVE",
"182 135 CURVE SMOOTH",
"181 152 OFFCURVE",
"200 190 OFFCURVE",
"198 209 CURVE SMOOTH",
"194 244 OFFCURVE",
"159 271 OFFCURVE",
"124 268 CURVE SMOOTH",
"112 267 OFFCURVE",
"100 263 OFFCURVE",
"88 256 CURVE",
"90 301 OFFCURVE",
"90 338 OFFCURVE",
"88 367 CURVE",
"107 366 OFFCURVE",
"134 336 OFFCURVE",
"150 338 CURVE SMOOTH",
"174 341 OFFCURVE",
"190 361 OFFCURVE",
"188 384 CURVE SMOOTH",
"185 417 OFFCURVE",
"161 418 OFFCURVE",
"141 425 CURVE",
"138 427 OFFCURVE",
"132 435 OFFCURVE",
"124 448 CURVE SMOOTH",
"118 457 OFFCURVE",
"105 463 OFFCURVE",
"86 466 CURVE",
"85 482 OFFCURVE",
"86 501 OFFCURVE",
"87 523 CURVE",
"92 522 OFFCURVE",
"98 521 OFFCURVE",
"103 521 CURVE SMOOTH",
"118 521 OFFCURVE",
"134 527 OFFCURVE",
"151 538 CURVE SMOOTH",
"168 549 OFFCURVE",
"181 555 OFFCURVE",
"190 555 CURVE SMOOTH",
"194 555 LINE SMOOTH",
"209 556 OFFCURVE",
"221 546 OFFCURVE",
"230 525 CURVE SMOOTH",
"243 494 OFFCURVE",
"261 474 OFFCURVE",
"286 464 CURVE SMOOTH",
"311 454 OFFCURVE",
"328 438 OFFCURVE",
"336 416 CURVE SMOOTH",
"347 385 OFFCURVE",
"355 357 OFFCURVE",
"383 332 CURVE",
"392 288 OFFCURVE",
"406 267 OFFCURVE",
"425 268 CURVE SMOOTH",
"440 269 OFFCURVE",
"457 284 OFFCURVE",
"456 299 CURVE",
"451 312 OFFCURVE",
"447 322 OFFCURVE",
"443 328 CURVE",
"474 458 OFFCURVE",
"497 555 OFFCURVE",
"514 620 CURVE",
"536 616 OFFCURVE",
"571 617 OFFCURVE",
"619 623 CURVE",
"610 614 OFFCURVE",
"602 596 OFFCURVE",
"593 570 CURVE SMOOTH",
"584 544 OFFCURVE",
"575 525 OFFCURVE",
"564 514 CURVE",
"531 491 OFFCURVE",
"487 474 OFFCURVE",
"491 423 CURVE SMOOTH",
"494 388 OFFCURVE",
"520 358 OFFCURVE",
"553 349 CURVE",
"548 312 OFFCURVE",
"540 268 OFFCURVE",
"528 219 CURVE SMOOTH",
"496 91 LINE SMOOTH",
"489 61 OFFCURVE",
"475 45 OFFCURVE",
"454 43 CURVE SMOOTH",
"407 40 OFFCURVE",
"378 57 OFFCURVE",
"367 93 CURVE",
"391 91 OFFCURVE",
"410 94 OFFCURVE",
"419 106 CURVE SMOOTH",
"422 110 OFFCURVE",
"429 121 OFFCURVE",
"436 139 CURVE SMOOTH",
"441 152 OFFCURVE",
"449 158 OFFCURVE",
"459 159 CURVE SMOOTH",
"485 162 OFFCURVE",
"498 173 OFFCURVE",
"496 194 CURVE SMOOTH",
"493 224 OFFCURVE",
"475 238 OFFCURVE",
"441 235 CURVE SMOOTH",
"428 234 OFFCURVE",
"407 216 OFFCURVE",
"394 215 CURVE SMOOTH",
"386 215 OFFCURVE",
"368 218 OFFCURVE",
"360 218 CURVE SMOOTH",
"348 217 OFFCURVE",
"338 213 OFFCURVE",
"329 204 CURVE",
"290 295 OFFCURVE",
"271 345 OFFCURVE",
"270 356 CURVE SMOOTH",
"269 360 OFFCURVE",
"271 384 OFFCURVE",
"270 392 CURVE SMOOTH",
"269 399 OFFCURVE",
"267 403 OFFCURVE",
"262 406 CURVE",
"250 405 OFFCURVE",
"238 383 OFFCURVE",
"239 370 CURVE SMOOTH",
"244 299 OFFCURVE",
"240 244 OFFCURVE",
"229 203 CURVE SMOOTH",
"223 181 OFFCURVE",
"220 160 OFFCURVE",
"222 141 CURVE SMOOTH",
"225 110 OFFCURVE",
"235 94 OFFCURVE",
"253 96 CURVE SMOOTH",
"262 97 OFFCURVE",
"263 103 OFFCURVE",
"267 111 CURVE SMOOTH",
"268 113 OFFCURVE",
"267 121 OFFCURVE",
"266 135 CURVE SMOOTH",
"265 200 OFFCURVE",
"266 248 OFFCURVE",
"267 281 CURVE",
"276 232 OFFCURVE",
"352 -11 OFFCURVE",
"380 -9 CURVE SMOOTH",
"401 -7 OFFCURVE",
"474 -8 OFFCURVE",
"493 -7 CURVE SMOOTH",
"521 -6 OFFCURVE",
"535 14 OFFCURVE",
"531 51 CURVE SMOOTH",
"530 60 OFFCURVE",
"539 111 OFFCURVE",
"555 202 CURVE SMOOTH",
"571 291 OFFCURVE",
"581 342 OFFCURVE",
"586 357 CURVE",
"593 319 OFFCURVE",
"600 266 OFFCURVE",
"606 198 CURVE SMOOTH",
"613 123 OFFCURVE",
"620 70 OFFCURVE",
"625 39 CURVE SMOOTH",
"628 20 OFFCURVE",
"636 11 OFFCURVE",
"649 12 CURVE SMOOTH",
"668 13 OFFCURVE",
"695 15 OFFCURVE",
"732 17 CURVE SMOOTH",
"769 19 OFFCURVE",
"796 20 OFFCURVE",
"815 21 CURVE SMOOTH",
"845 23 OFFCURVE",
"859 32 OFFCURVE",
"858 49 CURVE",
"853 66 OFFCURVE",
"849 79 OFFCURVE",
"845 88 CURVE SMOOTH",
"841 97 OFFCURVE",
"822 177 OFFCURVE",
"787 326 CURVE SMOOTH",
"752 474 OFFCURVE",
"734 559 OFFCURVE",
"731 578 CURVE",
"727 630 LINE",
"723 654 OFFCURVE",
"715 667 OFFCURVE",
"703 665 CURVE SMOOTH",
"682 662 OFFCURVE",
"627 652 OFFCURVE",
"604 650 CURVE SMOOTH",
"588 649 OFFCURVE",
"567 650 OFFCURVE",
"542 653 CURVE SMOOTH",
"517 656 OFFCURVE",
"502 657 OFFCURVE",
"499 657 CURVE SMOOTH",
"476 656 OFFCURVE",
"465 647 OFFCURVE",
"466 631 CURVE SMOOTH",
"467 623 OFFCURVE",
"473 600 OFFCURVE",
"473 589 CURVE",
"456 496 OFFCURVE",
"441 419 OFFCURVE",
"426 358 CURVE",
"373 477 OFFCURVE",
"346 570 OFFCURVE",
"339 637 CURVE SMOOTH",
"338 646 OFFCURVE",
"331 650 OFFCURVE",
"318 649 CURVE SMOOTH",
"298 647 OFFCURVE",
"251 630 OFFCURVE",
"232 629 CURVE SMOOTH",
"209 628 OFFCURVE",
"130 633 OFFCURVE",
"108 632 CURVE SMOOTH",
"91 631 OFFCURVE",
"77 623 OFFCURVE",
"74 608 CURVE SMOOTH",
"73 603 OFFCURVE",
"71 588 OFFCURVE",
"69 564 CURVE SMOOTH",
"69 562 OFFCURVE",
"65 519 OFFCURVE",
"60 436 CURVE SMOOTH",
"57 385 OFFCURVE",
"53 342 OFFCURVE",
"49 309 CURVE SMOOTH",
"46 284 OFFCURVE",
"41 236 OFFCURVE",
"40 164 CURVE SMOOTH",
"39 103 OFFCURVE",
"35 56 OFFCURVE",
"26 21 CURVE SMOOTH",
"23 9 OFFCURVE",
"21 0 OFFCURVE",
"22 -6 CURVE SMOOTH"
);
},
{
closed = 1;
nodes = (
"617 374 OFFCURVE",
"631 382 OFFCURVE",
"642 383 CURVE SMOOTH",
"655 384 OFFCURVE",
"673 379 OFFCURVE",
"696 369 CURVE SMOOTH",
"719 359 OFFCURVE",
"737 354 OFFCURVE",
"752 356 CURVE SMOOTH",
"764 358 LINE",
"775 316 OFFCURVE",
"786 274 OFFCURVE",
"797 232 CURVE SMOOTH",
"809 182 OFFCURVE",
"816 140 OFFCURVE",
"819 105 CURVE SMOOTH",
"820 94 OFFCURVE",
"819 86 OFFCURVE",
"816 79 CURVE",
"765 87 OFFCURVE",
"751 99 OFFCURVE",
"747 150 CURVE SMOOTH",
"747 162 OFFCURVE",
"749 193 OFFCURVE",
"749 205 CURVE",
"746 234 OFFCURVE",
"723 258 OFFCURVE",
"694 256 CURVE SMOOTH",
"666 254 OFFCURVE",
"649 242 OFFCURVE",
"639 222 CURVE SMOOTH",
"637 218 OFFCURVE",
"633 196 OFFCURVE",
"627 157 CURVE",
"624 191 OFFCURVE",
"620 225 OFFCURVE",
"617 258 CURVE SMOOTH",
"613 299 OFFCURVE",
"607 332 OFFCURVE",
"600 358 CURVE"
);
},
{
closed = 1;
nodes = (
"703 651 LINE",
"703 650 LINE",
"702 650 OFFCURVE",
"701 650 OFFCURVE",
"700 651 CURVE"
);
}
);
width = 855;
}
);
note = M;
unicode = 004D;
},
{
glyphname = N;
layers = (
{
hints = (
{
horizontal = 1;
place = "{-11, 45}";
type = Stem;
},
{
horizontal = 1;
place = "{654, -20}";
target = down;
type = TopGhost;
},
{
place = "{239, 28}";
type = Stem;
},
{
place = "{439, 25}";
type = Stem;
},
{
place = "{238, 28}";
type = Stem;
},
{
place = "{462, 201}";
type = Stem;
},
{
horizontal = 1;
place = "{-23, 21}";
target = up;
type = BottomGhost;
},
{
horizontal = 1;
place = "{604, 47}";
type = Stem;
},
{
place = "{438, 25}";
type = Stem;
},
{
place = "{639, 48}";
type = Stem;
},
{
place = "{423, 52}";
type = Stem;
},
{
horizontal = 1;
place = "{606, 48}";
type = Stem;
}
);
layerId = "F72AA8BB-7F63-4F07-AEAC-030E55A5CABB";
paths = (
{
closed = 1;
nodes = (
"288 234 OFFCURVE",
"296 220 OFFCURVE",
"312 197 CURVE SMOOTH",
"330 171 OFFCURVE",
"341 155 OFFCURVE",
"344 148 CURVE SMOOTH",
"361 108 OFFCURVE",
"370 77 OFFCURVE",
"377 57 CURVE",
"380 43 OFFCURVE",
"383 29 OFFCURVE",
"386 15 CURVE SMOOTH",
"391 -1 OFFCURVE",
"400 -10 OFFCURVE",
"415 -11 CURVE SMOOTH",
"434 -12 OFFCURVE",
"463 -12 OFFCURVE",
"501 -11 CURVE SMOOTH",
"539 -10 OFFCURVE",
"568 -10 OFFCURVE",
"587 -12 CURVE SMOOTH",
"599 -13 OFFCURVE",
"629 -23 OFFCURVE",
"641 -23 CURVE SMOOTH",
"652 -24 OFFCURVE",
"658 -14 OFFCURVE",
"660 9 CURVE SMOOTH",
"663 40 OFFCURVE",
"664 80 OFFCURVE",
"664 131 CURVE SMOOTH",
"664 171 LINE SMOOTH",
"664 222 OFFCURVE",
"665 264 OFFCURVE",
"667 296 CURVE SMOOTH",
"688 586 LINE SMOOTH",
"689 594 OFFCURVE",
"687 605 OFFCURVE",
"684 618 CURVE SMOOTH",
"680 634 OFFCURVE",
"675 642 OFFCURVE",
"668 643 CURVE SMOOTH",
"665 643 OFFCURVE",
"662 640 OFFCURVE",
"659 635 CURVE",
"659 633 LINE",
"623 645 OFFCURVE",
"558 651 OFFCURVE",
"518 651 CURVE SMOOTH",
"471 651 OFFCURVE",
"447 638 OFFCURVE",
"445 611 CURVE SMOOTH",
"445 604 OFFCURVE",
"442 565 OFFCURVE",
"439 495 CURVE SMOOTH",
"437 448 OFFCURVE",
"434 409 OFFCURVE",
"430 378 CURVE",
"416 405 OFFCURVE",
"402 432 OFFCURVE",
"388 459 CURVE SMOOTH",
"365 500 OFFCURVE",
"347 521 OFFCURVE",
"335 522 CURVE SMOOTH",
"330 522 OFFCURVE",
"328 520 OFFCURVE",
"328 515 CURVE",
"327 512 OFFCURVE",
"333 500 OFFCURVE",
"344 480 CURVE",
"329 471 OFFCURVE",
"320 456 OFFCURVE",
"319 435 CURVE SMOOTH",
"318 415 OFFCURVE",
"335 391 OFFCURVE",
"335 378 CURVE SMOOTH",
"334 370 OFFCURVE",
"327 349 OFFCURVE",
"327 341 CURVE SMOOTH",
"324 309 OFFCURVE",
"351 285 OFFCURVE",
"384 283 CURVE SMOOTH",
"397 282 OFFCURVE",
"411 284 OFFCURVE",
"424 288 CURVE",
"420 251 OFFCURVE",
"428 231 OFFCURVE",
"447 230 CURVE SMOOTH",
"465 229 OFFCURVE",
"475 236 OFFCURVE",
"476 251 CURVE SMOOTH",
"477 269 OFFCURVE",
"476 292 OFFCURVE",
"473 319 CURVE SMOOTH",
"469 354 OFFCURVE",
"464 392 OFFCURVE",
"464 427 CURVE SMOOTH",
"464 434 OFFCURVE",
"464 489 OFFCURVE",
"475 592 CURVE SMOOTH",
"476 601 OFFCURVE",
"480 605 OFFCURVE",
"489 604 CURVE SMOOTH",
"503 602 OFFCURVE",
"527 599 OFFCURVE",
"560 592 CURVE SMOOTH",
"591 585 OFFCURVE",
"614 582 OFFCURVE",
"631 582 CURVE SMOOTH",
"644 582 LINE",
"641 563 OFFCURVE",
"640 550 OFFCURVE",
"640 542 CURVE",
"564 541 OFFCURVE",
"523 514 OFFCURVE",
"520 460 CURVE SMOOTH",
"519 439 OFFCURVE",
"527 413 OFFCURVE",
"545 382 CURVE SMOOTH",
"563 351 OFFCURVE",
"570 327 OFFCURVE",
"569 308 CURVE SMOOTH",
"568 287 OFFCURVE",
"559 268 OFFCURVE",
"541 254 CURVE SMOOTH",
"525 241 OFFCURVE",
"509 228 OFFCURVE",
"493 215 CURVE",
"475 196 OFFCURVE",
"465 172 OFFCURVE",
"463 142 CURVE SMOOTH",
"460 102 OFFCURVE",
"475 66 OFFCURVE",
"506 33 CURVE",
"457 36 LINE SMOOTH",
"438 37 OFFCURVE",
"411 75 OFFCURVE",
"378 150 CURVE SMOOTH",
"332 264 LINE",
"325 267 OFFCURVE",
"319 268 OFFCURVE",
"316 268 CURVE SMOOTH",
"304 269 OFFCURVE",
"289 251 OFFCURVE",
"288 238 CURVE SMOOTH"
);
},
{
closed = 1;
nodes = (
"59 31 OFFCURVE",
"88 29 OFFCURVE",
"133 23 CURVE SMOOTH",
"169 18 OFFCURVE",
"198 16 OFFCURVE",
"220 16 CURVE SMOOTH",
"249 16 OFFCURVE",
"264 27 OFFCURVE",
"266 49 CURVE SMOOTH",
"267 65 OFFCURVE",
"268 89 OFFCURVE",
"267 120 CURVE SMOOTH",
"266 151 OFFCURVE",
"266 175 OFFCURVE",
"267 190 CURVE SMOOTH",
"268 209 OFFCURVE",
"275 235 OFFCURVE",
"287 268 CURVE SMOOTH",
"299 300 OFFCURVE",
"304 323 OFFCURVE",
"305 338 CURVE SMOOTH",
"308 359 OFFCURVE",
"289 374 OFFCURVE",
"268 377 CURVE SMOOTH",
"247 378 OFFCURVE",
"236 369 OFFCURVE",
"234 348 CURVE SMOOTH",
"233 335 OFFCURVE",
"234 317 OFFCURVE",
"237 294 CURVE SMOOTH",
"239 276 OFFCURVE",
"241 258 OFFCURVE",
"244 240 CURVE SMOOTH",
"245 222 OFFCURVE",
"245 179 OFFCURVE",
"239 110 CURVE SMOOTH",
"238 99 OFFCURVE",
"237 89 OFFCURVE",
"235 81 CURVE",
"196 98 OFFCURVE",
"173 126 OFFCURVE",
"168 163 CURVE SMOOTH",
"165 195 OFFCURVE",
"163 227 OFFCURVE",
"161 258 CURVE",
"152 292 OFFCURVE",
"123 315 OFFCURVE",
"75 328 CURVE",
"79 402 OFFCURVE",
"82 458 OFFCURVE",
"83 495 CURVE",
"91 472 OFFCURVE",
"99 448 OFFCURVE",
"106 425 CURVE",
"117 404 OFFCURVE",
"138 392 OFFCURVE",
"170 390 CURVE SMOOTH",
"211 387 OFFCURVE",
"260 421 OFFCURVE",
"262 461 CURVE SMOOTH",
"263 480 OFFCURVE",
"243 513 OFFCURVE",
"244 529 CURVE SMOOTH",
"245 542 OFFCURVE",
"249 556 OFFCURVE",
"260 570 CURVE SMOOTH",
"288 606 LINE",
"293 603 OFFCURVE",
"303 593 OFFCURVE",
"318 576 CURVE SMOOTH",
"334 558 OFFCURVE",
"341 550 OFFCURVE",
"344 550 CURVE SMOOTH",
"350 549 OFFCURVE",
"353 553 OFFCURVE",
"354 561 CURVE SMOOTH",
"355 568 OFFCURVE",
"345 585 OFFCURVE",
"326 610 CURVE SMOOTH",
"306 636 OFFCURVE",
"291 648 OFFCURVE",
"280 649 CURVE SMOOTH",
"259 651 OFFCURVE",
"227 652 OFFCURVE",
"184 654 CURVE SMOOTH",
"141 656 OFFCURVE",
"110 657 OFFCURVE",
"89 658 CURVE SMOOTH",
"72 659 OFFCURVE",
"63 651 OFFCURVE",
"62 635 CURVE SMOOTH",
"60 607 OFFCURVE",
"59 519 OFFCURVE",
"57 492 CURVE SMOOTH",
"44 322 OFFCURVE",
"36 216 OFFCURVE",
"30 173 CURVE SMOOTH",
"21 123 OFFCURVE",
"13 85 OFFCURVE",
"8 60 CURVE",
"7 43 OFFCURVE",
"20 34 OFFCURVE",
"46 32 CURVE SMOOTH"
);
}
);
width = 696;
}
);
note = N;
unicode = 004E;
},
{
glyphname = Eng;
lastChange = "2021-09-29 04:54:52 +0000";
layers = (
{
hints = (
{
horizontal = 1;
place = "{-11, 45}";
type = Stem;
},
{
horizontal = 1;
place = "{654, -20}";
target = down;
type = TopGhost;
},
{
place = "{239, 28}";
type = Stem;
},
{
place = "{439, 25}";
type = Stem;
},
{
place = "{238, 28}";
type = Stem;
},
{
place = "{462, 201}";
type = Stem;
},
{
horizontal = 1;
place = "{-23, 21}";
target = up;
type = BottomGhost;
},
{
horizontal = 1;
place = "{604, 47}";
type = Stem;
},
{
place = "{438, 25}";
type = Stem;
},
{
place = "{639, 48}";
type = Stem;
},
{
place = "{423, 52}";
type = Stem;
},
{
horizontal = 1;
place = "{606, 48}";
type = Stem;
},
{
horizontal = 1;
place = "{-181, 29}";
type = Stem;
},
{
horizontal = 1;
place = "{-90, 42}";
type = Stem;
},
{
horizontal = 1;
place = "{509, 29}";
type = Stem;
},
{
horizontal = 1;
place = "{614, 26}";
type = Stem;
},
{
horizontal = 1;
place = "{670, 143}";
type = Stem;
},
{
place = "{930, 30}";
type = Stem;
},
{
place = "{991, 8}";
type = Stem;
},
{
place = "{1162, 29}";
type = Stem;
},
{
place = "{929, 30}";
type = Stem;
},
{
place = "{977, 27}";
type = Stem;
},
{
place = "{1131, 35}";
type = Stem;
},
{
place = "{990, 8}";
type = Stem;
},
{
place = "{1161, 29}";
type = Stem;
}
);
layerId = "F72AA8BB-7F63-4F07-AEAC-030E55A5CABB";
paths = (
{
closed = 1;
nodes = (
"299 300 OFFCURVE",
"304 323 OFFCURVE",
"305 338 CURVE SMOOTH",
"308 359 OFFCURVE",
"289 374 OFFCURVE",
"268 377 CURVE SMOOTH",
"247 378 OFFCURVE",
"236 369 OFFCURVE",
"234 348 CURVE SMOOTH",
"233 335 OFFCURVE",
"234 317 OFFCURVE",
"237 294 CURVE SMOOTH",
"239 276 OFFCURVE",
"241 258 OFFCURVE",
"244 240 CURVE SMOOTH",
"245 222 OFFCURVE",
"245 179 OFFCURVE",
"239 110 CURVE SMOOTH",
"238 99 OFFCURVE",
"237 89 OFFCURVE",
"235 81 CURVE",
"196 98 OFFCURVE",
"173 126 OFFCURVE",
"168 163 CURVE SMOOTH",
"165 195 OFFCURVE",
"163 227 OFFCURVE",
"161 258 CURVE",
"152 292 OFFCURVE",
"123 315 OFFCURVE",
"75 328 CURVE",
"79 402 OFFCURVE",
"82 458 OFFCURVE",
"83 495 CURVE",
"91 472 OFFCURVE",
"99 448 OFFCURVE",
"106 425 CURVE",
"117 404 OFFCURVE",
"138 392 OFFCURVE",
"170 390 CURVE SMOOTH",
"211 387 OFFCURVE",
"260 421 OFFCURVE",
"262 461 CURVE SMOOTH",
"263 480 OFFCURVE",
"243 513 OFFCURVE",
"244 529 CURVE SMOOTH",
"245 542 OFFCURVE",
"249 556 OFFCURVE",
"260 570 CURVE SMOOTH",
"288 606 LINE",
"293 603 OFFCURVE",
"303 593 OFFCURVE",
"318 576 CURVE SMOOTH",
"334 558 OFFCURVE",
"341 550 OFFCURVE",
"344 550 CURVE SMOOTH",
"350 549 OFFCURVE",
"353 553 OFFCURVE",
"354 561 CURVE SMOOTH",
"355 568 OFFCURVE",
"345 585 OFFCURVE",
"326 610 CURVE SMOOTH",
"306 636 OFFCURVE",
"291 648 OFFCURVE",
"280 649 CURVE SMOOTH",
"259 651 OFFCURVE",
"227 652 OFFCURVE",
"184 654 CURVE SMOOTH",
"89 658 LINE SMOOTH",
"72 659 OFFCURVE",
"63 651 OFFCURVE",
"62 635 CURVE SMOOTH",
"60 607 OFFCURVE",
"59 519 OFFCURVE",
"57 492 CURVE SMOOTH",
"44 322 OFFCURVE",
"36 216 OFFCURVE",
"30 173 CURVE SMOOTH",
"21 123 OFFCURVE",
"13 85 OFFCURVE",
"8 60 CURVE",
"7 43 OFFCURVE",
"20 34 OFFCURVE",
"46 32 CURVE SMOOTH",
"59 31 OFFCURVE",
"88 29 OFFCURVE",
"133 23 CURVE SMOOTH",
"169 18 OFFCURVE",
"198 16 OFFCURVE",
"220 16 CURVE SMOOTH",
"249 16 OFFCURVE",
"264 27 OFFCURVE",
"266 49 CURVE SMOOTH",
"267 65 OFFCURVE",
"268 89 OFFCURVE",
"267 120 CURVE SMOOTH",
"266 151 OFFCURVE",
"266 175 OFFCURVE",
"267 190 CURVE SMOOTH",
"268 209 OFFCURVE",
"275 235 OFFCURVE",
"287 268 CURVE SMOOTH"
);
},
{
closed = 1;
nodes = (
"465 13 OFFCURVE",
"477 16 OFFCURVE",
"457 36 CURVE SMOOTH",
"443 50 OFFCURVE",
"409 74 OFFCURVE",
"378 150 CURVE SMOOTH",
"332 264 LINE",
"325 267 OFFCURVE",
"319 268 OFFCURVE",
"316 268 CURVE SMOOTH",
"304 269 OFFCURVE",
"289 251 OFFCURVE",
"288 238 CURVE SMOOTH",
"288 234 OFFCURVE",
"296 220 OFFCURVE",
"312 197 CURVE SMOOTH",
"330 171 OFFCURVE",
"341 155 OFFCURVE",
"344 148 CURVE SMOOTH",
"361 108 OFFCURVE",
"370 77 OFFCURVE",
"377 57 CURVE",
"386 15 LINE",
"391 -1 OFFCURVE",
"400 -10 OFFCURVE",
"415 -11 CURVE SMOOTH",
"420 -11 OFFCURVE",
"426 -11 OFFCURVE",
"433 -12 CURVE",
"431 -58 OFFCURVE",
"428 -149 OFFCURVE",
"427 -222 CURVE",
"408 -229 OFFCURVE",
"355 -233 OFFCURVE",
"343 -232 CURVE SMOOTH",
"330 -231 OFFCURVE",
"325 -236 OFFCURVE",
"324 -247 CURVE SMOOTH",
"320 -328 LINE SMOOTH",
"320 -337 OFFCURVE",
"325 -344 OFFCURVE",
"339 -345 CURVE SMOOTH",
"454 -355 LINE SMOOTH",
"485 -358 OFFCURVE",
"521 -358 OFFCURVE",
"560 -351 CURVE SMOOTH",
"644 -336 OFFCURVE",
"649 -282 OFFCURVE",
"652 -224 CURVE SMOOTH",
"656 -112 OFFCURVE",
"661 -56 OFFCURVE",
"661 -56 CURVE",
"659 -41 OFFCURVE",
"658 -27 OFFCURVE",
"657 -10 CURVE",
"660 9 LINE SMOOTH",
"665 40 OFFCURVE",
"664 80 OFFCURVE",
"664 131 CURVE SMOOTH",
"664 171 LINE SMOOTH",
"664 222 OFFCURVE",
"665 264 OFFCURVE",
"667 296 CURVE SMOOTH",
"688 586 LINE SMOOTH",
"689 606 OFFCURVE",
"685 633 OFFCURVE",
"661 640 CURVE SMOOTH",
"621 652 OFFCURVE",
"558 651 OFFCURVE",
"518 651 CURVE SMOOTH",
"471 651 OFFCURVE",
"447 638 OFFCURVE",
"445 611 CURVE SMOOTH",
"445 604 OFFCURVE",
"442 565 OFFCURVE",
"439 495 CURVE SMOOTH",
"437 448 OFFCURVE",
"434 409 OFFCURVE",
"430 378 CURVE",
"388 459 LINE SMOOTH",
"366 501 OFFCURVE",
"347 521 OFFCURVE",
"335 522 CURVE SMOOTH",
"330 522 OFFCURVE",
"328 520 OFFCURVE",
"328 515 CURVE",
"327 512 OFFCURVE",
"333 500 OFFCURVE",
"344 480 CURVE",
"329 471 OFFCURVE",
"320 456 OFFCURVE",
"319 435 CURVE SMOOTH",
"318 415 OFFCURVE",
"335 391 OFFCURVE",
"335 378 CURVE SMOOTH",
"334 370 OFFCURVE",
"327 349 OFFCURVE",
"327 341 CURVE SMOOTH",
"324 309 OFFCURVE",
"351 285 OFFCURVE",
"384 283 CURVE SMOOTH",
"397 282 OFFCURVE",
"411 284 OFFCURVE",
"424 288 CURVE",
"420 251 OFFCURVE",
"428 231 OFFCURVE",
"447 230 CURVE SMOOTH",
"465 229 OFFCURVE",
"475 236 OFFCURVE",
"476 251 CURVE SMOOTH",
"477 269 OFFCURVE",
"476 292 OFFCURVE",
"473 319 CURVE SMOOTH",
"469 354 OFFCURVE",
"464 392 OFFCURVE",
"464 427 CURVE SMOOTH",
"464 434 OFFCURVE",
"464 489 OFFCURVE",
"475 592 CURVE SMOOTH",
"476 601 OFFCURVE",
"480 605 OFFCURVE",
"489 604 CURVE SMOOTH",
"503 602 OFFCURVE",
"527 599 OFFCURVE",
"560 592 CURVE SMOOTH",
"591 585 OFFCURVE",
"614 582 OFFCURVE",
"631 582 CURVE SMOOTH",
"644 582 LINE",
"641 563 OFFCURVE",
"640 550 OFFCURVE",
"640 542 CURVE",
"564 541 OFFCURVE",
"523 514 OFFCURVE",
"520 460 CURVE SMOOTH",
"519 439 OFFCURVE",
"527 413 OFFCURVE",
"545 382 CURVE SMOOTH",
"563 351 OFFCURVE",
"570 327 OFFCURVE",
"569 308 CURVE SMOOTH",
"568 287 OFFCURVE",
"559 268 OFFCURVE",
"541 254 CURVE SMOOTH",
"493 215 LINE",
"483 139 OFFCURVE",
"593 165 OFFCURVE",
"595 209 CURVE SMOOTH",
"595 216 OFFCURVE",
"627 226 OFFCURVE",
"629 201 CURVE SMOOTH",
"635 150 OFFCURVE",
"613 35 OFFCURVE",
"614 2 CURVE",
"619 -81 LINE SMOOTH",
"621 -108 OFFCURVE",
"613 -127 OFFCURVE",
"595 -136 CURVE SMOOTH",
"577 -143 OFFCURVE",
"560 -149 OFFCURVE",
"542 -155 CURVE",
"521 -165 OFFCURVE",
"507 -183 OFFCURVE",
"500 -210 CURVE SMOOTH",
"498 -223 OFFCURVE",
"516 -237 OFFCURVE",
"552 -251 CURVE SMOOTH",
"589 -265 OFFCURVE",
"606 -272 OFFCURVE",
"606 -273 CURVE SMOOTH",
"595 -313 OFFCURVE",
"528 -326 OFFCURVE",
"484 -326 CURVE SMOOTH",
"458 -326 OFFCURVE",
"441 -323 OFFCURVE",
"423 -306 CURVE SMOOTH",
"408 -292 OFFCURVE",
"400 -279 OFFCURVE",
"400 -264 CURVE",
"431 -264 OFFCURVE",
"451 -263 OFFCURVE",
"460 -260 CURVE SMOOTH",
"476 -255 OFFCURVE",
"486 -241 OFFCURVE",
"487 -220 CURVE SMOOTH",
"488 -203 LINE SMOOTH",
"489 -186 OFFCURVE",
"483 -158 OFFCURVE",
"469 -118 CURVE SMOOTH",
"455 -78 OFFCURVE",
"465 -25 OFFCURVE",
"465 -5 CURVE SMOOTH"
);
}
);
width = 696;
}
);
unicode = 014A;
},
{
glyphname = O;
lastChange = "2021-09-29 06:10:55 +0000";
layers = (
{
hints = (
{
horizontal = 1;
place = "{-28, 39}";
type = Stem;
},
{
horizontal = 1;
place = "{202, 29}";
type = Stem;
},
{
horizontal = 1;
place = "{508, 148}";
type = Stem;
},
{
place = "{-1, 164}";
type = Stem;
},
{
place = "{234, 21}";
type = Stem;
},
{
place = "{456, 173}";
type = Stem;
},
{
place = "{660, 23}";
type = Stem;
},
{
horizontal = 1;
place = "{568, 88}";
type = Stem;
}
);
layerId = "F72AA8BB-7F63-4F07-AEAC-030E55A5CABB";
paths = (
{
closed = 1;
nodes = (
"372 -28 OFFCURVE",
"445 -4 OFFCURVE",
"535 44 CURVE SMOOTH",
"638 99 OFFCURVE",
"684 215 OFFCURVE",
"684 327 CURVE SMOOTH",
"684 536 OFFCURVE",
"544 656 OFFCURVE",
"341 656 CURVE SMOOTH",
"305 656 OFFCURVE",
"172 645 OFFCURVE",
"170 599 CURVE",
"60 552 OFFCURVE",
"0 427 OFFCURVE",
"0 312 CURVE SMOOTH",
"0 139 OFFCURVE",
"137 -28 OFFCURVE",
"316 -28 CURVE SMOOTH"
);
},
{
closed = 1;
nodes = (
"179 580 OFFCURVE",
"182 579 OFFCURVE",
"185 579 CURVE SMOOTH",
"196 579 OFFCURVE",
"259 608 OFFCURVE",
"265 614 CURVE",
"270 543 OFFCURVE",
"298 508 OFFCURVE",
"348 508 CURVE SMOOTH",
"368 508 OFFCURVE",
"392 518 OFFCURVE",
"419 538 CURVE SMOOTH",
"445 558 OFFCURVE",
"468 568 OFFCURVE",
"486 568 CURVE SMOOTH",
"505 568 OFFCURVE",
"525 558 OFFCURVE",
"546 537 CURVE SMOOTH",
"570 513 OFFCURVE",
"588 499 OFFCURVE",
"602 495 CURVE",
"641 431 OFFCURVE",
"661 366 OFFCURVE",
"661 300 CURVE SMOOTH",
"661 277 OFFCURVE",
"660 256 OFFCURVE",
"657 237 CURVE SMOOTH",
"642 145 OFFCURVE",
"516 57 OFFCURVE",
"433 29 CURVE",
"435 33 OFFCURVE",
"441 43 OFFCURVE",
"452 59 CURVE SMOOTH",
"461 72 OFFCURVE",
"465 82 OFFCURVE",
"465 88 CURVE SMOOTH",
"465 107 OFFCURVE",
"454 117 OFFCURVE",
"432 117 CURVE SMOOTH",
"427 117 OFFCURVE",
"421 116 OFFCURVE",
"414 113 CURVE SMOOTH",
"405 109 OFFCURVE",
"399 108 OFFCURVE",
"396 107 CURVE SMOOTH",
"362 96 OFFCURVE",
"325 93 OFFCURVE",
"325 50 CURVE SMOOTH",
"325 34 OFFCURVE",
"329 21 OFFCURVE",
"338 11 CURVE",
"295 11 OFFCURVE",
"252 20 OFFCURVE",
"208 38 CURVE",
"215 56 OFFCURVE",
"218 77 OFFCURVE",
"218 100 CURVE SMOOTH",
"218 128 OFFCURVE",
"209 166 OFFCURVE",
"191 213 CURVE SMOOTH",
"173 259 OFFCURVE",
"164 294 OFFCURVE",
"164 315 CURVE SMOOTH",
"164 333 OFFCURVE",
"178 401 OFFCURVE",
"178 421 CURVE SMOOTH",
"178 475 OFFCURVE",
"157 514 OFFCURVE",
"114 537 CURVE",
"141 558 OFFCURVE",
"161 572 OFFCURVE",
"176 581 CURVE"
);
},
{
closed = 1;
nodes = (
"235 280 OFFCURVE",
"241 250 OFFCURVE",
"254 232 CURVE SMOOTH",
"269 211 OFFCURVE",
"297 201 OFFCURVE",
"338 202 CURVE SMOOTH",
"346 202 LINE",
"354 194 OFFCURVE",
"445 154 OFFCURVE",
"456 154 CURVE SMOOTH",
"485 154 OFFCURVE",
"525 184 OFFCURVE",
"541 186 CURVE SMOOTH",
"586 192 OFFCURVE",
"630 202 OFFCURVE",
"630 257 CURVE SMOOTH",
"630 332 LINE SMOOTH",
"630 375 OFFCURVE",
"595 407 OFFCURVE",
"551 407 CURVE SMOOTH",
"526 407 OFFCURVE",
"487 385 OFFCURVE",
"484 385 CURVE SMOOTH",
"475 385 LINE",
"471 414 OFFCURVE",
"446 447 OFFCURVE",
"419 447 CURVE SMOOTH",
"411 447 OFFCURVE",
"407 443 OFFCURVE",
"407 435 CURVE SMOOTH",
"407 425 OFFCURVE",
"411 416 OFFCURVE",
"420 408 CURVE SMOOTH",
"450 382 OFFCURVE",
"457 366 OFFCURVE",
"457 324 CURVE SMOOTH",
"457 273 OFFCURVE",
"407 231 OFFCURVE",
"355 231 CURVE SMOOTH",
"287 231 OFFCURVE",
"256 285 OFFCURVE",
"256 347 CURVE SMOOTH",
"256 394 OFFCURVE",
"288 444 OFFCURVE",
"333 448 CURVE SMOOTH",
"374 452 OFFCURVE",
"394 456 OFFCURVE",
"394 459 CURVE SMOOTH",
"394 467 OFFCURVE",
"360 475 OFFCURVE",
"348 475 CURVE SMOOTH",
"272 475 OFFCURVE",
"235 388 OFFCURVE",
"235 323 CURVE SMOOTH"
);
}
);
width = 694;
}
);
note = O;
unicode = 004F;
},
{
glyphname = Oslash;
layers = (
{
hints = (
{
horizontal = 1;
place = "{-78, 38}";
type = Stem;
},
{
horizontal = 1;
place = "{-25, 21}";
target = up;
type = BottomGhost;
},
{
horizontal = 1;
place = "{-20, 21}";
target = up;
type = BottomGhost;
},
{
horizontal = 1;
place = "{448, 27}";
type = Stem;
},
{
horizontal = 1;
place = "{508, 148}";
type = Stem;
},
{
horizontal = 1;
place = "{692, 40}";
type = Stem;
},
{
place = "{-1, 164}";
type = Stem;
},
{
place = "{170, 10}";
type = Stem;
},
{
place = "{234, 21}";
type = Stem;
},
{
place = "{456, 173}";
type = Stem;
},
{
place = "{660, 23}";
type = Stem;
},
{
horizontal = 1;
place = "{-28, 39}";
type = Stem;
},
{
place = "{251, 22}";
type = Stem;
}
);
layerId = "F72AA8BB-7F63-4F07-AEAC-030E55A5CABB";
paths = (
{
closed = 1;
nodes = (
"164 -1 LINE SMOOTH",
"153 -26 OFFCURVE",
"142 -46 OFFCURVE",
"135 -59 CURVE SMOOTH",
"130 -72 OFFCURVE",
"130 -78 OFFCURVE",
"136 -78 CURVE SMOOTH",
"254 -78 LINE SMOOTH",
"263 -78 OFFCURVE",
"268 -72 OFFCURVE",
"270 -59 CURVE SMOOTH",
"276 -25 LINE",
"289 -27 OFFCURVE",
"302 -28 OFFCURVE",
"315 -28 CURVE SMOOTH",
"371 -28 OFFCURVE",
"444 -4 OFFCURVE",
"534 44 CURVE SMOOTH",
"637 99 OFFCURVE",
"683 215 OFFCURVE",
"683 327 CURVE SMOOTH",
"683 471 OFFCURVE",
"624 570 OFFCURVE",
"507 623 CURVE",
"546 720 LINE SMOOTH",
"548 725 OFFCURVE",
"549 730 OFFCURVE",
"548 734 CURVE SMOOTH",
"548 738 OFFCURVE",
"547 740 OFFCURVE",
"544 739 CURVE SMOOTH",
"518 730 OFFCURVE",
"501 732 OFFCURVE",
"497 732 CURVE SMOOTH",
"493 732 OFFCURVE",
"474 734 OFFCURVE",
"439 739 CURVE SMOOTH",
"432 740 OFFCURVE",
"426 730 OFFCURVE",
"423 709 CURVE SMOOTH",
"418 676 OFFCURVE",
"414 656 OFFCURVE",
"412 651 CURVE",
"389 654 OFFCURVE",
"365 656 OFFCURVE",
"340 656 CURVE SMOOTH",
"304 656 OFFCURVE",
"171 645 OFFCURVE",
"169 599 CURVE",
"59 552 OFFCURVE",
"-1 427 OFFCURVE",
"-1 312 CURVE SMOOTH",
"-1 192 OFFCURVE",
"67 73 OFFCURVE",
"170 13 CURVE"
);
},
{
closed = 1;
nodes = (
"296 61 OFFCURVE",
"308 95 OFFCURVE",
"316 117 CURVE SMOOTH",
"329 152 OFFCURVE",
"339 180 OFFCURVE",
"346 201 CURVE",
"356 192 OFFCURVE",
"443 154 OFFCURVE",
"455 154 CURVE SMOOTH",
"484 154 OFFCURVE",
"524 184 OFFCURVE",
"540 186 CURVE SMOOTH",
"585 192 OFFCURVE",
"629 202 OFFCURVE",
"629 257 CURVE SMOOTH",
"629 332 LINE SMOOTH",
"629 375 OFFCURVE",
"594 407 OFFCURVE",
"550 407 CURVE SMOOTH",
"525 407 OFFCURVE",
"486 385 OFFCURVE",
"483 385 CURVE SMOOTH",
"474 385 LINE",
"470 412 OFFCURVE",
"457 431 OFFCURVE",
"436 442 CURVE",
"486 568 LINE",
"505 568 OFFCURVE",
"524 558 OFFCURVE",
"545 537 CURVE SMOOTH",
"569 513 OFFCURVE",
"587 499 OFFCURVE",
"601 495 CURVE",
"640 431 OFFCURVE",
"660 366 OFFCURVE",
"660 300 CURVE SMOOTH",
"660 277 OFFCURVE",
"659 256 OFFCURVE",
"656 237 CURVE SMOOTH",
"641 145 OFFCURVE",
"515 57 OFFCURVE",
"432 29 CURVE",
"433 32 OFFCURVE",
"440 42 OFFCURVE",
"451 59 CURVE SMOOTH",
"460 72 OFFCURVE",
"464 82 OFFCURVE",
"464 88 CURVE SMOOTH",
"464 107 OFFCURVE",
"453 117 OFFCURVE",
"431 117 CURVE SMOOTH",
"426 117 OFFCURVE",
"420 116 OFFCURVE",
"413 113 CURVE SMOOTH",
"404 109 OFFCURVE",
"398 108 OFFCURVE",
"395 107 CURVE SMOOTH",
"361 96 OFFCURVE",
"324 93 OFFCURVE",
"324 50 CURVE SMOOTH",
"324 34 OFFCURVE",
"328 21 OFFCURVE",
"337 11 CURVE",
"318 11 OFFCURVE",
"300 12 OFFCURVE",
"283 15 CURVE"
);
},
{
closed = 1;
nodes = (
"178 580 OFFCURVE",
"181 579 OFFCURVE",
"184 579 CURVE SMOOTH",
"195 579 OFFCURVE",
"258 608 OFFCURVE",
"264 614 CURVE",
"269 543 OFFCURVE",
"297 508 OFFCURVE",
"347 508 CURVE SMOOTH",
"352 508 OFFCURVE",
"356 508 OFFCURVE",
"360 509 CURVE",
"347 475 LINE",
"271 475 OFFCURVE",
"234 388 OFFCURVE",
"234 323 CURVE SMOOTH",
"234 279 OFFCURVE",
"241 248 OFFCURVE",
"254 231 CURVE",
"215 129 LINE",
"212 150 OFFCURVE",
"202 182 OFFCURVE",
"185 226 CURVE SMOOTH",
"170 265 OFFCURVE",
"163 294 OFFCURVE",
"163 315 CURVE SMOOTH",
"163 333 OFFCURVE",
"177 401 OFFCURVE",
"177 421 CURVE SMOOTH",
"177 475 OFFCURVE",
"156 514 OFFCURVE",
"113 537 CURVE",
"140 558 OFFCURVE",
"160 572 OFFCURVE",
"175 581 CURVE"
);
},
{
closed = 1;
nodes = (
"321 366 LINE",
"336 383 OFFCURVE",
"346 395 OFFCURVE",
"353 400 CURVE",
"366 420 OFFCURVE",
"378 438 OFFCURVE",
"388 455 CURVE",
"391 456 OFFCURVE",
"392 458 OFFCURVE",
"393 459 CURVE",
"393 460 OFFCURVE",
"393 461 OFFCURVE",
"392 462 CURVE",
"412 497 OFFCURVE",
"426 526 OFFCURVE",
"435 550 CURVE",
"447 558 OFFCURVE",
"458 563 OFFCURVE",
"468 566 CURVE",
"422 446 LINE",
"421 447 OFFCURVE",
"419 447 OFFCURVE",
"418 447 CURVE SMOOTH",
"410 447 OFFCURVE",
"406 443 OFFCURVE",
"406 435 CURVE SMOOTH",
"406 428 OFFCURVE",
"408 423 OFFCURVE",
"411 418 CURVE",
"387 356 LINE SMOOTH",
"386 354 OFFCURVE",
"374 342 OFFCURVE",
"351 321 CURVE SMOOTH",
"327 300 OFFCURVE",
"309 275 OFFCURVE",
"296 249 CURVE",
"291 252 OFFCURVE",
"286 257 OFFCURVE",
"281 262 CURVE"
);
},
{
closed = 1;
nodes = (
"367 259 OFFCURVE",
"377 288 OFFCURVE",
"389 319 CURVE SMOOTH",
"422 406 LINE",
"445 387 OFFCURVE",
"456 359 OFFCURVE",
"456 324 CURVE SMOOTH",
"456 275 OFFCURVE",
"408 232 OFFCURVE",
"356 231 CURVE"
);
},
{
closed = 1;
nodes = (
"265 219 LINE",
"270 216 OFFCURVE",
"275 213 OFFCURVE",
"281 210 CURVE",
"274 189 OFFCURVE",
"269 167 OFFCURVE",
"267 143 CURVE SMOOTH",
"264 105 OFFCURVE",
"296 110 OFFCURVE",
"294 102 CURVE",
"275 51 OFFCURVE",
"264 23 OFFCURVE",
"263 19 CURVE",
"245 24 OFFCURVE",
"226 30 OFFCURVE",
"207 38 CURVE",
"213 54 OFFCURVE",
"216 72 OFFCURVE",
"217 93 CURVE"
);
},
{
closed = 1;
nodes = (
"255 390 OFFCURVE",
"285 444 OFFCURVE",
"332 448 CURVE SMOOTH",
"337 448 LINE",
"272 277 LINE",
"261 296 OFFCURVE",
"255 320 OFFCURVE",
"255 347 CURVE SMOOTH"
);
},
{
closed = 1;
nodes = (
"456 695 OFFCURVE",
"473 692 OFFCURVE",
"483 692 CURVE SMOOTH",
"488 692 OFFCURVE",
"494 693 OFFCURVE",
"500 695 CURVE SMOOTH",
"509 698 OFFCURVE",
"516 700 OFFCURVE",
"521 701 CURVE",
"493 629 LINE",
"476 636 OFFCURVE",
"459 641 OFFCURVE",
"441 645 CURVE",
"436 677 OFFCURVE",
"434 696 OFFCURVE",
"433 701 CURVE"
);
},
{
closed = 1;
nodes = (
"180 -9 OFFCURVE",
"181 -2 OFFCURVE",
"184 5 CURVE",
"205 -6 OFFCURVE",
"228 -15 OFFCURVE",
"251 -20 CURVE",
"251 -29 OFFCURVE",
"251 -35 OFFCURVE",
"250 -40 CURVE",
"196 -40 LINE SMOOTH",
"185 -40 OFFCURVE",
"180 -32 OFFCURVE",
"180 -16 CURVE SMOOTH"
);
}
);
width = 692;
}
);
note = Oslash;
unicode = 00D8;
},
{
glyphname = OE;
layers = (
{
hints = (
{
horizontal = 1;
place = "{-28, 39}";
type = Stem;
},
{
horizontal = 1;
place = "{202, 29}";
type = Stem;
},
{
horizontal = 1;
place = "{238, 70}";
type = Stem;
},
{
horizontal = 1;
place = "{381, 22}";
type = Stem;
},
{
horizontal = 1;
place = "{435, 45}";
type = Stem;
},
{
horizontal = 1;
place = "{591, 34}";
type = Stem;
},
{
horizontal = 1;
place = "{656, -20}";
target = down;
type = TopGhost;
},
{
place = "{-1, 164}";
type = Stem;
},
{
place = "{234, 21}";
type = Stem;
},
{
place = "{456, 18}";
type = Stem;
},
{
place = "{505, 13}";
type = Stem;
},
{
place = "{521, 32}";
type = Stem;
},
{
place = "{660, 23}";
type = Stem;
},
{
place = "{727, 34}";
type = Stem;
},
{
place = "{901, 31}";
type = Stem;
},
{
horizontal = 1;
place = "{-10, 46}";
type = Stem;
},
{
horizontal = 1;
place = "{-16, 21}";
target = up;
type = BottomGhost;
},
{
horizontal = 1;
place = "{0, 190}";
type = Stem;
},
{
horizontal = 1;
place = "{214, 43}";
type = Stem;
},
{
place = "{917, 29}";
type = Stem;
}
);
layerId = "F72AA8BB-7F63-4F07-AEAC-030E55A5CABB";
paths = (
{
closed = 1;
nodes = (
"-1 139 OFFCURVE",
"136 -28 OFFCURVE",
"315 -28 CURVE SMOOTH",
"368 -28 OFFCURVE",
"433 -8 OFFCURVE",
"510 32 CURVE",
"507 28 OFFCURVE",
"505 22 OFFCURVE",
"505 14 CURVE SMOOTH",
"505 -2 OFFCURVE",
"515 -10 OFFCURVE",
"536 -10 CURVE SMOOTH",
"569 -10 OFFCURVE",
"618 -8 OFFCURVE",
"684 -5 CURVE SMOOTH",
"750 -2 OFFCURVE",
"800 0 OFFCURVE",
"833 0 CURVE SMOOTH",
"848 0 OFFCURVE",
"868 -3 OFFCURVE",
"893 -8 CURVE SMOOTH",
"918 -13 OFFCURVE",
"936 -16 OFFCURVE",
"945 -16 CURVE SMOOTH",
"963 -16 OFFCURVE",
"972 11 OFFCURVE",
"972 64 CURVE SMOOTH",
"972 84 OFFCURVE",
"957 153 OFFCURVE",
"957 174 CURVE SMOOTH",
"957 193 LINE",
"956 198 OFFCURVE",
"950 201 OFFCURVE",
"941 201 CURVE SMOOTH",
"921 201 OFFCURVE",
"851 190 OFFCURVE",
"830 190 CURVE SMOOTH",
"764 190 LINE",
"763 209 OFFCURVE",
"759 225 OFFCURVE",
"753 238 CURVE",
"764 238 LINE",
"773 222 OFFCURVE",
"819 214 OFFCURVE",
"902 214 CURVE SMOOTH",
"922 214 OFFCURVE",
"932 222 OFFCURVE",
"932 239 CURVE SMOOTH",
"932 246 OFFCURVE",
"930 252 OFFCURVE",
"925 255 CURVE",
"926 260 OFFCURVE",
"931 283 OFFCURVE",
"938 322 CURVE SMOOTH",
"945 361 OFFCURVE",
"949 383 OFFCURVE",
"949 387 CURVE SMOOTH",
"949 401 OFFCURVE",
"936 408 OFFCURVE",
"910 408 CURVE SMOOTH",
"893 408 OFFCURVE",
"868 408 OFFCURVE",
"835 406 CURVE SMOOTH",
"802 404 OFFCURVE",
"777 403 OFFCURVE",
"760 403 CURVE",
"761 434 LINE SMOOTH",
"761 438 OFFCURVE",
"790 440 OFFCURVE",
"848 440 CURVE SMOOTH",
"867 440 OFFCURVE",
"914 435 OFFCURVE",
"934 435 CURVE SMOOTH",
"945 435 OFFCURVE",
"951 441 OFFCURVE",
"951 453 CURVE SMOOTH",
"951 458 OFFCURVE",
"949 462 OFFCURVE",
"946 466 CURVE",
"946 556 LINE SMOOTH",
"946 563 OFFCURVE",
"949 589 OFFCURVE",
"949 601 CURVE SMOOTH",
"949 623 OFFCURVE",
"942 634 OFFCURVE",
"927 634 CURVE SMOOTH",
"902 634 OFFCURVE",
"813 625 OFFCURVE",
"787 625 CURVE SMOOTH",
"768 625 OFFCURVE",
"740 626 OFFCURVE",
"702 627 CURVE SMOOTH",
"663 628 OFFCURVE",
"634 628 OFFCURVE",
"615 628 CURVE SMOOTH",
"599 628 OFFCURVE",
"562 637 OFFCURVE",
"546 637 CURVE SMOOTH",
"533 637 OFFCURVE",
"522 631 OFFCURVE",
"514 620 CURVE",
"463 644 OFFCURVE",
"405 656 OFFCURVE",
"340 656 CURVE SMOOTH",
"304 656 OFFCURVE",
"171 645 OFFCURVE",
"169 599 CURVE",
"59 552 OFFCURVE",
"-1 427 OFFCURVE",
"-1 312 CURVE SMOOTH"
);
},
{
closed = 1;
nodes = (
"140 558 OFFCURVE",
"160 572 OFFCURVE",
"175 581 CURVE",
"178 580 OFFCURVE",
"181 579 OFFCURVE",
"184 579 CURVE SMOOTH",
"195 579 OFFCURVE",
"258 608 OFFCURVE",
"264 614 CURVE",
"269 543 OFFCURVE",
"297 508 OFFCURVE",
"347 508 CURVE SMOOTH",
"367 508 OFFCURVE",
"391 518 OFFCURVE",
"418 538 CURVE SMOOTH",
"444 558 OFFCURVE",
"467 568 OFFCURVE",
"485 568 CURVE SMOOTH",
"492 568 OFFCURVE",
"500 567 OFFCURVE",
"507 564 CURVE",
"507 557 OFFCURVE",
"510 537 OFFCURVE",
"514 505 CURVE SMOOTH",
"517 480 OFFCURVE",
"519 460 OFFCURVE",
"519 444 CURVE SMOOTH",
"519 431 OFFCURVE",
"519 416 OFFCURVE",
"518 400 CURVE",
"492 390 OFFCURVE",
"480 385 OFFCURVE",
"483 385 CURVE SMOOTH",
"474 385 LINE",
"470 414 OFFCURVE",
"445 447 OFFCURVE",
"418 447 CURVE SMOOTH",
"410 447 OFFCURVE",
"406 443 OFFCURVE",
"406 435 CURVE SMOOTH",
"406 425 OFFCURVE",
"410 416 OFFCURVE",
"419 408 CURVE SMOOTH",
"449 382 OFFCURVE",
"456 366 OFFCURVE",
"456 324 CURVE SMOOTH",
"456 273 OFFCURVE",
"406 231 OFFCURVE",
"354 231 CURVE SMOOTH",
"286 231 OFFCURVE",
"255 285 OFFCURVE",
"255 347 CURVE SMOOTH",
"255 394 OFFCURVE",
"287 444 OFFCURVE",
"332 448 CURVE SMOOTH",
"373 452 OFFCURVE",
"393 456 OFFCURVE",
"393 459 CURVE SMOOTH",
"393 467 OFFCURVE",
"359 475 OFFCURVE",
"347 475 CURVE SMOOTH",
"271 475 OFFCURVE",
"234 388 OFFCURVE",
"234 323 CURVE SMOOTH",
"234 280 OFFCURVE",
"240 250 OFFCURVE",
"253 232 CURVE SMOOTH",
"268 211 OFFCURVE",
"296 201 OFFCURVE",
"337 202 CURVE SMOOTH",
"345 202 LINE",
"353 194 OFFCURVE",
"444 154 OFFCURVE",
"455 154 CURVE SMOOTH",
"468 154 OFFCURVE",
"488 162 OFFCURVE",
"516 177 CURVE",
"519 136 OFFCURVE",
"521 110 OFFCURVE",
"521 98 CURVE",
"518 72 LINE",
"488 53 OFFCURVE",
"459 38 OFFCURVE",
"432 29 CURVE",
"433 32 OFFCURVE",
"440 42 OFFCURVE",
"451 59 CURVE SMOOTH",
"460 72 OFFCURVE",
"464 82 OFFCURVE",
"464 88 CURVE SMOOTH",
"464 107 OFFCURVE",
"453 117 OFFCURVE",
"431 117 CURVE SMOOTH",
"426 117 OFFCURVE",
"420 116 OFFCURVE",
"413 113 CURVE SMOOTH",
"404 109 OFFCURVE",
"398 108 OFFCURVE",
"395 107 CURVE SMOOTH",
"361 96 OFFCURVE",
"324 93 OFFCURVE",
"324 50 CURVE SMOOTH",
"324 34 OFFCURVE",
"328 21 OFFCURVE",
"337 11 CURVE",
"294 11 OFFCURVE",
"251 20 OFFCURVE",
"207 38 CURVE",
"214 56 OFFCURVE",
"217 77 OFFCURVE",
"217 100 CURVE SMOOTH",
"217 128 OFFCURVE",
"208 166 OFFCURVE",
"190 213 CURVE SMOOTH",
"172 259 OFFCURVE",
"163 294 OFFCURVE",
"163 315 CURVE SMOOTH",
"163 333 OFFCURVE",
"177 401 OFFCURVE",
"177 421 CURVE SMOOTH",
"177 475 OFFCURVE",
"156 514 OFFCURVE",
"113 537 CURVE"
);
},
{
closed = 1;
nodes = (
"646 503 OFFCURVE",
"659 518 OFFCURVE",
"685 542 CURVE SMOOTH",
"704 560 OFFCURVE",
"715 577 OFFCURVE",
"720 593 CURVE",
"731 593 OFFCURVE",
"752 592 OFFCURVE",
"785 591 CURVE SMOOTH",
"814 590 OFFCURVE",
"836 590 OFFCURVE",
"853 591 CURVE SMOOTH",
"877 591 OFFCURVE",
"898 593 OFFCURVE",
"917 597 CURVE",
"912 570 OFFCURVE",
"909 551 OFFCURVE",
"909 538 CURVE SMOOTH",
"909 526 OFFCURVE",
"917 501 OFFCURVE",
"917 489 CURVE SMOOTH",
"917 480 LINE",
"909 479 OFFCURVE",
"902 478 OFFCURVE",
"895 477 CURVE",
"898 486 OFFCURVE",
"899 494 OFFCURVE",
"899 502 CURVE SMOOTH",
"899 537 OFFCURVE",
"881 554 OFFCURVE",
"846 554 CURVE SMOOTH",
"798 554 OFFCURVE",
"763 515 OFFCURVE",
"762 466 CURVE",
"739 467 OFFCURVE",
"727 459 OFFCURVE",
"727 441 CURVE SMOOTH",
"727 436 OFFCURVE",
"731 422 OFFCURVE",
"740 399 CURVE",
"732 390 LINE",
"732 384 OFFCURVE",
"757 381 OFFCURVE",
"806 381 CURVE",
"814 356 OFFCURVE",
"816 324 OFFCURVE",
"856 324 CURVE SMOOTH",
"879 324 OFFCURVE",
"894 335 OFFCURVE",
"901 358 CURVE",
"898 317 OFFCURVE",
"899 284 OFFCURVE",
"904 257 CURVE",
"893 257 OFFCURVE",
"859 251 OFFCURVE",
"846 252 CURVE SMOOTH",
"840 252 LINE",
"818 275 OFFCURVE",
"805 288 OFFCURVE",
"802 291 CURVE SMOOTH",
"789 304 OFFCURVE",
"770 308 OFFCURVE",
"751 308 CURVE SMOOTH",
"719 308 OFFCURVE",
"696 299 OFFCURVE",
"681 280 CURVE",
"682 296 OFFCURVE",
"683 312 OFFCURVE",
"683 327 CURVE SMOOTH",
"683 392 OFFCURVE",
"670 449 OFFCURVE",
"643 498 CURVE"
);
},
{
closed = 1;
nodes = (
"553 160 OFFCURVE",
"553 176 OFFCURVE",
"553 188 CURVE",
"604 196 OFFCURVE",
"629 219 OFFCURVE",
"629 257 CURVE SMOOTH",
"629 332 LINE SMOOTH",
"629 346 OFFCURVE",
"625 359 OFFCURVE",
"618 371 CURVE",
"633 385 OFFCURVE",
"641 400 OFFCURVE",
"641 416 CURVE SMOOTH",
"641 418 LINE",
"654 383 OFFCURVE",
"660 344 OFFCURVE",
"660 300 CURVE SMOOTH",
"660 259 OFFCURVE",
"656 229 OFFCURVE",
"648 208 CURVE",
"645 205 OFFCURVE",
"643 203 OFFCURVE",
"640 202 CURVE SMOOTH",
"609 192 OFFCURVE",
"593 164 OFFCURVE",
"589 128 CURVE",
"577 116 OFFCURVE",
"564 105 OFFCURVE",
"550 94 CURVE",
"550 101 OFFCURVE",
"551 117 OFFCURVE",
"552 141 CURVE SMOOTH"
);
},
{
closed = 1;
nodes = (
"534 44 LINE SMOOTH",
"539 47 OFFCURVE",
"543 48 OFFCURVE",
"546 51 CURVE",
"563 61 OFFCURVE",
"578 73 OFFCURVE",
"591 86 CURVE",
"597 61 OFFCURVE",
"608 41 OFFCURVE",
"625 27 CURVE",
"605 28 OFFCURVE",
"549 36 OFFCURVE",
"525 36 CURVE SMOOTH",
"518 36 LINE"
);
}
);
width = 984;
}
);
note = OE;
unicode = 0152;
},
{
glyphname = P;
layers = (
{
hints = (
{
horizontal = 1;
place = "{-8, 21}";
target = up;
type = BottomGhost;
},
{
horizontal = 1;
place = "{174, 36}";
type = Stem;
},
{
horizontal = 1;
place = "{323, 24}";
type = Stem;
},
{
horizontal = 1;
place = "{578, 33}";
type = Stem;
},
{
place = "{18, 51}";
type = Stem;
},
{
place = "{237, 31}";
type = Stem;
},
{
place = "{328, 137}";
type = Stem;
},
{
place = "{543, 29}";
type = Stem;
},
{
horizontal = 1;
place = "{-24, 21}";
target = up;
type = BottomGhost;
},
{
place = "{17, 51}";
type = Stem;
},
{
place = "{236, 31}";
type = Stem;
},
{
place = "{327, 137}";
type = Stem;
},
{
place = "{542, 29}";
type = Stem;
},
{
horizontal = 1;
place = "{-15, 21}";
target = up;
type = BottomGhost;
},
{
place = "{225, 57}";
type = Stem;
},
{
horizontal = 1;
place = "{424, 45}";
type = Stem;
},
{
place = "{338, 54}";
type = Stem;
}
);
layerId = "F72AA8BB-7F63-4F07-AEAC-030E55A5CABB";
paths = (
{
closed = 1;
nodes = (
"20 529 OFFCURVE",
"23 439 OFFCURVE",
"26 319 CURVE SMOOTH",
"29 199 OFFCURVE",
"30 109 OFFCURVE",
"33 48 CURVE SMOOTH",
"35 0 OFFCURVE",
"39 -24 OFFCURVE",
"46 -24 CURVE SMOOTH",
"61 -24 OFFCURVE",
"100 -9 OFFCURVE",
"117 -8 CURVE SMOOTH",
"140 -7 OFFCURVE",
"219 -16 OFFCURVE",
"241 -15 CURVE SMOOTH",
"266 -14 OFFCURVE",
"279 -6 OFFCURVE",
"278 10 CURVE SMOOTH",
"278 19 OFFCURVE",
"271 42 OFFCURVE",
"271 53 CURVE SMOOTH",
"270 71 OFFCURVE",
"273 97 OFFCURVE",
"277 130 CURVE SMOOTH",
"281 163 OFFCURVE",
"283 185 OFFCURVE",
"283 196 CURVE SMOOTH",
"282 221 OFFCURVE",
"270 233 OFFCURVE",
"247 232 CURVE SMOOTH",
"232 231 OFFCURVE",
"225 225 OFFCURVE",
"226 214 CURVE",
"231 195 OFFCURVE",
"235 180 OFFCURVE",
"239 171 CURVE SMOOTH",
"220 210 OFFCURVE",
"191 229 OFFCURVE",
"151 227 CURVE SMOOTH",
"128 226 OFFCURVE",
"108 216 OFFCURVE",
"93 197 CURVE SMOOTH",
"76 176 OFFCURVE",
"66 165 OFFCURVE",
"63 164 CURVE",
"61 213 LINE SMOOTH",
"60 248 OFFCURVE",
"59 274 OFFCURVE",
"59 291 CURVE",
"66 292 OFFCURVE",
"73 293 OFFCURVE",
"80 294 CURVE SMOOTH",
"92 294 OFFCURVE",
"121 283 OFFCURVE",
"134 283 CURVE SMOOTH",
"174 286 OFFCURVE",
"212 321 OFFCURVE",
"210 360 CURVE SMOOTH",
"209 375 OFFCURVE",
"202 392 OFFCURVE",
"189 410 CURVE SMOOTH",
"176 428 OFFCURVE",
"167 443 OFFCURVE",
"167 454 CURVE SMOOTH",
"167 491 OFFCURVE",
"161 516 OFFCURVE",
"153 528 CURVE SMOOTH",
"141 547 OFFCURVE",
"116 556 OFFCURVE",
"79 552 CURVE SMOOTH",
"69 551 LINE",
"72 564 OFFCURVE",
"74 573 OFFCURVE",
"75 579 CURVE",
"82 578 OFFCURVE",
"90 578 OFFCURVE",
"99 578 CURVE SMOOTH",
"112 578 OFFCURVE",
"130 580 OFFCURVE",
"155 583 CURVE SMOOTH",
"182 586 OFFCURVE",
"201 588 OFFCURVE",
"210 589 CURVE",
"241 540 OFFCURVE",
"285 517 OFFCURVE",
"343 519 CURVE SMOOTH",
"356 520 OFFCURVE",
"384 527 OFFCURVE",
"396 528 CURVE SMOOTH",
"424 528 OFFCURVE",
"438 499 OFFCURVE",
"454 476 CURVE",
"467 464 OFFCURVE",
"484 458 OFFCURVE",
"507 459 CURVE SMOOTH",
"517 460 OFFCURVE",
"525 461 OFFCURVE",
"530 462 CURVE",
"538 441 OFFCURVE",
"542 420 OFFCURVE",
"543 399 CURVE SMOOTH",
"545 352 OFFCURVE",
"531 311 OFFCURVE",
"500 274 CURVE SMOOTH",
"469 237 OFFCURVE",
"431 216 OFFCURVE",
"385 212 CURVE SMOOTH",
"337 208 LINE SMOOTH",
"312 205 OFFCURVE",
"299 200 OFFCURVE",
"299 194 CURVE SMOOTH",
"299 186 OFFCURVE",
"319 174 OFFCURVE",
"327 174 CURVE SMOOTH",
"449 179 OFFCURVE",
"517 211 OFFCURVE",
"563 329 CURVE SMOOTH",
"570 347 OFFCURVE",
"573 365 OFFCURVE",
"572 384 CURVE SMOOTH",
"564 537 OFFCURVE",
"472 631 OFFCURVE",
"319 626 CURVE",
"261 621 OFFCURVE",
"218 616 OFFCURVE",
"189 611 CURVE",
"135 608 OFFCURVE",
"95 607 OFFCURVE",
"68 606 CURVE",
"61 614 OFFCURVE",
"50 618 OFFCURVE",
"36 617 CURVE SMOOTH",
"23 616 OFFCURVE",
"17 607 OFFCURVE",
"18 589 CURVE SMOOTH"
);
},
{
closed = 1;
nodes = (
"217 436 OFFCURVE",
"222 430 OFFCURVE",
"232 427 CURVE",
"234 427 LINE",
"237 414 LINE",
"237 383 LINE SMOOTH",
"238 369 OFFCURVE",
"241 360 OFFCURVE",
"248 356 CURVE",
"257 379 OFFCURVE",
"263 401 OFFCURVE",
"268 424 CURVE",
"314 425 OFFCURVE",
"338 414 OFFCURVE",
"339 390 CURVE SMOOTH",
"339 369 OFFCURVE",
"319 345 OFFCURVE",
"296 345 CURVE",
"295 344 OFFCURVE",
"260 347 OFFCURVE",
"248 347 CURVE SMOOTH",
"238 346 OFFCURVE",
"233 345 OFFCURVE",
"233 342 CURVE SMOOTH",
"234 328 OFFCURVE",
"252 322 OFFCURVE",
"288 323 CURVE SMOOTH",
"305 323 OFFCURVE",
"318 326 OFFCURVE",
"328 331 CURVE",
"327 314 OFFCURVE",
"326 302 OFFCURVE",
"324 294 CURVE",
"325 262 OFFCURVE",
"354 242 OFFCURVE",
"387 243 CURVE SMOOTH",
"432 244 OFFCURVE",
"467 273 OFFCURVE",
"465 318 CURVE SMOOTH",
"464 343 OFFCURVE",
"452 361 OFFCURVE",
"429 371 CURVE SMOOTH",
"405 381 OFFCURVE",
"393 392 OFFCURVE",
"393 404 CURVE SMOOTH",
"392 434 OFFCURVE",
"379 448 OFFCURVE",
"354 445 CURVE SMOOTH",
"349 445 LINE",
"344 448 OFFCURVE",
"326 453 OFFCURVE",
"294 460 CURVE SMOOTH",
"262 467 OFFCURVE",
"243 470 OFFCURVE",
"237 469 CURVE SMOOTH",
"228 469 OFFCURVE",
"216 452 OFFCURVE",
"217 443 CURVE SMOOTH"
);
}
);
width = 576;
}
);
note = P;
unicode = 0050;
},
{
glyphname = Thorn;
lastChange = "2021-11-10 06:24:12 +0000";
layers = (
{
hints = (
{
horizontal = 1;
place = "{-8, 21}";
target = up;
type = BottomGhost;
},
{
horizontal = 1;
place = "{174, 36}";
type = Stem;
},
{
horizontal = 1;
place = "{323, 24}";
type = Stem;
},
{
horizontal = 1;
place = "{578, 33}";
type = Stem;
},
{
place = "{18, 51}";
type = Stem;
},
{
place = "{237, 31}";
type = Stem;
},
{
place = "{328, 137}";
type = Stem;
},
{
place = "{543, 29}";
type = Stem;
},
{
horizontal = 1;
place = "{-24, 21}";
target = up;
type = BottomGhost;
},
{
place = "{17, 51}";
type = Stem;
},
{
place = "{236, 31}";
type = Stem;
},
{
place = "{327, 137}";
type = Stem;
},
{
place = "{542, 29}";
type = Stem;
},
{
horizontal = 1;
place = "{-15, 21}";
target = up;
type = BottomGhost;
},
{
place = "{225, 57}";
type = Stem;
},
{
horizontal = 1;
place = "{424, 45}";
type = Stem;
},
{
place = "{338, 54}";
type = Stem;
}
);
layerId = "F72AA8BB-7F63-4F07-AEAC-030E55A5CABB";
paths = (
{
closed = 1;
nodes = (
"21 486 OFFCURVE",
"23 398 OFFCURVE",
"26 278 CURVE SMOOTH",
"29 158 OFFCURVE",
"32 112 OFFCURVE",
"35 51 CURVE SMOOTH",
"37 3 OFFCURVE",
"41 -21 OFFCURVE",
"48 -21 CURVE SMOOTH",
"63 -21 OFFCURVE",
"102 -6 OFFCURVE",
"119 -5 CURVE SMOOTH",
"142 -4 OFFCURVE",
"221 -13 OFFCURVE",
"243 -12 CURVE SMOOTH",
"268 -11 OFFCURVE",
"280 -3 OFFCURVE",
"280 13 CURVE SMOOTH",
"280 40 OFFCURVE",
"269 68 OFFCURVE",
"277 89 CURVE SMOOTH",
"290 122 OFFCURVE",
"283 144 OFFCURVE",
"283 155 CURVE SMOOTH",
"282 180 OFFCURVE",
"270 192 OFFCURVE",
"247 191 CURVE SMOOTH",
"232 190 OFFCURVE",
"225 184 OFFCURVE",
"226 173 CURVE",
"231 154 OFFCURVE",
"235 139 OFFCURVE",
"239 130 CURVE SMOOTH",
"220 169 OFFCURVE",
"191 188 OFFCURVE",
"151 186 CURVE SMOOTH",
"128 185 OFFCURVE",
"108 175 OFFCURVE",
"93 156 CURVE SMOOTH",
"76 135 OFFCURVE",
"66 124 OFFCURVE",
"63 123 CURVE",
"61 172 LINE SMOOTH",
"60 207 OFFCURVE",
"59 233 OFFCURVE",
"59 250 CURVE",
"66 251 OFFCURVE",
"73 252 OFFCURVE",
"80 253 CURVE SMOOTH",
"92 253 OFFCURVE",
"121 242 OFFCURVE",
"134 242 CURVE SMOOTH",
"174 245 OFFCURVE",
"212 280 OFFCURVE",
"210 319 CURVE SMOOTH",
"209 334 OFFCURVE",
"202 351 OFFCURVE",
"189 369 CURVE SMOOTH",
"176 387 OFFCURVE",
"167 402 OFFCURVE",
"167 413 CURVE SMOOTH",
"167 450 OFFCURVE",
"161 475 OFFCURVE",
"153 487 CURVE SMOOTH",
"141 506 OFFCURVE",
"116 515 OFFCURVE",
"79 511 CURVE SMOOTH",
"69 510 LINE",
"72 523 OFFCURVE",
"65 570 OFFCURVE",
"66 576 CURVE",
"45 642 OFFCURVE",
"73 641 OFFCURVE",
"111 621 CURVE",
"123 619 OFFCURVE",
"157 682 OFFCURVE",
"175 665 CURVE SMOOTH",
"180 660 OFFCURVE",
"170 522 OFFCURVE",
"175 517 CURVE SMOOTH",
"192 500 OFFCURVE",
"206 548 OFFCURVE",
"210 548 CURVE",
"241 499 OFFCURVE",
"285 476 OFFCURVE",
"343 478 CURVE SMOOTH",
"356 479 OFFCURVE",
"384 486 OFFCURVE",
"396 487 CURVE SMOOTH",
"424 487 OFFCURVE",
"438 458 OFFCURVE",
"454 435 CURVE",
"467 423 OFFCURVE",
"484 417 OFFCURVE",
"507 418 CURVE SMOOTH",
"517 419 OFFCURVE",
"525 420 OFFCURVE",
"530 421 CURVE",
"538 400 OFFCURVE",
"542 379 OFFCURVE",
"543 358 CURVE SMOOTH",
"545 311 OFFCURVE",
"531 270 OFFCURVE",
"500 233 CURVE SMOOTH",
"469 196 OFFCURVE",
"431 175 OFFCURVE",
"385 171 CURVE SMOOTH",
"337 167 LINE SMOOTH",
"312 165 OFFCURVE",
"299 159 OFFCURVE",
"299 153 CURVE SMOOTH",
"299 145 OFFCURVE",
"319 133 OFFCURVE",
"327 133 CURVE SMOOTH",
"449 138 OFFCURVE",
"517 170 OFFCURVE",
"563 288 CURVE SMOOTH",
"570 306 OFFCURVE",
"573 324 OFFCURVE",
"572 343 CURVE SMOOTH",
"564 496 OFFCURVE",
"472 590 OFFCURVE",
"319 585 CURVE",
"279 582 OFFCURVE",
"246 578 OFFCURVE",
"220 575 CURVE",
"220 638 OFFCURVE",
"219 702 OFFCURVE",
"210 700 CURVE",
"173 716 OFFCURVE",
"59 711 OFFCURVE",
"13 700 CURVE",
"1 625 OFFCURVE",
"16 585 OFFCURVE",
"18 548 CURVE SMOOTH"
);
},
{
closed = 1;
nodes = (
"217 395 OFFCURVE",
"222 389 OFFCURVE",
"232 386 CURVE",
"234 386 LINE",
"237 373 LINE",
"237 342 LINE SMOOTH",
"237 328 OFFCURVE",
"241 319 OFFCURVE",
"248 315 CURVE",
"257 338 OFFCURVE",
"263 360 OFFCURVE",
"268 383 CURVE",
"314 384 OFFCURVE",
"338 373 OFFCURVE",
"339 349 CURVE SMOOTH",
"339 328 OFFCURVE",
"319 304 OFFCURVE",
"296 304 CURVE",
"295 303 OFFCURVE",
"260 306 OFFCURVE",
"248 306 CURVE SMOOTH",
"238 305 OFFCURVE",
"233 304 OFFCURVE",
"233 301 CURVE SMOOTH",
"234 287 OFFCURVE",
"252 281 OFFCURVE",
"288 282 CURVE SMOOTH",
"305 282 OFFCURVE",
"318 285 OFFCURVE",
"328 290 CURVE",
"327 273 OFFCURVE",
"326 261 OFFCURVE",
"324 253 CURVE",
"325 221 OFFCURVE",
"354 201 OFFCURVE",
"387 202 CURVE SMOOTH",
"432 203 OFFCURVE",
"467 232 OFFCURVE",
"465 277 CURVE SMOOTH",
"464 302 OFFCURVE",
"452 320 OFFCURVE",
"429 330 CURVE SMOOTH",
"405 340 OFFCURVE",
"393 351 OFFCURVE",
"393 363 CURVE SMOOTH",
"392 393 OFFCURVE",
"379 404 OFFCURVE",
"354 404 CURVE SMOOTH",
"349 404 LINE",
"344 407 OFFCURVE",
"326 412 OFFCURVE",
"294 419 CURVE SMOOTH",
"262 426 OFFCURVE",
"243 429 OFFCURVE",
"237 428 CURVE SMOOTH",
"228 428 OFFCURVE",
"216 411 OFFCURVE",
"217 402 CURVE SMOOTH"
);
}
);
width = 576;
}
);
unicode = 00DE;
},
{
glyphname = Q;
layers = (
{
hints = (
{
horizontal = 1;
place = "{-46, 49}";
type = Stem;
},
{
horizontal = 1;
place = "{6, 38}";
type = Stem;
},
{
horizontal = 1;
place = "{310, 31}";
type = Stem;
},
{
horizontal = 1;
place = "{420, 28}";
type = Stem;
},
{
horizontal = 1;
place = "{489, 157}";
type = Stem;
},
{
place = "{17, 20}";
type = Stem;
},
{
place = "{261, 23}";
type = Stem;
},
{
place = "{525, 25}";
type = Stem;
},
{
place = "{648, 50}";
type = Stem;
},
{
place = "{31, 18}";
type = Stem;
},
{
horizontal = 1;
place = "{28, 60}";
type = Stem;
}
);
layerId = "F72AA8BB-7F63-4F07-AEAC-030E55A5CABB";
paths = (
{
closed = 1;
nodes = (
"17 334 OFFCURVE",
"19 327 OFFCURVE",
"24 322 CURVE",
"28 322 OFFCURVE",
"32 329 OFFCURVE",
"35 344 CURVE SMOOTH",
"39 372 LINE",
"49 376 OFFCURVE",
"59 378 OFFCURVE",
"68 378 CURVE SMOOTH",
"81 378 OFFCURVE",
"98 373 OFFCURVE",
"119 362 CURVE SMOOTH",
"140 351 OFFCURVE",
"158 346 OFFCURVE",
"171 346 CURVE SMOOTH",
"204 346 OFFCURVE",
"227 358 OFFCURVE",
"238 383 CURVE",
"245 406 OFFCURVE",
"251 429 OFFCURVE",
"258 453 CURVE SMOOTH",
"265 477 OFFCURVE",
"280 489 OFFCURVE",
"305 489 CURVE SMOOTH",
"373 489 OFFCURVE",
"463 516 OFFCURVE",
"473 594 CURVE",
"552 569 OFFCURVE",
"568 560 OFFCURVE",
"614 491 CURVE",
"586 482 OFFCURVE",
"566 474 OFFCURVE",
"553 467 CURVE",
"522 464 OFFCURVE",
"490 468 OFFCURVE",
"466 437 CURVE",
"451 444 OFFCURVE",
"432 448 OFFCURVE",
"409 448 CURVE SMOOTH",
"390 448 OFFCURVE",
"373 446 OFFCURVE",
"360 441 CURVE",
"329 445 OFFCURVE",
"305 433 OFFCURVE",
"286 406 CURVE SMOOTH",
"270 383 OFFCURVE",
"261 355 OFFCURVE",
"261 324 CURVE SMOOTH",
"261 290 OFFCURVE",
"269 261 OFFCURVE",
"284 236 CURVE",
"268 237 OFFCURVE",
"222 252 OFFCURVE",
"202 252 CURVE SMOOTH",
"146 252 OFFCURVE",
"112 219 OFFCURVE",
"99 152 CURVE",
"66 195 OFFCURVE",
"49 231 OFFCURVE",
"49 260 CURVE SMOOTH",
"49 279 OFFCURVE",
"47 291 OFFCURVE",
"43 298 CURVE",
"35 297 OFFCURVE",
"31 285 OFFCURVE",
"31 260 CURVE SMOOTH",
"31 89 OFFCURVE",
"231 6 OFFCURVE",
"377 6 CURVE SMOOTH",
"400 6 OFFCURVE",
"473 28 OFFCURVE",
"494 28 CURVE SMOOTH",
"498 28 OFFCURVE",
"507 16 OFFCURVE",
"522 -9 CURVE SMOOTH",
"536 -33 OFFCURVE",
"547 -46 OFFCURVE",
"555 -46 CURVE SMOOTH",
"581 -46 OFFCURVE",
"738 36 OFFCURVE",
"738 50 CURVE SMOOTH",
"738 78 OFFCURVE",
"665 132 OFFCURVE",
"640 143 CURVE",
"679 204 OFFCURVE",
"698 266 OFFCURVE",
"698 327 CURVE SMOOTH",
"698 438 OFFCURVE",
"668 517 OFFCURVE",
"608 562 CURVE SMOOTH",
"541 613 OFFCURVE",
"425 646 OFFCURVE",
"341 646 CURVE SMOOTH",
"280 646 OFFCURVE",
"182 625 OFFCURVE",
"136 583 CURVE SMOOTH",
"73 526 OFFCURVE",
"17 428 OFFCURVE",
"17 341 CURVE SMOOTH"
);
},
{
closed = 1;
nodes = (
"388 279 LINE SMOOTH",
"434 299 OFFCURVE",
"458 310 OFFCURVE",
"460 310 CURVE SMOOTH",
"466 310 OFFCURVE",
"477 299 OFFCURVE",
"492 276 CURVE SMOOTH",
"509 251 OFFCURVE",
"520 238 OFFCURVE",
"525 236 CURVE",
"533 236 OFFCURVE",
"542 248 OFFCURVE",
"542 256 CURVE SMOOTH",
"542 259 OFFCURVE",
"540 262 OFFCURVE",
"537 267 CURVE",
"546 284 OFFCURVE",
"551 303 OFFCURVE",
"550 324 CURVE SMOOTH",
"550 334 LINE",
"587 334 OFFCURVE",
"610 326 OFFCURVE",
"622 314 CURVE SMOOTH",
"625 311 OFFCURVE",
"634 288 OFFCURVE",
"648 247 CURVE",
"643 221 OFFCURVE",
"632 197 OFFCURVE",
"613 176 CURVE SMOOTH",
"593 154 OFFCURVE",
"584 141 OFFCURVE",
"584 137 CURVE SMOOTH",
"584 128 OFFCURVE",
"591 122 OFFCURVE",
"605 117 CURVE",
"612 117 OFFCURVE",
"619 121 OFFCURVE",
"627 128 CURVE",
"659 90 LINE SMOOTH",
"671 75 OFFCURVE",
"683 64 OFFCURVE",
"694 55 CURVE",
"691 52 OFFCURVE",
"688 50 OFFCURVE",
"687 50 CURVE",
"666 39 OFFCURVE",
"580 3 OFFCURVE",
"560 3 CURVE SMOOTH",
"546 3 OFFCURVE",
"539 15 OFFCURVE",
"539 38 CURVE SMOOTH",
"539 59 OFFCURVE",
"538 72 OFFCURVE",
"535 77 CURVE SMOOTH",
"531 84 OFFCURVE",
"518 88 OFFCURVE",
"497 88 CURVE SMOOTH",
"480 88 OFFCURVE",
"460 82 OFFCURVE",
"437 71 CURVE SMOOTH",
"404 55 OFFCURVE",
"385 46 OFFCURVE",
"380 44 CURVE",
"387 71 OFFCURVE",
"400 90 OFFCURVE",
"419 100 CURVE SMOOTH",
"465 120 LINE",
"480 129 OFFCURVE",
"487 147 OFFCURVE",
"487 174 CURVE SMOOTH",
"487 225 OFFCURVE",
"451 266 OFFCURVE",
"402 266 CURVE SMOOTH",
"394 266 OFFCURVE",
"386 265 OFFCURVE",
"379 263 CURVE",
"376 265 OFFCURVE",
"374 268 OFFCURVE",
"374 273 CURVE"
);
},
{
closed = 1;
nodes = (
"284 353 OFFCURVE",
"298 384 OFFCURVE",
"325 407 CURVE",
"322 399 OFFCURVE",
"323 395 OFFCURVE",
"327 395 CURVE SMOOTH",
"325 395 OFFCURVE",
"334 399 OFFCURVE",
"355 408 CURVE SMOOTH",
"375 416 OFFCURVE",
"392 420 OFFCURVE",
"407 420 CURVE SMOOTH",
"470 420 OFFCURVE",
"525 375 OFFCURVE",
"525 312 CURVE SMOOTH",
"525 305 OFFCURVE",
"523 297 OFFCURVE",
"520 286 CURVE",
"498 307 OFFCURVE",
"485 324 OFFCURVE",
"480 337 CURVE",
"472 341 LINE",
"454 341 OFFCURVE",
"345 294 OFFCURVE",
"345 283 CURVE SMOOTH",
"345 281 OFFCURVE",
"351 267 OFFCURVE",
"364 241 CURVE SMOOTH",
"388 193 LINE",
"326 213 OFFCURVE",
"284 245 OFFCURVE",
"284 315 CURVE SMOOTH"
);
}
);
width = 742;
}
);
note = Q;
unicode = 0051;
},
{
glyphname = R;
layers = (
{
hints = (
{
horizontal = 1;
place = "{-2, 49}";
type = Stem;
},
{
horizontal = 1;
place = "{-16, 21}";
target = up;
type = BottomGhost;
},
{
horizontal = 1;
place = "{-12, 21}";
target = up;
type = BottomGhost;
},
{
horizontal = 1;
place = "{335, 26}";
type = Stem;
},
{
horizontal = 1;
place = "{437, 36}";
type = Stem;
},
{
place = "{3, 35}";
type = Stem;
},
{
place = "{225, 28}";
type = Stem;
},
{
place = "{426, 145}";
type = Stem;
},
{
horizontal = 1;
place = "{-8, 28}";
type = Stem;
},
{
place = "{2, 35}";
type = Stem;
},
{
place = "{223, 45}";
type = Stem;
},
{
place = "{425, 145}";
type = Stem;
},
{
place = "{232, 32}";
type = Stem;
},
{
place = "{224, 28}";
type = Stem;
}
);
layerId = "F72AA8BB-7F63-4F07-AEAC-030E55A5CABB";
paths = (
{
closed = 1;
nodes = (
"112 2 OFFCURVE",
"149 -1 OFFCURVE",
"186 -2 CURVE SMOOTH",
"218 -3 OFFCURVE",
"231 -4 OFFCURVE",
"225 -4 CURVE SMOOTH",
"243 -4 OFFCURVE",
"253 0 OFFCURVE",
"253 9 CURVE SMOOTH",
"253 32 OFFCURVE",
"249 87 OFFCURVE",
"250 110 CURVE SMOOTH",
"251 128 OFFCURVE",
"268 193 OFFCURVE",
"269 210 CURVE SMOOTH",
"270 233 OFFCURVE",
"262 245 OFFCURVE",
"243 246 CURVE SMOOTH",
"226 247 OFFCURVE",
"217 239 OFFCURVE",
"216 223 CURVE SMOOTH",
"215 203 OFFCURVE",
"225 136 OFFCURVE",
"224 115 CURVE",
"213 122 OFFCURVE",
"202 125 OFFCURVE",
"191 125 CURVE SMOOTH",
"172 126 OFFCURVE",
"152 123 OFFCURVE",
"130 117 CURVE SMOOTH",
"102 109 OFFCURVE",
"88 99 OFFCURVE",
"87 84 CURVE SMOOTH",
"86 68 OFFCURVE",
"96 54 OFFCURVE",
"116 43 CURVE",
"52 47 LINE SMOOTH",
"43 47 OFFCURVE",
"38 51 OFFCURVE",
"38 58 CURVE SMOOTH",
"43 115 OFFCURVE",
"47 159 OFFCURVE",
"50 188 CURVE",
"61 186 OFFCURVE",
"71 185 OFFCURVE",
"82 185 CURVE SMOOTH",
"142 185 OFFCURVE",
"190 218 OFFCURVE",
"194 279 CURVE SMOOTH",
"195 293 OFFCURVE",
"190 310 OFFCURVE",
"181 330 CURVE SMOOTH",
"172 351 OFFCURVE",
"167 365 OFFCURVE",
"167 375 CURVE SMOOTH",
"167 408 OFFCURVE",
"205 414 OFFCURVE",
"233 423 CURVE",
"235 405 OFFCURVE",
"237 387 OFFCURVE",
"238 369 CURVE SMOOTH",
"241 347 OFFCURVE",
"251 336 OFFCURVE",
"267 335 CURVE SMOOTH",
"291 334 OFFCURVE",
"307 333 OFFCURVE",
"315 335 CURVE SMOOTH",
"330 339 OFFCURVE",
"342 348 OFFCURVE",
"351 363 CURVE",
"360 368 OFFCURVE",
"365 376 OFFCURVE",
"364 388 CURVE",
"369 397 OFFCURVE",
"371 406 OFFCURVE",
"371 414 CURVE SMOOTH",
"372 430 OFFCURVE",
"368 438 OFFCURVE",
"361 438 CURVE SMOOTH",
"358 438 LINE",
"345 459 OFFCURVE",
"319 471 OFFCURVE",
"278 473 CURVE",
"290 496 OFFCURVE",
"315 512 OFFCURVE",
"353 522 CURVE SMOOTH",
"396 533 OFFCURVE",
"426 548 OFFCURVE",
"443 569 CURVE",
"472 556 OFFCURVE",
"493 539 OFFCURVE",
"506 520 CURVE",
"501 507 OFFCURVE",
"485 492 OFFCURVE",
"460 474 CURVE SMOOTH",
"439 459 OFFCURVE",
"427 439 OFFCURVE",
"426 412 CURVE SMOOTH",
"425 382 OFFCURVE",
"434 362 OFFCURVE",
"455 351 CURVE SMOOTH",
"459 349 OFFCURVE",
"482 343 OFFCURVE",
"524 333 CURVE",
"507 302 OFFCURVE",
"478 279 OFFCURVE",
"437 266 CURVE",
"431 277 OFFCURVE",
"425 282 OFFCURVE",
"420 282 CURVE SMOOTH",
"416 282 LINE",
"405 297 OFFCURVE",
"392 304 OFFCURVE",
"378 305 CURVE SMOOTH",
"337 308 OFFCURVE",
"308 277 OFFCURVE",
"305 234 CURVE SMOOTH",
"304 219 OFFCURVE",
"307 206 OFFCURVE",
"314 195 CURVE SMOOTH",
"326 176 OFFCURVE",
"332 165 OFFCURVE",
"333 163 CURVE SMOOTH",
"345 139 OFFCURVE",
"349 111 OFFCURVE",
"356 85 CURVE",
"368 61 OFFCURVE",
"394 48 OFFCURVE",
"435 46 CURVE SMOOTH",
"456 45 OFFCURVE",
"468 44 OFFCURVE",
"471 43 CURVE SMOOTH",
"482 39 OFFCURVE",
"492 32 OFFCURVE",
"500 19 CURVE",
"470 20 LINE SMOOTH",
"406 22 OFFCURVE",
"368 25 OFFCURVE",
"355 30 CURVE SMOOTH",
"341 35 OFFCURVE",
"332 48 OFFCURVE",
"326 70 CURVE SMOOTH",
"317 103 OFFCURVE",
"302 135 OFFCURVE",
"281 165 CURVE",
"273 161 LINE",
"268 152 LINE",
"268 146 OFFCURVE",
"275 122 OFFCURVE",
"289 80 CURVE SMOOTH",
"302 41 OFFCURVE",
"313 15 OFFCURVE",
"317 3 CURVE SMOOTH",
"320 -6 OFFCURVE",
"328 -11 OFFCURVE",
"339 -12 CURVE SMOOTH",
"352 -12 OFFCURVE",
"385 -7 OFFCURVE",
"398 -8 CURVE SMOOTH",
"505 -13 OFFCURVE",
"566 -15 OFFCURVE",
"582 -14 CURVE",
"585 -15 OFFCURVE",
"588 -16 OFFCURVE",
"591 -16 CURVE SMOOTH",
"606 -16 OFFCURVE",
"614 -7 OFFCURVE",
"615 11 CURVE SMOOTH",
"617 40 OFFCURVE",
"486 204 OFFCURVE",
"458 237 CURVE",
"529 256 OFFCURVE",
"568 318 OFFCURVE",
"571 389 CURVE SMOOTH",
"574 470 OFFCURVE",
"549 530 OFFCURVE",
"494 571 CURVE SMOOTH",
"451 603 OFFCURVE",
"385 616 OFFCURVE",
"300 633 CURVE SMOOTH",
"295 634 OFFCURVE",
"225 637 OFFCURVE",
"90 645 CURVE SMOOTH",
"73 646 OFFCURVE",
"61 644 OFFCURVE",
"56 642 CURVE SMOOTH",
"47 638 OFFCURVE",
"42 628 OFFCURVE",
"41 612 CURVE SMOOTH",
"39 576 OFFCURVE",
"37 522 OFFCURVE",
"35 449 CURVE SMOOTH",
"32 356 OFFCURVE",
"29 264 OFFCURVE",
"16 172 CURVE SMOOTH",
"9 121 OFFCURVE",
"4 82 OFFCURVE",
"3 57 CURVE SMOOTH",
"2 28 OFFCURVE",
"26 10 OFFCURVE",
"75 3 CURVE"
);
},
{
closed = 1;
nodes = (
"268 434 OFFCURVE",
"270 437 OFFCURVE",
"275 437 CURVE SMOOTH",
"312 437 OFFCURVE",
"324 436 OFFCURVE",
"339 400 CURVE",
"331 373 OFFCURVE",
"314 359 OFFCURVE",
"288 361 CURVE SMOOTH",
"273 362 OFFCURVE",
"265 371 OFFCURVE",
"265 389 CURVE SMOOTH",
"265 397 OFFCURVE",
"267 418 OFFCURVE",
"267 425 CURVE SMOOTH"
);
}
);
width = 623;
}
);
note = R;
unicode = 0052;
},
{
glyphname = S;
layers = (
{
hints = (
{
horizontal = 1;
place = "{-9, 144}";
type = Stem;
},
{
horizontal = 1;
place = "{447, 30}";
type = Stem;
},
{
place = "{38, 30}";
type = Stem;
},
{
place = "{292, 22}";
type = Stem;
},
{
place = "{419, 125}";
type = Stem;
},
{
place = "{13, 45}";
type = Stem;
},
{
place = "{255, 33}";
type = Stem;
},
{
horizontal = 1;
place = "{601, 43}";
type = Stem;
},
{
place = "{407, 121}";
type = Stem;
},
{
horizontal = 1;
place = "{-9, 92}";
type = Stem;
},
{
horizontal = 1;
place = "{-9, 98}";
type = Stem;
},
{
horizontal = 1;
place = "{155, 24}";
type = Stem;
},
{
place = "{73, 31}";
type = Stem;
}
);
layerId = "F72AA8BB-7F63-4F07-AEAC-030E55A5CABB";
paths = (
{
closed = 1;
nodes = (
"13 64 OFFCURVE",
"14 59 OFFCURVE",
"16 54 CURVE SMOOTH",
"31 16 OFFCURVE",
"235 -9 OFFCURVE",
"279 -9 CURVE SMOOTH",
"422 -9 OFFCURVE",
"544 70 OFFCURVE",
"544 224 CURVE SMOOTH",
"544 308 OFFCURVE",
"506 346 OFFCURVE",
"432 376 CURVE",
"398 387 OFFCURVE",
"364 398 OFFCURVE",
"331 410 CURVE SMOOTH",
"302 421 OFFCURVE",
"288 429 OFFCURVE",
"288 435 CURVE SMOOTH",
"288 443 OFFCURVE",
"304 447 OFFCURVE",
"337 447 CURVE SMOOTH",
"368 447 OFFCURVE",
"395 441 OFFCURVE",
"419 429 CURVE",
"423 412 OFFCURVE",
"432 404 OFFCURVE",
"445 404 CURVE SMOOTH",
"457 404 OFFCURVE",
"464 412 OFFCURVE",
"467 429 CURVE SMOOTH",
"473 464 OFFCURVE",
"481 492 OFFCURVE",
"494 514 CURVE",
"494 515 OFFCURVE",
"502 524 OFFCURVE",
"514 541 CURVE SMOOTH",
"523 554 OFFCURVE",
"528 563 OFFCURVE",
"528 569 CURVE SMOOTH",
"528 606 OFFCURVE",
"343 644 OFFCURVE",
"306 644 CURVE SMOOTH",
"166 644 OFFCURVE",
"38 549 OFFCURVE",
"38 401 CURVE SMOOTH",
"38 305 OFFCURVE",
"129 233 OFFCURVE",
"221 233 CURVE SMOOTH",
"235 233 OFFCURVE",
"242 235 OFFCURVE",
"242 239 CURVE SMOOTH",
"242 240 OFFCURVE",
"240 242 OFFCURVE",
"237 243 CURVE SMOOTH",
"223 248 OFFCURVE",
"180 257 OFFCURVE",
"164 266 CURVE SMOOTH",
"107 298 OFFCURVE",
"68 325 OFFCURVE",
"68 398 CURVE SMOOTH",
"68 406 OFFCURVE",
"69 414 OFFCURVE",
"70 423 CURVE",
"88 402 OFFCURVE",
"110 392 OFFCURVE",
"136 392 CURVE SMOOTH",
"170 392 OFFCURVE",
"211 407 OFFCURVE",
"215 446 CURVE SMOOTH",
"218 472 OFFCURVE",
"220 488 OFFCURVE",
"223 493 CURVE SMOOTH",
"231 506 OFFCURVE",
"252 521 OFFCURVE",
"288 536 CURVE SMOOTH",
"322 550 OFFCURVE",
"345 572 OFFCURVE",
"356 601 CURVE",
"380 599 OFFCURVE",
"404 595 OFFCURVE",
"427 588 CURVE",
"414 571 OFFCURVE",
"407 556 OFFCURVE",
"407 541 CURVE SMOOTH",
"407 516 OFFCURVE",
"419 495 OFFCURVE",
"444 478 CURVE",
"433 464 OFFCURVE",
"425 453 OFFCURVE",
"422 445 CURVE",
"393 466 OFFCURVE",
"361 477 OFFCURVE",
"326 477 CURVE SMOOTH",
"279 477 OFFCURVE",
"255 460 OFFCURVE",
"255 427 CURVE SMOOTH",
"255 419 OFFCURVE",
"258 410 OFFCURVE",
"263 399 CURVE",
"253 386 LINE",
"248 367 OFFCURVE",
"239 353 OFFCURVE",
"224 343 CURVE SMOOTH",
"208 333 OFFCURVE",
"201 321 OFFCURVE",
"201 308 CURVE SMOOTH",
"201 280 OFFCURVE",
"221 258 OFFCURVE",
"249 258 CURVE SMOOTH",
"262 258 OFFCURVE",
"273 266 OFFCURVE",
"284 283 CURVE SMOOTH",
"295 300 OFFCURVE",
"306 308 OFFCURVE",
"317 308 CURVE SMOOTH",
"326 308 OFFCURVE",
"353 300 OFFCURVE",
"364 300 CURVE SMOOTH",
"396 300 OFFCURVE",
"421 319 OFFCURVE",
"421 351 CURVE",
"447 341 OFFCURVE",
"466 327 OFFCURVE",
"477 310 CURVE",
"438 292 OFFCURVE",
"419 265 OFFCURVE",
"419 228 CURVE SMOOTH",
"419 217 OFFCURVE",
"421 192 OFFCURVE",
"421 183 CURVE SMOOTH",
"421 151 OFFCURVE",
"405 135 OFFCURVE",
"373 135 CURVE SMOOTH",
"333 135 OFFCURVE",
"302 126 OFFCURVE",
"281 109 CURVE SMOOTH",
"259 92 OFFCURVE",
"238 83 OFFCURVE",
"217 83 CURVE SMOOTH",
"204 83 OFFCURVE",
"170 89 OFFCURVE",
"155 89 CURVE SMOOTH",
"122 89 OFFCURVE",
"94 79 OFFCURVE",
"71 58 CURVE",
"62 61 OFFCURVE",
"58 68 OFFCURVE",
"58 77 CURVE SMOOTH",
"58 88 OFFCURVE",
"64 109 OFFCURVE",
"77 142 CURVE SMOOTH",
"94 184 OFFCURVE",
"103 207 OFFCURVE",
"104 210 CURVE",
"158 173 OFFCURVE",
"206 155 OFFCURVE",
"248 155 CURVE SMOOTH",
"276 155 OFFCURVE",
"314 177 OFFCURVE",
"314 204 CURVE SMOOTH",
"314 219 OFFCURVE",
"298 238 OFFCURVE",
"283 238 CURVE SMOOTH",
"272 238 OFFCURVE",
"266 236 OFFCURVE",
"266 231 CURVE SMOOTH",
"266 228 OFFCURVE",
"292 219 OFFCURVE",
"292 204 CURVE SMOOTH",
"292 187 OFFCURVE",
"276 179 OFFCURVE",
"243 179 CURVE SMOOTH",
"196 179 OFFCURVE",
"152 204 OFFCURVE",
"119 235 CURVE SMOOTH",
"105 248 OFFCURVE",
"96 254 OFFCURVE",
"92 254 CURVE SMOOTH",
"80 254 OFFCURVE",
"67 240 OFFCURVE",
"67 228 CURVE SMOOTH",
"67 221 OFFCURVE",
"73 206 OFFCURVE",
"73 201 CURVE SMOOTH",
"73 184 OFFCURVE",
"63 159 OFFCURVE",
"43 124 CURVE SMOOTH",
"23 88 OFFCURVE",
"13 70 OFFCURVE",
"13 68 CURVE SMOOTH"
);
}
);
width = 565;
}
);
note = S;
unicode = 0053;
},
{
glyphname = Germandbls;
lastChange = "2021-09-29 04:55:54 +0000";
layers = (
{
hints = (
{
horizontal = 1;
place = "{-201.158, 24.616}";
type = Stem;
},
{
horizontal = 1;
place = "{-15.308, 254.775}";
type = Stem;
},
{
horizontal = 1;
place = "{458.549, 27.078}";
type = Stem;
},
{
horizontal = 1;
place = "{612.399, 20.924}";
type = Stem;
},
{
place = "{42.356, 24.616}";
type = Stem;
},
{
place = "{244.376, 20.924}";
type = Stem;
},
{
place = "{267.597, 24.616}";
type = Stem;
},
{
place = "{381.378, 123.08}";
type = Stem;
},
{
place = "{576.433, 24.616}";
type = Stem;
},
{
place = "{606.619, 18.462}";
type = Stem;
},
{
place = "{403.438, 24.616}";
type = Stem;
}
);
layerId = "F72AA8BB-7F63-4F07-AEAC-030E55A5CABB";
paths = (
{
closed = 1;
nodes = (
"-10.527 -197.414 OFFCURVE",
"10.974 -204.568 OFFCURVE",
"51.61 -201.726 CURVE SMOOTH",
"67.865 -200.59 OFFCURVE",
"83.947 -196.991 OFFCURVE",
"100.674 -185.927 CURVE SMOOTH",
"115.165 -176.256 OFFCURVE",
"129.742 -167.816 OFFCURVE",
"144.233 -158.145 CURVE",
"203.789 -125.534 OFFCURVE",
"266.397 -86.525 OFFCURVE",
"264.372 -7.51 CURVE SMOOTH",
"264.07 13.494 OFFCURVE",
"262.607 34.418 OFFCURVE",
"263.466 55.504 CURVE SMOOTH",
"265.356 95.214 OFFCURVE",
"268.407 135.006 OFFCURVE",
"270.297 174.716 CURVE SMOOTH",
"272.918 220.661 OFFCURVE",
"272.486 260.209 OFFCURVE",
"270.162 293.441 CURVE SMOOTH",
"266.805 341.442 OFFCURVE",
"261.041 390.511 OFFCURVE",
"252.954 439.418 CURVE",
"260.479 448.602 OFFCURVE",
"264.606 456.312 OFFCURVE",
"264.176 462.466 CURVE",
"271.615 472.88 OFFCURVE",
"304.854 481.389 OFFCURVE",
"318.959 479.902 CURVE SMOOTH",
"338.955 477.589 OFFCURVE",
"349.362 462.238 OFFCURVE",
"351.255 435.161 CURVE SMOOTH",
"353.235 406.853 OFFCURVE",
"346.227 390.284 OFFCURVE",
"329.241 382.912 CURVE SMOOTH",
"305.462 372.592 OFFCURVE",
"295.229 352.087 OFFCURVE",
"297.553 318.855 CURVE SMOOTH",
"299.532 290.547 OFFCURVE",
"312.261 275.359 OFFCURVE",
"336.084 268.367 CURVE SMOOTH",
"356.338 262.362 OFFCURVE",
"370.787 255.952 OFFCURVE",
"378.27 249.054 CURVE SMOOTH",
"389.494 238.708 OFFCURVE",
"390.527 223.938 OFFCURVE",
"383.776 203.677 CURVE SMOOTH",
"378.015 185.959 OFFCURVE",
"327.704 171.309 OFFCURVE",
"310.289 170.091 CURVE SMOOTH",
"305.644 169.767 OFFCURVE",
"301.476 112.582 OFFCURVE",
"304.488 69.504 CURVE SMOOTH",
"307.07 32.58 OFFCURVE",
"313.092 13.212 OFFCURVE",
"322.552 11.4 CURVE SMOOTH",
"342.634 7.857 OFFCURVE",
"363.705 6.857 OFFCURVE",
"386.925 8.48 CURVE SMOOTH",
"439.172 12.134 OFFCURVE",
"486 26.54 OFFCURVE",
"527.409 51.698 CURVE SMOOTH",
"595.65 93.574 OFFCURVE",
"615.084 149.353 OFFCURVE",
"609.576 228.124 CURVE SMOOTH",
"605.961 279.818 OFFCURVE",
"574.352 348.106 OFFCURVE",
"527.35 369.555 CURVE",
"530.575 373.491 OFFCURVE",
"555.858 412.364 OFFCURVE",
"555.513 417.287 CURVE",
"564.5 438.941 OFFCURVE",
"568.497 465.194 OFFCURVE",
"566.346 495.964 CURVE SMOOTH",
"563.506 536.58 OFFCURVE",
"543.12 594.522 OFFCURVE",
"503.515 610.304 CURVE",
"434.71 659.913 OFFCURVE",
"358.984 658.328 OFFCURVE",
"278.873 652.726 CURVE SMOOTH",
"212.694 648.098 OFFCURVE",
"175.799 641.808 OFFCURVE",
"118.007 600.662 CURVE SMOOTH",
"65.762 563.615 OFFCURVE",
"42.027 535.982 OFFCURVE",
"34.419 461.241 CURVE",
"33.43 458.699 OFFCURVE",
"31.28 456.075 OFFCURVE",
"31.538 452.382 CURVE SMOOTH",
"41.006 316.995 OFFCURVE",
"28.93 172.68 OFFCURVE",
"39.774 17.599 CURVE SMOOTH",
"41.667 -9.478 OFFCURVE",
"40.894 -31.795 OFFCURVE",
"38.616 -49.27 CURVE SMOOTH",
"30.406 -115.395 LINE SMOOTH",
"27.225 -136.643 OFFCURVE",
"25.85 -150.345 OFFCURVE",
"23.872 -155.43 CURVE",
"21.636 -156.823 LINE",
"-1.499 -159.678 OFFCURVE",
"-12.592 -167.874 OFFCURVE",
"-11.732 -180.182 CURVE SMOOTH"
);
},
{
closed = 1;
nodes = (
"224.183 500.484 OFFCURVE",
"237.985 520.001 OFFCURVE",
"259.442 530.16 CURVE",
"260.603 530.241 OFFCURVE",
"272.128 532.283 OFFCURVE",
"295.09 537.6 CURVE SMOOTH",
"334.135 546.514 OFFCURVE",
"348.368 559.877 OFFCURVE",
"359.46 601.468 CURVE SMOOTH",
"363.158 615.331 OFFCURVE",
"363.544 626.49 OFFCURVE",
"360.447 637.405 CURVE",
"444.989 629.711 OFFCURVE",
"535.723 600.188 OFFCURVE",
"543.125 494.34 CURVE SMOOTH",
"545.793 456.185 OFFCURVE",
"537.582 423.454 OFFCURVE",
"518.662 393.684 CURVE",
"508.729 385.569 OFFCURVE",
"502.107 380.158 OFFCURVE",
"497.722 376.141 CURVE",
"473.34 374.436 OFFCURVE",
"463.407 366.321 OFFCURVE",
"466.848 350.483 CURVE SMOOTH",
"470.117 337.106 OFFCURVE",
"484.565 330.696 OFFCURVE",
"509.033 331.17 CURVE SMOOTH",
"532.34 331.563 OFFCURVE",
"549.283 322.853 OFFCURVE",
"558.701 304.96 CURVE SMOOTH",
"581.537 262.031 OFFCURVE",
"592.977 231.911 OFFCURVE",
"592.935 215.829 CURVE SMOOTH",
"593.151 196.055 OFFCURVE",
"587.734 173.414 OFFCURVE",
"574.362 147.742 CURVE",
"563.654 150.704 OFFCURVE",
"555.097 156.29 OFFCURVE",
"549.936 163.35 CURVE",
"542.84 181.406 OFFCURVE",
"538.41 194.701 OFFCURVE",
"536.561 204.466 CURVE SMOOTH",
"531.184 231.3 OFFCURVE",
"515.961 248.788 OFFCURVE",
"494.287 258.404 CURVE SMOOTH",
"464.229 271.143 OFFCURVE",
"434.945 272.806 OFFCURVE",
"408.843 262.323 CURVE",
"399.597 277.755 OFFCURVE",
"391.77 289.576 OFFCURVE",
"384.029 300.166 CURVE",
"394.135 305.82 OFFCURVE",
"405.142 315.248 OFFCURVE",
"415.892 328.367 CURVE SMOOTH",
"429.867 345.423 OFFCURVE",
"432.145 362.898 OFFCURVE",
"428.446 382.428 CURVE SMOOTH",
"421.306 417.797 OFFCURVE",
"444.268 423.113 OFFCURVE",
"457.426 435.164 CURVE SMOOTH",
"466.198 443.198 OFFCURVE",
"467.832 453.207 OFFCURVE",
"465.81 465.434 CURVE SMOOTH",
"463.616 480.122 OFFCURVE",
"455.875 490.712 OFFCURVE",
"442.501 498.435 CURVE SMOOTH",
"426.719 507.226 OFFCURVE",
"411.454 508.632 OFFCURVE",
"396.791 501.423 CURVE SMOOTH",
"382.128 494.213 OFFCURVE",
"372.281 484.867 OFFCURVE",
"366.089 473.303 CURVE SMOOTH",
"365.014 471.991 OFFCURVE",
"365.1 470.76 OFFCURVE",
"365.186 469.529 CURVE",
"353.918 497.188 OFFCURVE",
"337.878 509.671 OFFCURVE",
"317.066 506.979 CURVE SMOOTH",
"270.796 501.27 OFFCURVE",
"246.2 485.945 OFFCURVE",
"241.686 467.077 CURVE",
"238.203 466.834 LINE",
"233.387 468.97 OFFCURVE",
"226.334 469.714 OFFCURVE",
"218.121 470.377 CURVE"
);
},
{
closed = 1;
nodes = (
"42.579 -172.674 OFFCURVE",
"48.856 -162.341 OFFCURVE",
"51.393 -148.558 CURVE SMOOTH",
"51.307 -147.328 OFFCURVE",
"51.607 -134.938 OFFCURVE",
"53.455 -111.31 CURVE",
"64.419 -84.57 OFFCURVE",
"67.212 -41.086 OFFCURVE",
"62.995 19.223 CURVE SMOOTH",
"58.261 86.917 OFFCURVE",
"54.688 154.692 OFFCURVE",
"53.266 225.091 CURVE",
"83.497 209.889 OFFCURVE",
"109.642 203.06 OFFCURVE",
"132.863 204.684 CURVE SMOOTH",
"176.982 207.769 OFFCURVE",
"208.586 239.662 OFFCURVE",
"228.923 299.215 CURVE",
"240.706 297.565 OFFCURVE",
"246.683 295.509 OFFCURVE",
"246.941 291.817 CURVE SMOOTH",
"249.265 258.585 OFFCURVE",
"250.772 220.349 OFFCURVE",
"246.99 174.323 CURVE SMOOTH",
"243.939 134.531 OFFCURVE",
"242.049 94.821 OFFCURVE",
"240.073 56.342 CURVE",
"222.055 63.739 OFFCURVE",
"204.381 66.214 OFFCURVE",
"188.127 65.077 CURVE SMOOTH",
"133.558 61.262 OFFCURVE",
"103.417 8.445 OFFCURVE",
"107.892 -55.557 CURVE SMOOTH",
"109.871 -83.865 OFFCURVE",
"118.817 -111.686 OFFCURVE",
"133.396 -136.64 CURVE",
"93.148 -161.717 LINE SMOOTH",
"77.496 -171.469 OFFCURVE",
"62.661 -176.217 OFFCURVE",
"49.889 -177.11 CURVE SMOOTH",
"45.245 -177.435 OFFCURVE",
"40.601 -177.76 OFFCURVE",
"34.71 -176.935 CURVE"
);
}
);
width = 613;
}
);
unicode = 1E9E;
},
{
glyphname = Schwa;
lastChange = "2021-09-29 06:11:00 +0000";
layers = (
{
hints = (
{
horizontal = 1;
place = "{665.094, -55.012}";
type = Stem;
},
{
horizontal = 1;
place = "{502.449, -46.641}";
type = Stem;
},
{
horizontal = 1;
place = "{335.019, -22.723}";
type = Stem;
},
{
horizontal = 1;
place = "{268.048, -37.074}";
type = Stem;
},
{
horizontal = 1;
place = "{193.901, -37.074}";
type = Stem;
},
{
horizontal = 1;
place = "{15.708, -37.074}";
type = Stem;
},
{
place = "{603.399, -37.074}";
type = Stem;
},
{
place = "{461.772, -84.91}";
type = Stem;
},
{
place = "{117.305, -101.653}";
type = Stem;
},
{
place = "{60.894, -76.539}";
type = Stem;
}
);
layerId = "F72AA8BB-7F63-4F07-AEAC-030E55A5CABB";
paths = (
{
closed = 1;
nodes = (
"619 504 OFFCURVE",
"497 665 OFFCURVE",
"311 665 CURVE SMOOTH",
"231 665 OFFCURVE",
"161 638 OFFCURVE",
"103 584 CURVE SMOOTH",
"55 540 OFFCURVE",
"31 496 OFFCURVE",
"31 457 CURVE SMOOTH",
"31 440 OFFCURVE",
"37 432 OFFCURVE",
"50 431 CURVE SMOOTH",
"70 427 OFFCURVE",
"98 414 OFFCURVE",
"118 413 CURVE SMOOTH",
"167 406 OFFCURVE",
"203 400 OFFCURVE",
"228 395 CURVE SMOOTH",
"234 394 OFFCURVE",
"245 404 OFFCURVE",
"259 427 CURVE SMOOTH",
"274 450 OFFCURVE",
"294 459 OFFCURVE",
"322 456 CURVE SMOOTH",
"375 452 OFFCURVE",
"399 412 OFFCURVE",
"393 335 CURVE",
"301 339 OFFCURVE",
"249 340 OFFCURVE",
"235 341 CURVE SMOOTH",
"222 342 OFFCURVE",
"151 349 OFFCURVE",
"23 367 CURVE SMOOTH",
"-2 371 OFFCURVE",
"0 336 OFFCURVE",
"0 311 CURVE SMOOTH",
"0 142 OFFCURVE",
"103 -6 OFFCURVE",
"281 -21 CURVE SMOOTH",
"364 -29 OFFCURVE",
"439 -1 OFFCURVE",
"507 66 CURVE SMOOTH",
"582 141 OFFCURVE",
"619 229 OFFCURVE",
"619 328 CURVE SMOOTH"
);
},
{
closed = 1;
nodes = (
"465 241 OFFCURVE",
"427 249 OFFCURVE",
"393 261 CURVE",
"225 275 LINE SMOOTH",
"205 276 OFFCURVE",
"180 247 OFFCURVE",
"180 219 CURVE SMOOTH",
"180 197 OFFCURVE",
"196 182 OFFCURVE",
"226 170 CURVE SMOOTH",
"250 160 OFFCURVE",
"274 156 OFFCURVE",
"298 157 CURVE SMOOTH",
"324 157 OFFCURVE",
"358 135 OFFCURVE",
"358 107 CURVE SMOOTH",
"358 101 OFFCURVE",
"357 96 OFFCURVE",
"355 90 CURVE",
"333 55 OFFCURVE",
"312 13 OFFCURVE",
"283 16 CURVE SMOOTH",
"226 20 OFFCURVE",
"162 58 OFFCURVE",
"139 98 CURVE SMOOTH",
"135 107 OFFCURVE",
"133 119 OFFCURVE",
"136 133 CURVE SMOOTH",
"139 154 OFFCURVE",
"141 166 OFFCURVE",
"141 169 CURVE SMOOTH",
"141 189 OFFCURVE",
"120 215 OFFCURVE",
"82 254 CURVE SMOOTH",
"78 257 OFFCURVE",
"77 261 OFFCURVE",
"77 266 CURVE SMOOTH",
"77 286 OFFCURVE",
"121 316 OFFCURVE",
"145 312 CURVE SMOOTH",
"246 297 OFFCURVE",
"334 294 OFFCURVE",
"408 297 CURVE",
"421 296 OFFCURVE",
"436 310 OFFCURVE",
"453 342 CURVE SMOOTH",
"469 374 OFFCURVE",
"478 406 OFFCURVE",
"478 437 CURVE SMOOTH",
"478 481 OFFCURVE",
"461 502 OFFCURVE",
"429 502 CURVE SMOOTH",
"414 502 OFFCURVE",
"335 493 OFFCURVE",
"325 494 CURVE SMOOTH",
"276 500 OFFCURVE",
"241 477 OFFCURVE",
"219 433 CURVE",
"209 434 OFFCURVE",
"133 445 OFFCURVE",
"133 458 CURVE SMOOTH",
"133 462 OFFCURVE",
"156 469 OFFCURVE",
"203 480 CURVE SMOOTH",
"286 499 OFFCURVE",
"312 510 OFFCURVE",
"357 580 CURVE SMOOTH",
"370 601 OFFCURVE",
"382 610 OFFCURVE",
"395 610 CURVE SMOOTH",
"406 610 OFFCURVE",
"419 605 OFFCURVE",
"435 597 CURVE SMOOTH",
"525 548 OFFCURVE",
"582 444 OFFCURVE",
"582 329 CURVE SMOOTH",
"582 272 OFFCURVE",
"570 241 OFFCURVE",
"502 241 CURVE SMOOTH"
);
},
{
closed = 1;
nodes = (
"273 193 OFFCURVE",
"256 207 OFFCURVE",
"247 236 CURVE",
"359 226 LINE",
"343 205 OFFCURVE",
"323 194 OFFCURVE",
"298 194 CURVE SMOOTH"
);
}
);
width = 629;
}
);
unicode = 018F;
},
{
glyphname = T;
layers = (
{
hints = (
{
horizontal = 1;
place = "{6, 44}";
type = Stem;
},
{
horizontal = 1;
place = "{426, 39}";
type = Stem;
},
{
horizontal = 1;
place = "{504, 141}";
type = Stem;
},
{
place = "{43, 31}";
type = Stem;
},
{
place = "{146, 30}";
type = Stem;
},
{
place = "{360, 19}";
type = Stem;
},
{
place = "{42, 31}";
type = Stem;
},
{
place = "{145, 30}";
type = Stem;
},
{
place = "{364, 22}";
type = Stem;
},
{
place = "{359, 19}";
type = Stem;
}
);
layerId = "F72AA8BB-7F63-4F07-AEAC-030E55A5CABB";
paths = (
{
closed = 1;
nodes = (
"89 429 OFFCURVE",
"128 432 OFFCURVE",
"163 435 CURVE",
"150 411 OFFCURVE",
"147 382 OFFCURVE",
"146 355 CURVE SMOOTH",
"145 324 OFFCURVE",
"142 277 OFFCURVE",
"137 215 CURVE SMOOTH",
"132 153 OFFCURVE",
"128 106 OFFCURVE",
"127 75 CURVE SMOOTH",
"126 62 OFFCURVE",
"125 53 OFFCURVE",
"125 49 CURVE SMOOTH",
"125 15 OFFCURVE",
"143 13 OFFCURVE",
"171 12 CURVE SMOOTH",
"246 9 OFFCURVE",
"289 6 OFFCURVE",
"299 6 CURVE SMOOTH",
"353 6 OFFCURVE",
"380 11 OFFCURVE",
"381 22 CURVE SMOOTH",
"383 43 OFFCURVE",
"378 98 OFFCURVE",
"379 121 CURVE SMOOTH",
"379 122 OFFCURVE",
"379 131 OFFCURVE",
"381 150 CURVE SMOOTH",
"383 167 OFFCURVE",
"384 180 OFFCURVE",
"384 190 CURVE SMOOTH",
"384 207 OFFCURVE",
"382 217 OFFCURVE",
"377 221 CURVE",
"368 221 OFFCURVE",
"360 176 OFFCURVE",
"360 167 CURVE SMOOTH",
"357 108 OFFCURVE",
"355 77 OFFCURVE",
"353 72 CURVE SMOOTH",
"347 57 OFFCURVE",
"331 50 OFFCURVE",
"303 50 CURVE SMOOTH",
"295 50 OFFCURVE",
"284 50 OFFCURVE",
"271 51 CURVE",
"301 75 OFFCURVE",
"317 104 OFFCURVE",
"319 137 CURVE SMOOTH",
"320 152 OFFCURVE",
"306 185 OFFCURVE",
"308 198 CURVE SMOOTH",
"309 205 OFFCURVE",
"310 212 OFFCURVE",
"311 219 CURVE SMOOTH",
"312 227 OFFCURVE",
"312 234 OFFCURVE",
"309 241 CURVE SMOOTH",
"301 260 OFFCURVE",
"289 276 OFFCURVE",
"270 287 CURVE SMOOTH",
"247 300 OFFCURVE",
"232 311 OFFCURVE",
"227 318 CURVE SMOOTH",
"206 347 OFFCURVE",
"188 363 OFFCURVE",
"176 369 CURVE",
"179 398 OFFCURVE",
"182 420 OFFCURVE",
"184 435 CURVE",
"193 435 OFFCURVE",
"198 436 OFFCURVE",
"201 439 CURVE",
"200 458 OFFCURVE",
"192 468 OFFCURVE",
"178 469 CURVE SMOOTH",
"160 470 OFFCURVE",
"92 465 OFFCURVE",
"74 465 CURVE",
"68 466 OFFCURVE",
"65 468 OFFCURVE",
"65 473 CURVE SMOOTH",
"65 481 OFFCURVE",
"74 503 OFFCURVE",
"74 512 CURVE SMOOTH",
"74 540 LINE",
"105 517 OFFCURVE",
"135 505 OFFCURVE",
"164 504 CURVE SMOOTH",
"188 503 OFFCURVE",
"202 501 OFFCURVE",
"207 500 CURVE SMOOTH",
"224 497 OFFCURVE",
"233 486 OFFCURVE",
"234 470 CURVE SMOOTH",
"237 414 OFFCURVE",
"246 360 OFFCURVE",
"313 355 CURVE SMOOTH",
"326 354 OFFCURVE",
"345 359 OFFCURVE",
"370 370 CURVE",
"370 346 LINE",
"367 326 OFFCURVE",
"365 304 OFFCURVE",
"365 284 CURVE SMOOTH",
"365 269 OFFCURVE",
"367 261 OFFCURVE",
"371 261 CURVE SMOOTH",
"381 260 OFFCURVE",
"386 269 OFFCURVE",
"387 287 CURVE SMOOTH",
"387 313 OFFCURVE",
"387 339 OFFCURVE",
"388 364 CURVE SMOOTH",
"390 403 OFFCURVE",
"397 422 OFFCURVE",
"410 421 CURVE SMOOTH",
"430 419 OFFCURVE",
"478 406 OFFCURVE",
"498 405 CURVE SMOOTH",
"515 404 OFFCURVE",
"524 414 OFFCURVE",
"525 433 CURVE SMOOTH",
"534 601 LINE SMOOTH",
"536 630 OFFCURVE",
"523 645 OFFCURVE",
"498 646 CURVE SMOOTH",
"476 647 OFFCURVE",
"443 647 OFFCURVE",
"398 645 CURVE SMOOTH",
"353 643 OFFCURVE",
"320 643 OFFCURVE",
"297 644 CURVE SMOOTH",
"272 645 OFFCURVE",
"234 650 OFFCURVE",
"183 658 CURVE SMOOTH",
"131 666 OFFCURVE",
"93 670 OFFCURVE",
"68 672 CURVE SMOOTH",
"54 673 OFFCURVE",
"46 666 OFFCURVE",
"43 652 CURVE",
"35 575 OFFCURVE",
"31 512 OFFCURVE",
"29 465 CURVE SMOOTH",
"28 440 OFFCURVE",
"33 427 OFFCURVE",
"46 426 CURVE"
);
}
);
width = 544;
}
);
note = T;
unicode = 0054;
},
{
glyphname = U;
layers = (
{
hints = (
{
horizontal = 1;
place = "{-8, 40}";
type = Stem;
},
{
horizontal = 1;
place = "{606, 41}";
type = Stem;
},
{
place = "{10, 39}";
type = Stem;
},
{
place = "{236, 33}";
type = Stem;
},
{
place = "{381, 28}";
type = Stem;
},
{
place = "{589, 22}";
type = Stem;
},
{
horizontal = 1;
place = "{-8, 21}";
target = up;
type = BottomGhost;
},
{
horizontal = 1;
place = "{579, 37}";
type = Stem;
},
{
place = "{9, 39}";
type = Stem;
},
{
place = "{235, 33}";
type = Stem;
},
{
place = "{361, 25}";
type = Stem;
},
{
place = "{588, 22}";
type = Stem;
},
{
place = "{380, 28}";
type = Stem;
}
);
layerId = "F72AA8BB-7F63-4F07-AEAC-030E55A5CABB";
paths = (
{
closed = 1;
nodes = (
"16 536 OFFCURVE",
"21 498 OFFCURVE",
"25 472 CURVE",
"30 391 OFFCURVE",
"35 311 OFFCURVE",
"40 231 CURVE SMOOTH",
"49 148 OFFCURVE",
"72 88 OFFCURVE",
"110 52 CURVE SMOOTH",
"157 7 OFFCURVE",
"234 -14 OFFCURVE",
"339 -8 CURVE SMOOTH",
"388 -5 OFFCURVE",
"515 16 OFFCURVE",
"539 62 CURVE",
"590 82 OFFCURVE",
"616 139 OFFCURVE",
"616 232 CURVE SMOOTH",
"616 244 OFFCURVE",
"615 269 OFFCURVE",
"613 306 CURVE SMOOTH",
"609 396 LINE SMOOTH",
"604 464 OFFCURVE",
"598 515 OFFCURVE",
"596 549 CURVE SMOOTH",
"595 569 OFFCURVE",
"604 613 OFFCURVE",
"604 629 CURVE SMOOTH",
"603 640 OFFCURVE",
"597 645 OFFCURVE",
"585 646 CURVE SMOOTH",
"538 650 OFFCURVE",
"477 652 OFFCURVE",
"402 647 CURVE SMOOTH",
"369 645 OFFCURVE",
"354 620 OFFCURVE",
"357 571 CURVE SMOOTH",
"368 360 LINE SMOOTH",
"369 337 OFFCURVE",
"380 283 OFFCURVE",
"381 260 CURVE SMOOTH",
"382 233 OFFCURVE",
"368 206 OFFCURVE",
"343 205 CURVE SMOOTH",
"317 204 OFFCURVE",
"297 210 OFFCURVE",
"287 226 CURVE SMOOTH",
"279 239 OFFCURVE",
"274 259 OFFCURVE",
"272 286 CURVE SMOOTH",
"271 301 OFFCURVE",
"270 309 OFFCURVE",
"268 310 CURVE",
"261 309 OFFCURVE",
"260 295 OFFCURVE",
"261 268 CURVE SMOOTH",
"262 241 OFFCURVE",
"265 221 OFFCURVE",
"270 206 CURVE",
"264 185 OFFCURVE",
"249 170 OFFCURVE",
"226 163 CURVE SMOOTH",
"207 157 OFFCURVE",
"187 151 OFFCURVE",
"167 145 CURVE",
"147 134 OFFCURVE",
"136 113 OFFCURVE",
"135 83 CURVE",
"101 115 OFFCURVE",
"79 162 OFFCURVE",
"68 223 CURVE",
"89 215 OFFCURVE",
"110 212 OFFCURVE",
"133 213 CURVE SMOOTH",
"174 215 OFFCURVE",
"195 231 OFFCURVE",
"193 261 CURVE SMOOTH",
"192 280 OFFCURVE",
"168 320 OFFCURVE",
"167 340 CURVE SMOOTH",
"166 363 OFFCURVE",
"175 385 OFFCURVE",
"196 405 CURVE SMOOTH",
"216 424 OFFCURVE",
"225 446 OFFCURVE",
"224 471 CURVE SMOOTH",
"222 515 OFFCURVE",
"192 541 OFFCURVE",
"149 540 CURVE SMOOTH",
"115 539 OFFCURVE",
"94 541 OFFCURVE",
"87 547 CURVE SMOOTH",
"72 560 OFFCURVE",
"60 567 OFFCURVE",
"50 570 CURVE",
"48 579 LINE",
"99 584 OFFCURVE",
"138 586 OFFCURVE",
"164 589 CURVE SMOOTH",
"173 590 OFFCURVE",
"185 589 OFFCURVE",
"200 587 CURVE SMOOTH",
"217 585 OFFCURVE",
"229 584 OFFCURVE",
"236 584 CURVE",
"235 575 OFFCURVE",
"238 544 OFFCURVE",
"246 489 CURVE SMOOTH",
"254 437 OFFCURVE",
"260 405 OFFCURVE",
"265 393 CURVE",
"270 394 OFFCURVE",
"272 421 OFFCURVE",
"268 472 CURVE SMOOTH",
"267 484 OFFCURVE",
"267 502 OFFCURVE",
"268 526 CURVE SMOOTH",
"269 550 OFFCURVE",
"269 568 OFFCURVE",
"269 579 CURVE",
"267 586 LINE",
"278 588 OFFCURVE",
"283 592 OFFCURVE",
"282 599 CURVE SMOOTH",
"280 615 OFFCURVE",
"261 633 OFFCURVE",
"245 633 CURVE SMOOTH",
"227 632 OFFCURVE",
"157 617 OFFCURVE",
"136 616 CURVE SMOOTH",
"113 615 OFFCURVE",
"60 617 OFFCURVE",
"39 616 CURVE SMOOTH",
"19 615 OFFCURVE",
"9 605 OFFCURVE",
"10 586 CURVE SMOOTH"
);
},
{
closed = 1;
nodes = (
"384 601 OFFCURVE",
"389 605 OFFCURVE",
"398 606 CURVE SMOOTH",
"421 606 OFFCURVE",
"439 606 OFFCURVE",
"451 605 CURVE",
"451 600 LINE SMOOTH",
"453 584 OFFCURVE",
"448 562 OFFCURVE",
"437 535 CURVE SMOOTH",
"426 507 OFFCURVE",
"419 487 OFFCURVE",
"420 472 CURVE SMOOTH",
"423 421 OFFCURVE",
"460 382 OFFCURVE",
"509 385 CURVE SMOOTH",
"518 385 OFFCURVE",
"539 394 OFFCURVE",
"547 394 CURVE SMOOTH",
"560 394 OFFCURVE",
"572 383 OFFCURVE",
"583 375 CURVE",
"587 295 OFFCURVE",
"589 250 OFFCURVE",
"589 239 CURVE SMOOTH",
"589 158 OFFCURVE",
"578 110 OFFCURVE",
"555 94 CURVE",
"560 108 OFFCURVE",
"563 121 OFFCURVE",
"562 132 CURVE",
"557 128 OFFCURVE",
"554 124 OFFCURVE",
"552 121 CURVE SMOOTH",
"541 104 OFFCURVE",
"526 90 OFFCURVE",
"509 78 CURVE",
"474 72 OFFCURVE",
"456 65 OFFCURVE",
"456 57 CURVE",
"457 55 OFFCURVE",
"459 53 OFFCURVE",
"463 52 CURVE",
"440 43 OFFCURVE",
"415 36 OFFCURVE",
"389 32 CURVE",
"389 31 OFFCURVE",
"388 46 OFFCURVE",
"387 77 CURVE SMOOTH",
"386 107 OFFCURVE",
"399 128 OFFCURVE",
"426 140 CURVE",
"452 148 OFFCURVE",
"478 156 OFFCURVE",
"503 164 CURVE SMOOTH",
"531 175 OFFCURVE",
"544 195 OFFCURVE",
"542 222 CURVE SMOOTH",
"541 258 OFFCURVE",
"498 291 OFFCURVE",
"462 290 CURVE SMOOTH",
"451 289 OFFCURVE",
"424 279 OFFCURVE",
"412 279 CURVE SMOOTH",
"409 279 LINE",
"402 320 OFFCURVE",
"396 352 OFFCURVE",
"393 373 CURVE",
"382 570 LINE SMOOTH",
"381 583 OFFCURVE",
"381 591 OFFCURVE",
"382 594 CURVE SMOOTH"
);
}
);
width = 641;
}
);
note = U;
unicode = 0055;
},
{
glyphname = V;
lastChange = "2021-11-10 22:29:06 +0000";
layers = (
{
hints = (
{
horizontal = 1;
place = "{-1, 64}";
type = Stem;
},
{
horizontal = 1;
place = "{592, 31}";
type = Stem;
},
{
place = "{11, 688}";
type = Stem;
},
{
horizontal = 1;
place = "{594, 56}";
type = Stem;
}
);
layerId = "F72AA8BB-7F63-4F07-AEAC-030E55A5CABB";
paths = (
{
closed = 1;
nodes = (
"99 360 OFFCURVE",
"112 321 OFFCURVE",
"127 270 CURVE SMOOTH",
"143 217 OFFCURVE",
"157 178 OFFCURVE",
"167 155 CURVE SMOOTH",
"176 134 OFFCURVE",
"187 124 OFFCURVE",
"199 123 CURVE SMOOTH",
"206 123 OFFCURVE",
"209 128 OFFCURVE",
"210 138 CURVE SMOOTH",
"210 150 OFFCURVE",
"205 168 OFFCURVE",
"196 191 CURVE",
"238 201 OFFCURVE",
"259 226 OFFCURVE",
"261 267 CURVE SMOOTH",
"262 290 OFFCURVE",
"251 317 OFFCURVE",
"230 349 CURVE SMOOTH",
"209 381 OFFCURVE",
"197 402 OFFCURVE",
"198 413 CURVE SMOOTH",
"198 425 OFFCURVE",
"209 450 OFFCURVE",
"209 462 CURVE SMOOTH",
"210 485 OFFCURVE",
"204 504 OFFCURVE",
"190 519 CURVE SMOOTH",
"182 528 OFFCURVE",
"166 539 OFFCURVE",
"143 554 CURVE SMOOTH",
"120 569 OFFCURVE",
"104 580 OFFCURVE",
"95 591 CURVE",
"119 590 OFFCURVE",
"177 594 OFFCURVE",
"201 594 CURVE SMOOTH",
"233 592 OFFCURVE",
"240 566 OFFCURVE",
"242 538 CURVE SMOOTH",
"246 512 OFFCURVE",
"257 473 OFFCURVE",
"273 421 CURVE SMOOTH",
"289 369 OFFCURVE",
"299 329 OFFCURVE",
"303 301 CURVE SMOOTH",
"312 239 OFFCURVE",
"321 208 OFFCURVE",
"332 207 CURVE SMOOTH",
"343 207 OFFCURVE",
"349 251 OFFCURVE",
"350 261 CURVE SMOOTH",
"350 271 OFFCURVE",
"349 282 OFFCURVE",
"348 295 CURVE",
"367 346 OFFCURVE",
"381 383 OFFCURVE",
"391 408 CURVE",
"407 385 OFFCURVE",
"429 372 OFFCURVE",
"458 371 CURVE SMOOTH",
"491 370 OFFCURVE",
"521 392 OFFCURVE",
"521 425 CURVE SMOOTH",
"522 436 OFFCURVE",
"518 454 OFFCURVE",
"508 478 CURVE SMOOTH",
"498 502 OFFCURVE",
"494 521 OFFCURVE",
"494 534 CURVE SMOOTH",
"494 561 OFFCURVE",
"507 581 OFFCURVE",
"532 594 CURVE",
"635 590 LINE",
"637 570 OFFCURVE",
"601 473 OFFCURVE",
"527 299 CURVE",
"514 301 OFFCURVE",
"503 302 OFFCURVE",
"492 302 CURVE SMOOTH",
"429 302 OFFCURVE",
"415 260 OFFCURVE",
"399 208 CURVE SMOOTH",
"390 177 OFFCURVE",
"374 158 OFFCURVE",
"366 142 CURVE SMOOTH",
"365 140 OFFCURVE",
"349 128 OFFCURVE",
"320 109 CURVE SMOOTH",
"305 99 OFFCURVE",
"295 81 OFFCURVE",
"290 54 CURVE",
"268 60 OFFCURVE",
"250 63 OFFCURVE",
"235 63 CURVE SMOOTH",
"213 64 OFFCURVE",
"202 55 OFFCURVE",
"201 34 CURVE SMOOTH",
"201 15 OFFCURVE",
"217 -1 OFFCURVE",
"234 -1 CURVE SMOOTH",
"246 -2 OFFCURVE",
"279 -1 OFFCURVE",
"333 0 CURVE SMOOTH",
"390 1 OFFCURVE",
"420 2 OFFCURVE",
"425 4 CURVE SMOOTH",
"429 6 OFFCURVE",
"434 12 OFFCURVE",
"438 25 CURVE SMOOTH",
"446 51 LINE SMOOTH",
"512 234 OFFCURVE",
"576 405 OFFCURVE",
"659 554 CURVE SMOOTH",
"664 563 OFFCURVE",
"670 573 OFFCURVE",
"676 583 CURVE SMOOTH",
"684 596 OFFCURVE",
"688 605 OFFCURVE",
"688 612 CURVE SMOOTH",
"689 619 OFFCURVE",
"683 623 OFFCURVE",
"672 623 CURVE SMOOTH",
"660 624 OFFCURVE",
"651 620 OFFCURVE",
"646 613 CURVE",
"556 621 OFFCURVE",
"493 624 OFFCURVE",
"456 623 CURVE SMOOTH",
"443 623 OFFCURVE",
"435 619 OFFCURVE",
"430 612 CURVE SMOOTH",
"427 608 OFFCURVE",
"425 599 OFFCURVE",
"420 584 CURVE SMOOTH",
"384 476 OFFCURVE",
"359 393 OFFCURVE",
"340 338 CURVE",
"309 451 OFFCURVE",
"287 535 OFFCURVE",
"272 592 CURVE SMOOTH",
"265 620 OFFCURVE",
"247 634 OFFCURVE",
"220 635 CURVE SMOOTH",
"203 636 OFFCURVE",
"177 638 OFFCURVE",
"143 643 CURVE SMOOTH",
"108 648 OFFCURVE",
"83 650 OFFCURVE",
"66 650 CURVE SMOOTH",
"23 652 OFFCURVE",
"1 639 OFFCURVE",
"0 612 CURVE SMOOTH",
"0 588 OFFCURVE",
"69 417 OFFCURVE",
"86 385 CURVE SMOOTH"
);
}
);
width = 663;
}
);
note = V;
unicode = 0056;
},
{
glyphname = W;
layers = (
{
hints = (
{
horizontal = 1;
place = "{-3, 41}";
type = Stem;
},
{
horizontal = 1;
place = "{-6, 21}";
target = up;
type = BottomGhost;
},
{
horizontal = 1;
place = "{581, 54}";
type = Stem;
},
{
place = "{295, 27}";
type = Stem;
},
{
place = "{398, 110}";
type = Stem;
},
{
place = "{771, 141}";
type = Stem;
},
{
horizontal = 1;
place = "{-15, 50}";
type = Stem;
},
{
horizontal = 1;
place = "{603, 35}";
type = Stem;
},
{
horizontal = 1;
place = "{578, 43}";
type = Stem;
}
);
layerId = "F72AA8BB-7F63-4F07-AEAC-030E55A5CABB";
paths = (
{
closed = 1;
nodes = (
"320 330 OFFCURVE",
"333 229 OFFCURVE",
"353 229 CURVE SMOOTH",
"378 230 OFFCURVE",
"391 241 OFFCURVE",
"390 262 CURVE SMOOTH",
"390 274 OFFCURVE",
"376 302 OFFCURVE",
"376 314 CURVE SMOOTH",
"376 313 OFFCURVE",
"380 332 OFFCURVE",
"388 373 CURVE",
"397 372 OFFCURVE",
"405 371 OFFCURVE",
"412 371 CURVE SMOOTH",
"458 371 OFFCURVE",
"472 385 OFFCURVE",
"479 428 CURVE SMOOTH",
"486 472 OFFCURVE",
"494 490 OFFCURVE",
"536 510 CURVE SMOOTH",
"567 525 OFFCURVE",
"585 534 OFFCURVE",
"591 539 CURVE",
"603 471 OFFCURVE",
"613 426 OFFCURVE",
"621 404 CURVE",
"603 387 OFFCURVE",
"594 365 OFFCURVE",
"595 339 CURVE SMOOTH",
"596 308 OFFCURVE",
"622 268 OFFCURVE",
"623 256 CURVE SMOOTH",
"623 239 OFFCURVE",
"609 198 OFFCURVE",
"610 181 CURVE SMOOTH",
"611 117 OFFCURVE",
"668 72 OFFCURVE",
"733 72 CURVE SMOOTH",
"748 73 OFFCURVE",
"762 75 OFFCURVE",
"777 80 CURVE",
"769 55 OFFCURVE",
"764 40 OFFCURVE",
"735 38 CURVE",
"691 39 OFFCURVE",
"658 41 OFFCURVE",
"636 43 CURVE SMOOTH",
"625 43 LINE SMOOTH",
"610 42 OFFCURVE",
"593 100 OFFCURVE",
"575 217 CURVE SMOOTH",
"557 333 OFFCURVE",
"540 391 OFFCURVE",
"525 391 CURVE SMOOTH",
"504 390 OFFCURVE",
"485 372 OFFCURVE",
"485 352 CURVE",
"496 315 OFFCURVE",
"508 286 OFFCURVE",
"519 263 CURVE",
"558 109 OFFCURVE",
"577 26 OFFCURVE",
"578 13 CURVE SMOOTH",
"579 0 OFFCURVE",
"590 -6 OFFCURVE",
"611 -6 CURVE SMOOTH",
"679 -5 OFFCURVE",
"715 -3 OFFCURVE",
"718 -3 CURVE SMOOTH",
"769 -3 OFFCURVE",
"799 12 OFFCURVE",
"806 31 CURVE SMOOTH",
"825 82 OFFCURVE",
"856 174 OFFCURVE",
"894 308 CURVE SMOOTH",
"928 427 OFFCURVE",
"961 518 OFFCURVE",
"989 581 CURVE SMOOTH",
"996 597 OFFCURVE",
"1000 608 OFFCURVE",
"1000 615 CURVE SMOOTH",
"999 628 OFFCURVE",
"987 636 OFFCURVE",
"962 637 CURVE SMOOTH",
"903 639 OFFCURVE",
"833 639 OFFCURVE",
"754 638 CURVE SMOOTH",
"731 638 OFFCURVE",
"717 618 OFFCURVE",
"713 578 CURVE SMOOTH",
"705 476 LINE",
"692 409 OFFCURVE",
"683 358 OFFCURVE",
"678 325 CURVE",
"670 353 OFFCURVE",
"659 398 OFFCURVE",
"648 460 CURVE SMOOTH",
"644 485 OFFCURVE",
"621 606 OFFCURVE",
"606 626 CURVE SMOOTH",
"599 635 OFFCURVE",
"589 639 OFFCURVE",
"576 639 CURVE SMOOTH",
"555 639 OFFCURVE",
"484 626 OFFCURVE",
"463 626 CURVE SMOOTH",
"444 625 OFFCURVE",
"432 625 OFFCURVE",
"427 623 CURVE SMOOTH",
"415 618 OFFCURVE",
"408 610 OFFCURVE",
"405 597 CURVE SMOOTH",
"392 541 OFFCURVE",
"382 498 OFFCURVE",
"375 468 CURVE SMOOTH",
"370 447 OFFCURVE",
"366 426 OFFCURVE",
"361 405 CURVE SMOOTH",
"353 372 OFFCURVE",
"347 353 OFFCURVE",
"344 349 CURVE",
"343 349 OFFCURVE",
"335 365 OFFCURVE",
"328 368 CURVE",
"322 368 OFFCURVE",
"319 362 OFFCURVE",
"319 349 CURVE SMOOTH"
);
},
{
closed = 1;
nodes = (
"54 518 OFFCURVE",
"63 501 OFFCURVE",
"66 493 CURVE SMOOTH",
"122 343 OFFCURVE",
"161 231 OFFCURVE",
"187 155 CURVE SMOOTH",
"190 146 OFFCURVE",
"197 125 OFFCURVE",
"211 90 CURVE SMOOTH",
"222 63 OFFCURVE",
"229 42 OFFCURVE",
"233 25 CURVE SMOOTH",
"239 -2 OFFCURVE",
"254 -15 OFFCURVE",
"277 -15 CURVE SMOOTH",
"413 -13 LINE SMOOTH",
"444 -13 OFFCURVE",
"464 0 OFFCURVE",
"472 25 CURVE SMOOTH",
"476 38 OFFCURVE",
"484 74 OFFCURVE",
"494 133 CURVE SMOOTH",
"504 192 OFFCURVE",
"509 227 OFFCURVE",
"508 240 CURVE SMOOTH",
"508 265 OFFCURVE",
"504 277 OFFCURVE",
"496 277 CURVE SMOOTH",
"493 277 OFFCURVE",
"487 266 OFFCURVE",
"482 243 CURVE SMOOTH",
"479 229 OFFCURVE",
"475 215 OFFCURVE",
"472 202 CURVE",
"460 211 OFFCURVE",
"446 225 OFFCURVE",
"434 225 CURVE SMOOTH",
"409 224 OFFCURVE",
"397 212 OFFCURVE",
"398 189 CURVE SMOOTH",
"398 164 OFFCURVE",
"420 93 OFFCURVE",
"443 82 CURVE",
"440 65 OFFCURVE",
"439 55 OFFCURVE",
"437 51 CURVE SMOOTH",
"432 40 OFFCURVE",
"425 35 OFFCURVE",
"414 35 CURVE SMOOTH",
"328 35 LINE",
"349 64 OFFCURVE",
"359 96 OFFCURVE",
"358 130 CURVE SMOOTH",
"358 157 OFFCURVE",
"346 181 OFFCURVE",
"323 203 CURVE SMOOTH",
"302 220 OFFCURVE",
"281 236 OFFCURVE",
"260 253 CURVE SMOOTH",
"237 273 OFFCURVE",
"226 295 OFFCURVE",
"225 318 CURVE SMOOTH",
"225 325 OFFCURVE",
"230 341 OFFCURVE",
"239 365 CURVE SMOOTH",
"248 388 OFFCURVE",
"251 408 OFFCURVE",
"251 423 CURVE SMOOTH",
"251 459 OFFCURVE",
"236 489 OFFCURVE",
"207 513 CURVE SMOOTH",
"178 537 OFFCURVE",
"146 548 OFFCURVE",
"111 544 CURVE SMOOTH",
"93 542 LINE",
"87 555 OFFCURVE",
"82 565 OFFCURVE",
"79 571 CURVE",
"79 575 OFFCURVE",
"80 577 OFFCURVE",
"82 578 CURVE",
"105 578 OFFCURVE",
"132 578 OFFCURVE",
"163 579 CURVE SMOOTH",
"207 580 OFFCURVE",
"234 581 OFFCURVE",
"245 581 CURVE SMOOTH",
"252 581 OFFCURVE",
"260 565 OFFCURVE",
"268 533 CURVE SMOOTH",
"276 501 OFFCURVE",
"284 485 OFFCURVE",
"292 485 CURVE SMOOTH",
"296 485 OFFCURVE",
"298 490 OFFCURVE",
"298 500 CURVE SMOOTH",
"298 520 OFFCURVE",
"278 582 OFFCURVE",
"278 601 CURVE SMOOTH",
"277 637 OFFCURVE",
"279 636 OFFCURVE",
"242 635 CURVE SMOOTH",
"221 635 OFFCURVE",
"190 633 OFFCURVE",
"148 628 CURVE SMOOTH",
"106 623 OFFCURVE",
"74 621 OFFCURVE",
"53 621 CURVE SMOOTH",
"29 620 OFFCURVE",
"17 611 OFFCURVE",
"17 593 CURVE SMOOTH",
"17 581 OFFCURVE",
"24 564 OFFCURVE",
"38 543 CURVE SMOOTH"
);
},
{
closed = 1;
nodes = (
"730 450 OFFCURVE",
"754 575 OFFCURVE",
"762 590 CURVE SMOOTH",
"763 592 LINE",
"767 592 OFFCURVE",
"775 568 OFFCURVE",
"775 563 CURVE SMOOTH",
"775 555 OFFCURVE",
"771 534 OFFCURVE",
"771 526 CURVE SMOOTH",
"771 494 OFFCURVE",
"799 473 OFFCURVE",
"832 473 CURVE SMOOTH",
"877 474 OFFCURVE",
"912 504 OFFCURVE",
"912 548 CURVE SMOOTH",
"911 577 OFFCURVE",
"898 595 OFFCURVE",
"872 602 CURVE",
"923 604 LINE SMOOTH",
"938 605 OFFCURVE",
"947 603 OFFCURVE",
"952 598 CURVE",
"951 595 OFFCURVE",
"919 496 OFFCURVE",
"855 302 CURVE",
"848 312 OFFCURVE",
"841 330 OFFCURVE",
"835 357 CURVE SMOOTH",
"825 404 OFFCURVE",
"811 430 OFFCURVE",
"757 430 CURVE",
"748 429 OFFCURVE",
"738 428 OFFCURVE",
"727 427 CURVE"
);
},
{
closed = 1;
nodes = (
"295 425 OFFCURVE",
"300 415 OFFCURVE",
"311 415 CURVE",
"316 416 OFFCURVE",
"322 431 OFFCURVE",
"322 436 CURVE SMOOTH",
"322 442 OFFCURVE",
"320 446 OFFCURVE",
"316 449 CURVE",
"303 454 LINE",
"298 454 OFFCURVE",
"295 451 OFFCURVE",
"295 444 CURVE SMOOTH"
);
}
);
width = 988;
}
);
note = W;
unicode = 0057;
},
{
glyphname = X;
layers = (
{
hints = (
{
horizontal = 1;
place = "{-15, 30}";
type = Stem;
},
{
horizontal = 1;
place = "{587, 33}";
type = Stem;
},
{
place = "{-13, 716}";
type = Stem;
},
{
horizontal = 1;
place = "{5, 30}";
type = Stem;
},
{
place = "{-14, 716}";
type = Stem;
},
{
horizontal = 1;
place = "{1, 34}";
type = Stem;
},
{
horizontal = 1;
place = "{-11, 21}";
target = up;
type = BottomGhost;
},
{
horizontal = 1;
place = "{1, 21}";
target = up;
type = BottomGhost;
},
{
horizontal = 1;
place = "{609, 21}";
type = Stem;
}
);
layerId = "F72AA8BB-7F63-4F07-AEAC-030E55A5CABB";
paths = (
{
closed = 1;
nodes = (
"92 3 OFFCURVE",
"151 4 OFFCURVE",
"191 5 CURVE",
"256 1 LINE SMOOTH",
"273 0 OFFCURVE",
"292 21 OFFCURVE",
"312 62 CURVE SMOOTH",
"326 91 OFFCURVE",
"340 120 OFFCURVE",
"354 149 CURVE",
"357 138 OFFCURVE",
"389 86 OFFCURVE",
"391 71 CURVE",
"398 42 OFFCURVE",
"403 20 OFFCURVE",
"409 6 CURVE SMOOTH",
"412 -1 OFFCURVE",
"438 -1 OFFCURVE",
"485 -10 CURVE SMOOTH",
"490 -11 OFFCURVE",
"519 -12 OFFCURVE",
"572 -15 CURVE SMOOTH",
"606 -17 OFFCURVE",
"637 -16 OFFCURVE",
"664 -11 CURVE",
"668 -15 OFFCURVE",
"672 -17 OFFCURVE",
"677 -17 CURVE SMOOTH",
"694 -18 OFFCURVE",
"701 -12 OFFCURVE",
"703 1 CURVE SMOOTH",
"705 15 OFFCURVE",
"531 259 OFFCURVE",
"516 261 CURVE SMOOTH",
"514 261 OFFCURVE",
"513 260 OFFCURVE",
"512 257 CURVE",
"512 251 OFFCURVE",
"533 213 OFFCURVE",
"575 144 CURVE SMOOTH",
"620 70 OFFCURVE",
"645 27 OFFCURVE",
"650 15 CURVE",
"601 17 OFFCURVE",
"564 18 OFFCURVE",
"539 19 CURVE SMOOTH",
"511 21 LINE",
"525 34 OFFCURVE",
"533 49 OFFCURVE",
"534 68 CURVE SMOOTH",
"535 92 OFFCURVE",
"506 120 OFFCURVE",
"507 132 CURVE SMOOTH",
"507 143 OFFCURVE",
"520 162 OFFCURVE",
"520 173 CURVE SMOOTH",
"521 192 OFFCURVE",
"500 209 OFFCURVE",
"480 210 CURVE SMOOTH",
"465 211 OFFCURVE",
"451 206 OFFCURVE",
"440 195 CURVE SMOOTH",
"418 173 OFFCURVE",
"422 133 OFFCURVE",
"420 128 CURVE SMOOTH",
"418 123 OFFCURVE",
"412 115 OFFCURVE",
"403 105 CURVE",
"382 146 OFFCURVE",
"371 167 OFFCURVE",
"370 168 CURVE",
"381 178 OFFCURVE",
"388 188 OFFCURVE",
"392 197 CURVE",
"393 208 OFFCURVE",
"374 221 OFFCURVE",
"362 221 CURVE",
"357 222 OFFCURVE",
"339 190 OFFCURVE",
"308 127 CURVE SMOOTH",
"277 64 OFFCURVE",
"253 32 OFFCURVE",
"236 33 CURVE SMOOTH",
"171 37 LINE",
"184 58 OFFCURVE",
"191 82 OFFCURVE",
"192 110 CURVE SMOOTH",
"192 124 LINE SMOOTH",
"193 155 OFFCURVE",
"208 179 OFFCURVE",
"237 194 CURVE SMOOTH",
"264 207 OFFCURVE",
"292 220 OFFCURVE",
"320 233 CURVE",
"350 254 OFFCURVE",
"365 287 OFFCURVE",
"368 332 CURVE SMOOTH",
"370 366 OFFCURVE",
"362 393 OFFCURVE",
"345 414 CURVE SMOOTH",
"334 427 OFFCURVE",
"314 440 OFFCURVE",
"287 453 CURVE SMOOTH",
"258 467 OFFCURVE",
"239 478 OFFCURVE",
"232 485 CURVE SMOOTH",
"224 493 OFFCURVE",
"217 510 OFFCURVE",
"209 539 CURVE SMOOTH",
"201 567 OFFCURVE",
"188 590 OFFCURVE",
"169 609 CURVE",
"212 608 OFFCURVE",
"245 608 OFFCURVE",
"268 607 CURVE SMOOTH",
"290 606 OFFCURVE",
"309 593 OFFCURVE",
"323 568 CURVE",
"353 498 LINE",
"344 484 OFFCURVE",
"340 473 OFFCURVE",
"340 466 CURVE SMOOTH",
"339 456 OFFCURVE",
"346 451 OFFCURVE",
"359 450 CURVE SMOOTH",
"374 449 OFFCURVE",
"403 485 OFFCURVE",
"433 564 CURVE SMOOTH",
"438 577 OFFCURVE",
"451 586 OFFCURVE",
"471 588 CURVE SMOOTH",
"479 589 OFFCURVE",
"496 588 OFFCURVE",
"521 587 CURVE",
"519 573 OFFCURVE",
"506 556 OFFCURVE",
"483 537 CURVE SMOOTH",
"459 517 OFFCURVE",
"446 494 OFFCURVE",
"445 468 CURVE SMOOTH",
"443 429 OFFCURVE",
"462 402 OFFCURVE",
"501 385 CURVE",
"473 357 LINE SMOOTH",
"459 343 OFFCURVE",
"453 332 OFFCURVE",
"452 325 CURVE SMOOTH",
"452 314 OFFCURVE",
"458 309 OFFCURVE",
"471 308 CURVE SMOOTH",
"486 307 OFFCURVE",
"505 323 OFFCURVE",
"528 356 CURVE SMOOTH",
"542 379 OFFCURVE",
"557 402 OFFCURVE",
"571 426 CURVE SMOOTH",
"574 431 OFFCURVE",
"596 461 OFFCURVE",
"638 516 CURVE SMOOTH",
"676 566 OFFCURVE",
"696 593 OFFCURVE",
"696 598 CURVE SMOOTH",
"696 622 OFFCURVE",
"660 619 OFFCURVE",
"585 618 CURVE SMOOTH",
"510 617 OFFCURVE",
"478 620 OFFCURVE",
"459 620 CURVE SMOOTH",
"431 620 OFFCURVE",
"414 613 OFFCURVE",
"408 599 CURVE SMOOTH",
"389 556 OFFCURVE",
"375 528 OFFCURVE",
"365 514 CURVE",
"348 561 OFFCURVE",
"334 596 OFFCURVE",
"326 620 CURVE SMOOTH",
"324 626 OFFCURVE",
"317 630 OFFCURVE",
"306 630 CURVE SMOOTH",
"282 630 OFFCURVE",
"198 633 OFFCURVE",
"174 634 CURVE SMOOTH",
"156 635 OFFCURVE",
"100 658 OFFCURVE",
"85 659 CURVE SMOOTH",
"59 661 OFFCURVE",
"47 651 OFFCURVE",
"44 630 CURVE SMOOTH",
"43 623 OFFCURVE",
"48 614 OFFCURVE",
"57 605 CURVE SMOOTH",
"70 592 OFFCURVE",
"76 585 OFFCURVE",
"78 582 CURVE SMOOTH",
"121 517 OFFCURVE",
"165 438 OFFCURVE",
"222 349 CURVE",
"195 320 OFFCURVE",
"21 79 OFFCURVE",
"12 54 CURVE",
"-4 53 OFFCURVE",
"-12 44 OFFCURVE",
"-13 27 CURVE SMOOTH",
"-14 13 OFFCURVE",
"-5 5 OFFCURVE",
"13 5 CURVE SMOOTH"
);
}
);
width = 699;
}
);
note = X;
unicode = 0058;
},
{
glyphname = Y;
lastChange = "2021-11-10 22:28:55 +0000";
layers = (
{
hints = (
{
horizontal = 1;
place = "{20, 49}";
type = Stem;
},
{
horizontal = 1;
place = "{626, 62}";
type = Stem;
},
{
place = "{218, 48}";
type = Stem;
},
{
place = "{438, 55}";
type = Stem;
},
{
horizontal = 1;
place = "{26, 44}";
type = Stem;
},
{
horizontal = 1;
place = "{626, 45}";
type = Stem;
},
{
place = "{433, 42}";
type = Stem;
}
);
layerId = "F72AA8BB-7F63-4F07-AEAC-030E55A5CABB";
paths = (
{
closed = 1;
nodes = (
"12 588 OFFCURVE",
"19 579 OFFCURVE",
"34 576 CURVE",
"32 569 OFFCURVE",
"55 524 OFFCURVE",
"104 441 CURVE SMOOTH",
"142 376 OFFCURVE",
"170 329 OFFCURVE",
"188 301 CURVE",
"205 280 OFFCURVE",
"226 260 OFFCURVE",
"226 231 CURVE SMOOTH",
"226 210 OFFCURVE",
"225 178 OFFCURVE",
"222 135 CURVE SMOOTH",
"219 92 OFFCURVE",
"218 60 OFFCURVE",
"218 39 CURVE SMOOTH",
"218 -16 OFFCURVE",
"231 -30 OFFCURVE",
"286 -30 CURVE SMOOTH",
"307 -30 OFFCURVE",
"363 -24 OFFCURVE",
"384 -24 CURVE SMOOTH",
"399 -24 OFFCURVE",
"433 -28 OFFCURVE",
"445 -28 CURVE SMOOTH",
"477 -28 OFFCURVE",
"493 -10 OFFCURVE",
"493 27 CURVE SMOOTH",
"493 51 OFFCURVE",
"490 88 OFFCURVE",
"484 137 CURVE SMOOTH",
"478 185 OFFCURVE",
"475 222 OFFCURVE",
"475 247 CURVE SMOOTH",
"475 252 OFFCURVE",
"510 311 OFFCURVE",
"580 424 CURVE SMOOTH",
"650 537 OFFCURVE",
"684 601 OFFCURVE",
"684 617 CURVE SMOOTH",
"684 636 OFFCURVE",
"664 645 OFFCURVE",
"623 645 CURVE SMOOTH",
"603 645 OFFCURVE",
"575 641 OFFCURVE",
"538 633 CURVE SMOOTH",
"500 625 OFFCURVE",
"473 621 OFFCURVE",
"454 621 CURVE SMOOTH",
"422 621 OFFCURVE",
"403 613 OFFCURVE",
"398 596 CURVE",
"382 556 LINE SMOOTH",
"375 538 OFFCURVE",
"371 525 OFFCURVE",
"371 517 CURVE SMOOTH",
"371 507 OFFCURVE",
"374 502 OFFCURVE",
"380 502 CURVE SMOOTH",
"394 502 OFFCURVE",
"406 514 OFFCURVE",
"415 539 CURVE SMOOTH",
"424 564 OFFCURVE",
"434 576 OFFCURVE",
"443 576 CURVE SMOOTH",
"453 576 LINE",
"453 560 OFFCURVE",
"462 522 OFFCURVE",
"462 507 CURVE SMOOTH",
"462 494 OFFCURVE",
"456 478 OFFCURVE",
"443 458 CURVE SMOOTH",
"430 438 OFFCURVE",
"423 418 OFFCURVE",
"423 398 CURVE SMOOTH",
"423 365 OFFCURVE",
"430 335 OFFCURVE",
"445 308 CURVE",
"437 291 OFFCURVE",
"433 266 OFFCURVE",
"433 234 CURVE SMOOTH",
"433 215 OFFCURVE",
"434 186 OFFCURVE",
"436 147 CURVE SMOOTH",
"438 107 OFFCURVE",
"438 78 OFFCURVE",
"438 59 CURVE SMOOTH",
"438 44 OFFCURVE",
"437 35 OFFCURVE",
"435 31 CURVE SMOOTH",
"432 24 OFFCURVE",
"424 20 OFFCURVE",
"411 21 CURVE SMOOTH",
"395 22 OFFCURVE",
"374 21 OFFCURVE",
"347 20 CURVE SMOOTH",
"314 19 OFFCURVE",
"293 19 OFFCURVE",
"283 19 CURVE SMOOTH",
"271 19 OFFCURVE",
"265 25 OFFCURVE",
"266 38 CURVE SMOOTH",
"267 58 LINE",
"354 58 OFFCURVE",
"398 96 OFFCURVE",
"398 172 CURVE SMOOTH",
"398 198 OFFCURVE",
"393 219 OFFCURVE",
"380 233 CURVE SMOOTH",
"375 238 OFFCURVE",
"364 247 OFFCURVE",
"346 260 CURVE SMOOTH",
"334 269 OFFCURVE",
"328 278 OFFCURVE",
"328 289 CURVE SMOOTH",
"328 332 OFFCURVE",
"289 366 OFFCURVE",
"246 366 CURVE SMOOTH",
"235 366 OFFCURVE",
"225 365 OFFCURVE",
"216 362 CURVE",
"180 434 OFFCURVE",
"136 504 OFFCURVE",
"83 573 CURVE",
"118 575 OFFCURVE",
"152 576 OFFCURVE",
"184 576 CURVE",
"181 553 OFFCURVE",
"203 529 OFFCURVE",
"203 514 CURVE SMOOTH",
"203 505 OFFCURVE",
"198 485 OFFCURVE",
"198 476 CURVE SMOOTH",
"198 444 OFFCURVE",
"225 424 OFFCURVE",
"258 424 CURVE SMOOTH",
"279 424 OFFCURVE",
"297 429 OFFCURVE",
"312 440 CURVE",
"323 401 OFFCURVE",
"337 381 OFFCURVE",
"355 381 CURVE SMOOTH",
"373 381 OFFCURVE",
"382 392 OFFCURVE",
"382 413 CURVE SMOOTH",
"382 414 OFFCURVE",
"370 442 OFFCURVE",
"346 499 CURVE SMOOTH",
"321 559 OFFCURVE",
"306 595 OFFCURVE",
"303 606 CURVE SMOOTH",
"300 617 OFFCURVE",
"289 622 OFFCURVE",
"273 622 CURVE SMOOTH",
"251 622 OFFCURVE",
"219 625 OFFCURVE",
"176 630 CURVE SMOOTH",
"132 635 OFFCURVE",
"100 638 OFFCURVE",
"79 638 CURVE SMOOTH",
"58 638 OFFCURVE",
"12 629 OFFCURVE",
"12 601 CURVE SMOOTH"
);
}
);
width = 683;
}
);
note = Y;
unicode = 0059;
},
{
glyphname = Z;
lastChange = "2021-11-10 22:28:48 +0000";
layers = (
{
hints = (
{
horizontal = 1;
place = "{-2, 61}";
type = Stem;
},
{
horizontal = 1;
place = "{167, 50}";
type = Stem;
},
{
horizontal = 1;
place = "{422, 123}";
type = Stem;
},
{
horizontal = 1;
place = "{603, 39}";
type = Stem;
},
{
place = "{91, 48}";
type = Stem;
},
{
place = "{377, 38}";
type = Stem;
},
{
place = "{607, 48}";
type = Stem;
},
{
horizontal = 1;
place = "{-5, 21}";
target = up;
type = BottomGhost;
},
{
place = "{90, 48}";
type = Stem;
},
{
place = "{376, 38}";
type = Stem;
},
{
place = "{606, 48}";
type = Stem;
},
{
horizontal = 1;
place = "{-25, 21}";
target = up;
type = BottomGhost;
},
{
horizontal = 1;
place = "{-2, 86}";
type = Stem;
}
);
layerId = "F72AA8BB-7F63-4F07-AEAC-030E55A5CABB";
paths = (
{
closed = 1;
nodes = (
"125 -20 OFFCURVE",
"196 -16 OFFCURVE",
"292 -7 CURVE SMOOTH",
"387 1 OFFCURVE",
"458 7 OFFCURVE",
"505 9 CURVE SMOOTH",
"532 9 OFFCURVE",
"621 0 OFFCURVE",
"646 2 CURVE SMOOTH",
"666 2 OFFCURVE",
"676 12 OFFCURVE",
"675 31 CURVE SMOOTH",
"672 156 LINE SMOOTH",
"671 177 OFFCURVE",
"671 188 OFFCURVE",
"671 191 CURVE SMOOTH",
"668 223 OFFCURVE",
"659 239 OFFCURVE",
"642 238 CURVE SMOOTH",
"634 238 OFFCURVE",
"629 233 OFFCURVE",
"628 224 CURVE",
"586 231 OFFCURVE",
"541 234 OFFCURVE",
"493 231 CURVE SMOOTH",
"449 228 LINE",
"507 340 LINE SMOOTH",
"548 420 OFFCURVE",
"571 449 OFFCURVE",
"630 513 CURVE SMOOTH",
"655 541 OFFCURVE",
"689 578 OFFCURVE",
"690 618 CURVE SMOOTH",
"690 627 OFFCURVE",
"685 632 OFFCURVE",
"677 631 CURVE SMOOTH",
"623 626 OFFCURVE",
"563 552 OFFCURVE",
"501 402 CURVE",
"500 402 OFFCURVE",
"496 411 OFFCURVE",
"490 427 CURVE SMOOTH",
"484 443 OFFCURVE",
"471 451 OFFCURVE",
"452 450 CURVE SMOOTH",
"425 449 OFFCURVE",
"404 431 OFFCURVE",
"404 404 CURVE SMOOTH",
"404 395 OFFCURVE",
"411 384 OFFCURVE",
"423 372 CURVE SMOOTH",
"435 360 OFFCURVE",
"442 351 OFFCURVE",
"441 342 CURVE SMOOTH",
"443 330 OFFCURVE",
"423 295 OFFCURVE",
"424 276 CURVE SMOOTH",
"425 266 LINE",
"402 229 OFFCURVE",
"392 205 OFFCURVE",
"391 195 CURVE SMOOTH",
"392 182 OFFCURVE",
"397 176 OFFCURVE",
"407 176 CURVE SMOOTH",
"412 176 OFFCURVE",
"420 183 OFFCURVE",
"429 196 CURVE",
"445 185 OFFCURVE",
"471 181 OFFCURVE",
"504 182 CURVE SMOOTH",
"559 184 OFFCURVE",
"599 184 OFFCURVE",
"623 183 CURVE",
"623 158 OFFCURVE",
"621 132 OFFCURVE",
"619 107 CURVE SMOOTH",
"615 74 OFFCURVE",
"603 57 OFFCURVE",
"582 54 CURVE",
"523 121 OFFCURVE",
"463 154 OFFCURVE",
"404 152 CURVE SMOOTH",
"368 150 OFFCURVE",
"327 139 OFFCURVE",
"282 118 CURVE SMOOTH",
"236 96 OFFCURVE",
"200 71 OFFCURVE",
"175 44 CURVE",
"146 42 OFFCURVE",
"122 45 OFFCURVE",
"103 51 CURVE",
"141 105 OFFCURVE",
"170 148 OFFCURVE",
"187 179 CURVE",
"197 177 OFFCURVE",
"206 177 OFFCURVE",
"213 178 CURVE SMOOTH",
"228 179 OFFCURVE",
"243 186 OFFCURVE",
"256 201 CURVE SMOOTH",
"279 224 OFFCURVE",
"291 237 OFFCURVE",
"293 238 CURVE SMOOTH",
"329 260 OFFCURVE",
"344 289 OFFCURVE",
"343 312 CURVE SMOOTH",
"342 331 OFFCURVE",
"332 353 OFFCURVE",
"313 376 CURVE",
"349 410 OFFCURVE",
"366 432 OFFCURVE",
"366 443 CURVE SMOOTH",
"366 459 OFFCURVE",
"344 478 OFFCURVE",
"327 477 CURVE SMOOTH",
"320 476 OFFCURVE",
"312 474 OFFCURVE",
"304 469 CURVE SMOOTH",
"291 462 OFFCURVE",
"283 458 OFFCURVE",
"281 457 CURVE",
"267 482 OFFCURVE",
"248 495 OFFCURVE",
"221 497 CURVE SMOOTH",
"214 497 OFFCURVE",
"202 503 OFFCURVE",
"186 515 CURVE SMOOTH",
"170 526 OFFCURVE",
"152 530 OFFCURVE",
"135 528 CURVE SMOOTH",
"123 527 LINE",
"125 566 OFFCURVE",
"146 587 OFFCURVE",
"185 591 CURVE SMOOTH",
"194 592 OFFCURVE",
"205 592 OFFCURVE",
"220 591 CURVE SMOOTH",
"238 591 OFFCURVE",
"250 591 OFFCURVE",
"257 591 CURVE SMOOTH",
"284 593 OFFCURVE",
"312 577 OFFCURVE",
"340 546 CURVE SMOOTH",
"368 515 OFFCURVE",
"394 499 OFFCURVE",
"419 500 CURVE SMOOTH",
"468 503 OFFCURVE",
"510 546 OFFCURVE",
"506 594 CURVE SMOOTH",
"504 604 LINE",
"568 608 LINE SMOOTH",
"601 611 OFFCURVE",
"620 616 OFFCURVE",
"624 622 CURVE",
"623 630 OFFCURVE",
"613 635 OFFCURVE",
"593 636 CURVE SMOOTH",
"539 640 OFFCURVE",
"474 641 OFFCURVE",
"395 637 CURVE SMOOTH",
"329 634 OFFCURVE",
"263 629 OFFCURVE",
"198 627 CURVE SMOOTH",
"181 627 OFFCURVE",
"139 630 OFFCURVE",
"122 629 CURVE SMOOTH",
"110 629 OFFCURVE",
"101 626 OFFCURVE",
"92 623 CURVE SMOOTH",
"83 619 OFFCURVE",
"78 593 OFFCURVE",
"79 546 CURVE SMOOTH",
"79 532 OFFCURVE",
"79 502 OFFCURVE",
"81 456 CURVE SMOOTH",
"82 416 OFFCURVE",
"92 396 OFFCURVE",
"109 396 CURVE SMOOTH",
"122 396 OFFCURVE",
"143 401 OFFCURVE",
"171 408 CURVE SMOOTH",
"200 414 OFFCURVE",
"223 418 OFFCURVE",
"238 419 CURVE SMOOTH",
"261 419 OFFCURVE",
"275 417 OFFCURVE",
"279 410 CURVE",
"279 402 OFFCURVE",
"105 94 OFFCURVE",
"81 57 CURVE",
"74 59 OFFCURVE",
"68 59 OFFCURVE",
"63 59 CURVE SMOOTH",
"42 57 OFFCURVE",
"32 41 OFFCURVE",
"33 12 CURVE SMOOTH",
"34 -11 OFFCURVE",
"49 -23 OFFCURVE",
"78 -22 CURVE SMOOTH"
);
}
);
width = 695;
}
);
note = Z;
unicode = 005A;
},
{
glyphname = a;
layers = (
{
hints = (
{
horizontal = 1;
place = "{-35, 31}";
type = Stem;
},
{
horizontal = 1;
place = "{-3, 35}";
type = Stem;
},
{
horizontal = 1;
place = "{75, 32}";
type = Stem;
},
{
horizontal = 1;
place = "{125, 140}";
type = Stem;
},
{
horizontal = 1;
place = "{368, 30}";
type = Stem;
},
{
horizontal = 1;
place = "{431, 30}";
type = Stem;
},
{
horizontal = 1;
place = "{521, 31}";
type = Stem;
},
{
place = "{9, 149}";
type = Stem;
},
{
place = "{166, 32}";
type = Stem;
},
{
place = "{265, 118}";
type = Stem;
},
{
place = "{29, 62}";
type = Stem;
},
{
place = "{164, 32}";
type = Stem;
},
{
place = "{255, 33}";
type = Stem;
},
{
place = "{7, 149}";
type = Stem;
},
{
place = "{263, 118}";
type = Stem;
}
);
layerId = "F72AA8BB-7F63-4F07-AEAC-030E55A5CABB";
paths = (
{
closed = 1;
nodes = (
"199 185 OFFCURVE",
"221 211 OFFCURVE",
"265 231 CURVE",
"266 194 OFFCURVE",
"267 168 OFFCURVE",
"268 153 CURVE SMOOTH",
"270 124 OFFCURVE",
"258 109 OFFCURVE",
"233 107 CURVE SMOOTH",
"222 106 OFFCURVE",
"214 110 OFFCURVE",
"207 119 CURVE SMOOTH",
"200 128 OFFCURVE",
"197 139 OFFCURVE",
"198 152 CURVE SMOOTH"
);
},
{
closed = 1;
nodes = (
"14 42 OFFCURVE",
"70 -35 OFFCURVE",
"170 -35 CURVE SMOOTH",
"215 -35 OFFCURVE",
"252 -21 OFFCURVE",
"281 6 CURVE",
"297 27 OFFCURVE",
"307 41 OFFCURVE",
"310 50 CURVE SMOOTH",
"314 61 OFFCURVE",
"309 67 OFFCURVE",
"297 67 CURVE SMOOTH",
"289 67 OFFCURVE",
"283 63 OFFCURVE",
"280 56 CURVE SMOOTH",
"264 19 OFFCURVE",
"230 -1 OFFCURVE",
"179 -4 CURVE SMOOTH",
"168 -5 OFFCURVE",
"153 0 OFFCURVE",
"136 11 CURVE SMOOTH",
"119 22 OFFCURVE",
"109 31 OFFCURVE",
"106 41 CURVE SMOOTH",
"105 46 OFFCURVE",
"110 50 OFFCURVE",
"122 52 CURVE SMOOTH",
"134 54 OFFCURVE",
"141 58 OFFCURVE",
"144 65 CURVE SMOOTH",
"154 89 OFFCURVE",
"158 110 OFFCURVE",
"158 127 CURVE SMOOTH",
"158 169 OFFCURVE",
"132 196 OFFCURVE",
"97 213 CURVE SMOOTH",
"82 220 OFFCURVE",
"75 227 OFFCURVE",
"75 232 CURVE SMOOTH",
"75 258 OFFCURVE",
"146 285 OFFCURVE",
"165 291 CURVE SMOOTH",
"172 293 OFFCURVE",
"190 297 OFFCURVE",
"220 303 CURVE SMOOTH",
"245 308 OFFCURVE",
"263 314 OFFCURVE",
"274 319 CURVE SMOOTH",
"285 324 OFFCURVE",
"290 340 OFFCURVE",
"290 369 CURVE SMOOTH",
"290 412 OFFCURVE",
"288 461 OFFCURVE",
"234 461 CURVE SMOOTH",
"201 461 OFFCURVE",
"183 440 OFFCURVE",
"181 398 CURVE",
"153 401 OFFCURVE",
"134 411 OFFCURVE",
"124 426 CURVE",
"103 437 OFFCURVE",
"93 448 OFFCURVE",
"93 459 CURVE SMOOTH",
"93 470 OFFCURVE",
"102 480 OFFCURVE",
"120 490 CURVE SMOOTH",
"152 508 OFFCURVE",
"194 518 OFFCURVE",
"245 521 CURVE SMOOTH",
"254 522 OFFCURVE",
"271 513 OFFCURVE",
"294 495 CURVE SMOOTH",
"321 474 OFFCURVE",
"334 455 OFFCURVE",
"334 437 CURVE SMOOTH",
"334 430 OFFCURVE",
"332 423 OFFCURVE",
"328 417 CURVE SMOOTH",
"315 398 OFFCURVE",
"309 379 OFFCURVE",
"309 358 CURVE SMOOTH",
"309 320 OFFCURVE",
"327 293 OFFCURVE",
"363 276 CURVE SMOOTH",
"368 274 OFFCURVE",
"378 274 OFFCURVE",
"391 279 CURVE SMOOTH",
"404 284 OFFCURVE",
"411 285 OFFCURVE",
"414 285 CURVE SMOOTH",
"420 285 OFFCURVE",
"423 281 OFFCURVE",
"423 274 CURVE SMOOTH",
"423 229 OFFCURVE",
"423 185 OFFCURVE",
"424 141 CURVE SMOOTH",
"427 88 OFFCURVE",
"441 50 OFFCURVE",
"466 27 CURVE",
"346 37 LINE SMOOTH",
"332 38 OFFCURVE",
"325 32 OFFCURVE",
"325 19 CURVE SMOOTH",
"325 10 OFFCURVE",
"327 5 OFFCURVE",
"332 5 CURVE SMOOTH",
"489 -3 LINE SMOOTH",
"494 -3 OFFCURVE",
"498 -2 OFFCURVE",
"502 2 CURVE SMOOTH",
"506 6 OFFCURVE",
"506 10 OFFCURVE",
"504 13 CURVE SMOOTH",
"465 72 OFFCURVE",
"457 205 OFFCURVE",
"454 276 CURVE SMOOTH",
"450 351 OFFCURVE",
"446 399 OFFCURVE",
"443 418 CURVE SMOOTH",
"436 465 OFFCURVE",
"417 499 OFFCURVE",
"390 520 CURVE SMOOTH",
"358 545 OFFCURVE",
"309 556 OFFCURVE",
"243 552 CURVE SMOOTH",
"96 543 OFFCURVE",
"25 486 OFFCURVE",
"31 375 CURVE SMOOTH",
"32 364 OFFCURVE",
"37 359 OFFCURVE",
"47 360 CURVE",
"98 371 OFFCURVE",
"148 373 OFFCURVE",
"197 368 CURVE",
"208 368 OFFCURVE",
"213 373 OFFCURVE",
"212 384 CURVE SMOOTH",
"209 415 OFFCURVE",
"218 431 OFFCURVE",
"233 431 CURVE SMOOTH",
"238 431 OFFCURVE",
"244 429 OFFCURVE",
"250 424 CURVE",
"253 419 OFFCURVE",
"255 407 OFFCURVE",
"257 387 CURVE SMOOTH",
"259 368 OFFCURVE",
"258 354 OFFCURVE",
"256 345 CURVE",
"254 345 LINE",
"211 334 OFFCURVE",
"178 326 OFFCURVE",
"156 321 CURVE SMOOTH",
"105 306 OFFCURVE",
"68 282 OFFCURVE",
"43 249 CURVE SMOOTH",
"18 216 OFFCURVE",
"7 178 OFFCURVE",
"9 137 CURVE SMOOTH"
);
},
{
closed = 1;
nodes = (
"166 112 OFFCURVE",
"193 75 OFFCURVE",
"235 75 CURVE SMOOTH",
"267 75 OFFCURVE",
"287 91 OFFCURVE",
"296 123 CURVE",
"297 124 OFFCURVE",
"300 125 OFFCURVE",
"305 125 CURVE SMOOTH",
"323 125 LINE SMOOTH",
"356 125 OFFCURVE",
"383 140 OFFCURVE",
"383 176 CURVE SMOOTH",
"383 190 OFFCURVE",
"376 205 OFFCURVE",
"363 221 CURVE SMOOTH",
"350 237 OFFCURVE",
"342 247 OFFCURVE",
"342 252 CURVE SMOOTH",
"342 257 OFFCURVE",
"332 261 OFFCURVE",
"313 265 CURVE SMOOTH",
"294 269 OFFCURVE",
"281 270 OFFCURVE",
"275 268 CURVE SMOOTH",
"223 251 OFFCURVE",
"168 212 OFFCURVE",
"166 152 CURVE SMOOTH"
);
}
);
width = 495;
}
);
note = a;
unicode = 0061;
},
